<?xml version="1.0" standalone="yes"?>
<svg xmlns="http://www.w3.org/2000/svg" width="239" height="211">
<path style="fill:#7322dd; stroke:none;" d="M0 0L0 211L239 211L239 0L0 0z"/>
<path style="fill:#5d89a4; stroke:none;" d="M119 31L120 32L119 31z"/>
<path style="fill:#4fb27e; stroke:none;" d="M118 32L109 42L118 32z"/>
<path style="fill:#3cdd45; stroke:none;" d="M119 32L63 88L63 89C66.7041 92.7041 73.3155 102.364 79 102.364C83.5213 102.364 88.1043 96.0124 90.8302 93C100.284 82.5522 111.465 73.2022 120 62C126.207 73.9644 139.7 83.3187 148.961 93C151.791 95.9591 155.379 102.142 160.001 102.248C165.683 102.379 172.316 92.6842 176 89L176 88C157.827 69.8272 139.995 46.789 119 32z"/>
<path style="fill:#4fb27e; stroke:none;" d="M120 32L121 33L120 32M121 33L122 34L121 33M122 34L123 35L122 34M123 35L124 36L123 35M124 36L125 37L124 36M125 37L126 38L125 37M126 38L127 39L126 38M127 39L128 40L127 39M128 40L129 41L128 40M129 41L130 42L129 41z"/>
<path style="fill:#5d89a4; stroke:none;" d="M108 42L109 43L108 42z"/>
<path style="fill:#4fb27e; stroke:none;" d="M130 42L131 43L130 42z"/>
<path style="fill:#5d89a4; stroke:none;" d="M107 43L108 44L107 43z"/>
<path style="fill:#4fb27e; stroke:none;" d="M131 43L132 44L131 43z"/>
<path style="fill:#5d89a4; stroke:none;" d="M106 44L107 45L106 44z"/>
<path style="fill:#4fb27e; stroke:none;" d="M132 44L133 45L132 44z"/>
<path style="fill:#5d89a4; stroke:none;" d="M105 45L106 46L105 45z"/>
<path style="fill:#4fb27e; stroke:none;" d="M133 45L134 46L133 45z"/>
<path style="fill:#5d89a4; stroke:none;" d="M104 46L105 47L104 46z"/>
<path style="fill:#4fb27e; stroke:none;" d="M134 46L135 47L134 46z"/>
<path style="fill:#5d89a4; stroke:none;" d="M103 47L104 48L103 47z"/>
<path style="fill:#4fb27e; stroke:none;" d="M135 47L136 48L135 47z"/>
<path style="fill:#5d89a4; stroke:none;" d="M102 48L103 49L102 48z"/>
<path style="fill:#4fb27e; stroke:none;" d="M136 48L137 49L136 48z"/>
<path style="fill:#5d89a4; stroke:none;" d="M101 49L102 50L101 49z"/>
<path style="fill:#4fb27e; stroke:none;" d="M137 49L138 50L137 49z"/>
<path style="fill:#5d89a4; stroke:none;" d="M100 50L101 51L100 50z"/>
<path style="fill:#4fb27e; stroke:none;" d="M138 50L139 51L138 50z"/>
<path style="fill:#5d89a4; stroke:none;" d="M99 51L100 52L99 51z"/>
<path style="fill:#4fb27e; stroke:none;" d="M139 51L140 52L139 51z"/>
<path style="fill:#5d89a4; stroke:none;" d="M98 52L99 53L98 52z"/>
<path style="fill:#4fb27e; stroke:none;" d="M140 52L141 53L140 52z"/>
<path style="fill:#5d89a4; stroke:none;" d="M97 53L98 54L97 53z"/>
<path style="fill:#4fb27e; stroke:none;" d="M141 53L142 54L141 53z"/>
<path style="fill:#5d89a4; stroke:none;" d="M96 54L97 55L96 54z"/>
<path style="fill:#4fb27e; stroke:none;" d="M142 54L143 55L142 54z"/>
<path style="fill:#5d89a4; stroke:none;" d="M95 55L96 56L95 55z"/>
<path style="fill:#4fb27e; stroke:none;" d="M143 55L144 56L143 55z"/>
<path style="fill:#5d89a4; stroke:none;" d="M94 56L95 57L94 56z"/>
<path style="fill:#4fb27e; stroke:none;" d="M144 56L145 57L144 56z"/>
<path style="fill:#5d89a4; stroke:none;" d="M93 57L94 58L93 57z"/>
<path style="fill:#4fb27e; stroke:none;" d="M145 57L146 58L145 57z"/>
<path style="fill:#5d89a4; stroke:none;" d="M92 58L93 59L92 58z"/>
<path style="fill:#4fb27e; stroke:none;" d="M146 58L147 59L146 58z"/>
<path style="fill:#5d89a4; stroke:none;" d="M91 59L92 60L91 59z"/>
<path style="fill:#4fb27e; stroke:none;" d="M147 59L148 60L147 59z"/>
<path style="fill:#5d89a4; stroke:none;" d="M90 60L91 61L90 60z"/>
<path style="fill:#4fb27e; stroke:none;" d="M148 60L149 61L148 60z"/>
<path style="fill:#5d89a4; stroke:none;" d="M89 61L90 62L89 61z"/>
<path style="fill:#4fb27e; stroke:none;" d="M149 61L150 62L149 61z"/>
<path style="fill:#5d89a4; stroke:none;" d="M88 62L89 63L88 62M119 62L120 63L119 62z"/>
<path style="fill:#4fb27e; stroke:none;" d="M150 62L151 63L150 62z"/>
<path style="fill:#5d89a4; stroke:none;" d="M87 63L88 64L87 63z"/>
<path style="fill:#4fb27e; stroke:none;" d="M120 63L121 64L120 63M151 63L152 64L151 63z"/>
<path style="fill:#5d89a4; stroke:none;" d="M86 64L87 65L86 64z"/>
<path style="fill:#695dc1; stroke:none;" d="M118 64L119 65L118 64z"/>
<path style="fill:#4fb27e; stroke:none;" d="M152 64L153 65L152 64z"/>
<path style="fill:#5d89a4; stroke:none;" d="M85 65L86 66L85 65z"/>
<path style="fill:#695dc1; stroke:none;" d="M117 65L118 66L117 65M121 65L122 66L121 65z"/>
<path style="fill:#4fb27e; stroke:none;" d="M153 65L154 66L153 65z"/>
<path style="fill:#5d89a4; stroke:none;" d="M84 66L85 67L84 66M116 66L117 67L116 66z"/>
<path style="fill:#695dc1; stroke:none;" d="M122 66L123 67L122 66z"/>
<path style="fill:#4fb27e; stroke:none;" d="M154 66L155 67L154 66z"/>
<path style="fill:#5d89a4; stroke:none;" d="M83 67L84 68L83 67M115 67L116 68L115 67z"/>
<path style="fill:#695dc1; stroke:none;" d="M123 67L124 68L123 67z"/>
<path style="fill:#4fb27e; stroke:none;" d="M155 67L156 68L155 67z"/>
<path style="fill:#5d89a4; stroke:none;" d="M82 68L83 69L82 68M114 68L115 69L114 68z"/>
<path style="fill:#695dc1; stroke:none;" d="M124 68L125 69L124 68z"/>
<path style="fill:#4fb27e; stroke:none;" d="M156 68L157 69L156 68z"/>
<path style="fill:#5d89a4; stroke:none;" d="M81 69L82 70L81 69M113 69L114 70L113 69z"/>
<path style="fill:#695dc1; stroke:none;" d="M125 69L126 70L125 69z"/>
<path style="fill:#4fb27e; stroke:none;" d="M157 69L158 70L157 69z"/>
<path style="fill:#5d89a4; stroke:none;" d="M80 70L81 71L80 70M112 70L113 71L112 70z"/>
<path style="fill:#695dc1; stroke:none;" d="M126 70L127 71L126 70z"/>
<path style="fill:#4fb27e; stroke:none;" d="M158 70L159 71L158 70z"/>
<path style="fill:#5d89a4; stroke:none;" d="M79 71L80 72L79 71M111 71L112 72L111 71z"/>
<path style="fill:#695dc1; stroke:none;" d="M127 71L128 72L127 71z"/>
<path style="fill:#4fb27e; stroke:none;" d="M159 71L160 72L159 71z"/>
<path style="fill:#5d89a4; stroke:none;" d="M78 72L79 73L78 72M110 72L111 73L110 72M128 72L129 73L128 72z"/>
<path style="fill:#4fb27e; stroke:none;" d="M160 72L161 73L160 72z"/>
<path style="fill:#5d89a4; stroke:none;" d="M77 73L78 74L77 73M109 73L110 74L109 73M129 73L130 74L129 73z"/>
<path style="fill:#4fb27e; stroke:none;" d="M161 73L162 74L161 73z"/>
<path style="fill:#5d89a4; stroke:none;" d="M76 74L77 75L76 74M108 74L109 75L108 74M130 74L131 75L130 74z"/>
<path style="fill:#4fb27e; stroke:none;" d="M162 74L163 75L162 74z"/>
<path style="fill:#5d89a4; stroke:none;" d="M75 75L76 76L75 75z"/>
<path style="fill:#4fb27e; stroke:none;" d="M107 75L108 76L107 75z"/>
<path style="fill:#5d89a4; stroke:none;" d="M131 75L132 76L131 75z"/>
<path style="fill:#4fb27e; stroke:none;" d="M163 75L164 76L163 75z"/>
<path style="fill:#5d89a4; stroke:none;" d="M74 76L75 77L74 76z"/>
<path style="fill:#4fb27e; stroke:none;" d="M106 76L107 77L106 76z"/>
<path style="fill:#5d89a4; stroke:none;" d="M132 76L133 77L132 76z"/>
<path style="fill:#4fb27e; stroke:none;" d="M164 76L165 77L164 76z"/>
<path style="fill:#5d89a4; stroke:none;" d="M73 77L74 78L73 77z"/>
<path style="fill:#4fb27e; stroke:none;" d="M105 77L106 78L105 77z"/>
<path style="fill:#5d89a4; stroke:none;" d="M133 77L134 78L133 77M165 77L166 78L165 77M72 78L73 79L72 78z"/>
<path style="fill:#4fb27e; stroke:none;" d="M104 78L105 79L104 78z"/>
<path style="fill:#5d89a4; stroke:none;" d="M134 78L135 79L134 78M166 78L167 79L166 78M71 79L72 80L71 79z"/>
<path style="fill:#4fb27e; stroke:none;" d="M103 79L104 80L103 79z"/>
<path style="fill:#5d89a4; stroke:none;" d="M135 79L136 80L135 79M167 79L168 80L167 79M70 80L71 81L70 80z"/>
<path style="fill:#4fb27e; stroke:none;" d="M102 80L103 81L102 80z"/>
<path style="fill:#5d89a4; stroke:none;" d="M136 80L137 81L136 80M168 80L169 81L168 80M69 81L70 82L69 81z"/>
<path style="fill:#4fb27e; stroke:none;" d="M101 81L102 82L101 81z"/>
<path style="fill:#5d89a4; stroke:none;" d="M137 81L138 82L137 81M169 81L170 82L169 81M68 82L69 83L68 82z"/>
<path style="fill:#4fb27e; stroke:none;" d="M100 82L101 83L100 82M138 82L139 83L138 82z"/>
<path style="fill:#5d89a4; stroke:none;" d="M170 82L171 83L170 82M67 83L68 84L67 83z"/>
<path style="fill:#4fb27e; stroke:none;" d="M99 83L100 84L99 83M139 83L140 84L139 83z"/>
<path style="fill:#5d89a4; stroke:none;" d="M171 83L172 84L171 83M66 84L67 85L66 84z"/>
<path style="fill:#4fb27e; stroke:none;" d="M98 84L99 85L98 84M140 84L141 85L140 84z"/>
<path style="fill:#5d89a4; stroke:none;" d="M172 84L173 85L172 84M65 85L66 86L65 85z"/>
<path style="fill:#4fb27e; stroke:none;" d="M97 85L98 86L97 85M141 85L142 86L141 85z"/>
<path style="fill:#5d89a4; stroke:none;" d="M173 85L174 86L173 85M64 86L65 87L64 86z"/>
<path style="fill:#4fb27e; stroke:none;" d="M96 86L97 87L96 86M142 86L143 87L142 86z"/>
<path style="fill:#5d89a4; stroke:none;" d="M174 86L175 87L174 86M63 87L64 88L63 87z"/>
<path style="fill:#4fb27e; stroke:none;" d="M95 87L96 88L95 87M143 87L144 88L143 87z"/>
<path style="fill:#5d89a4; stroke:none;" d="M175 87L176 88L175 87z"/>
<path style="fill:#695dc1; stroke:none;" d="M62 88L63 89L62 88z"/>
<path style="fill:#4fb27e; stroke:none;" d="M94 88L95 89L94 88M144 88L145 89L144 88z"/>
<path style="fill:#5d89a4; stroke:none;" d="M176 88L177 89L176 88z"/>
<path style="fill:#4fb27e; stroke:none;" d="M63 89L64 90L63 89M93 89L94 90L93 89M145 89L146 90L145 89M175 89L176 90L175 89M64 90L65 91L64 90M146 90L147 91L146 90M174 90L175 91L174 90M65 91L66 92L65 91M147 91L148 92L147 91M173 91L174 92L173 91M66 92L67 93L66 92M148 92L149 93L148 92M172 92L173 93L172 92M67 93L68 94L67 93M149 93L150 94L149 93M171 93L172 94L171 93M68 94L69 95L68 94M150 94L151 95L150 94M170 94L171 95L170 94M69 95L70 96L69 95M151 95L152 96L151 95M169 95L170 96L169 95M70 96L71 97L70 96M152 96L153 97L152 96M168 96L169 97L168 96M71 97L72 98L71 97M167 97L168 98L167 97M72 98L73 99L72 98M166 98L167 99L166 98M73 99L74 100L73 99M165 99L166 100L165 99M74 100L75 101L74 100M164 100L165 101L164 100M75 101L76 102L75 101M163 101L164 102L163 101M76 102L77 103L76 102M158 102L159 103L158 102M162 102L163 103L162 102z"/>
<path style="fill:#695dc1; stroke:none;" d="M78.6667 103.333L79.3333 103.667L78.6667 103.333M159 103L159 104L162 104L159 103M69 148L70 149L69 148z"/>
<path style="fill:#5d89a4; stroke:none;" d="M70 148L70 149L75 149L70 148z"/>
<path style="fill:#695dc1; stroke:none;" d="M75 148L76 149L75 148M124 148L125 149L124 148z"/>
<path style="fill:#5d89a4; stroke:none;" d="M125 148L125 149L130 149L125 148z"/>
<path style="fill:#695dc1; stroke:none;" d="M130 148L131 149L130 148M193 148L194 149L193 148z"/>
<path style="fill:#5d89a4; stroke:none;" d="M194 148L194 149L199 149L194 148z"/>
<path style="fill:#695dc1; stroke:none;" d="M199 148L200 149L199 148z"/>
<path style="fill:#5d89a4; stroke:none;" d="M31 149L32 150L31 149z"/>
<path style="fill:#3cdd45; stroke:none;" d="M32 149L32 179L37 179L37 149L32 149z"/>
<path style="fill:#5d89a4; stroke:none;" d="M37 149L37 179L33 179L33 180C40.8787 178.685 39.6176 155.238 37 149M49 149L50 150L49 149z"/>
<path style="fill:#3cdd45; stroke:none;" d="M55 160L55 149C47.0848 149.617 47.0848 159.383 55 160z"/>
<path style="fill:#5d89a4; stroke:none;" d="M55 149L55 160L50 160L50 161C56.5707 160.488 57.2884 154.453 55 149z"/>
<path style="fill:#695dc1; stroke:none;" d="M66 149L67 150L66 149z"/>
<path style="fill:#4fb27e; stroke:none;" d="M67 149L68 150L67 149z"/>
<path style="fill:#3cdd45; stroke:none;" d="M68.0154 149.653C53.953 154.191 59.5654 185.574 77.9815 178.258C90.8684 173.138 85.15 144.123 68.0154 149.653z"/>
<path style="fill:#4fb27e; stroke:none;" d="M77 149L78 150L77 149z"/>
<path style="fill:#695dc1; stroke:none;" d="M78 149L79 150L78 149M89 149L90 150L89 149z"/>
<path style="fill:#3cdd45; stroke:none;" d="M90 149C90 156.107 87.8254 167.564 91.179 173.981C94.819 180.946 107.126 180.883 110.821 173.956C114.203 167.615 112 156.05 112 149L106 150C107.344 155.643 108.107 163.433 105.968 168.981C104.523 172.728 100.711 174.975 97.4336 171.677C92.7371 166.952 95 155.131 95 149L90 149z"/>
<path style="fill:#4fb27e; stroke:none;" d="M95 149L95 170L96 170L95 149z"/>
<path style="fill:#5d89a4; stroke:none;" d="M106 149L107 150L106 149M112 149L112 169L113 169L112 149M122 149L123 150L122 149z"/>
<path style="fill:#3cdd45; stroke:none;" d="M122 170L117 172C120.305 179.332 134.936 183.443 137.551 172.985C140.181 162.467 125.059 163.912 125.056 157.047C125.053 152.152 140.465 159.495 135.338 152.209C130.552 145.407 117.381 149.34 118.192 157.999C118.926 165.836 128.695 164.265 130.655 170.158C132.83 176.695 123.582 171.831 122 170z"/>
<path style="fill:#4fb27e; stroke:none;" d="M132 149L133 150L132 149z"/>
<path style="fill:#695dc1; stroke:none;" d="M133 149L134 150L133 149z"/>
<path style="fill:#4fb27e; stroke:none;" d="M143 149L144 150L143 149z"/>
<path style="fill:#3cdd45; stroke:none;" d="M149 179L149 149C139.475 149.742 139.475 178.258 149 179z"/>
<path style="fill:#695dc1; stroke:none;" d="M149 149L149 179L150 179L149 149z"/>
<path style="fill:#3cdd45; stroke:none;" d="M156 149L156 179L161 179L161 158L162 158C164.993 166.791 168.469 178.875 179 179L179 149L174 149L174 170C168.488 161.334 167.927 149.042 156 149z"/>
<path style="fill:#695dc1; stroke:none;" d="M173 149L174 150L173 149z"/>
<path style="fill:#5d89a4; stroke:none;" d="M179 149L179 179L173 179L173 180C183.23 179.664 182.201 156.628 179 149z"/>
<path style="fill:#695dc1; stroke:none;" d="M190 149L191 150L190 149z"/>
<path style="fill:#4fb27e; stroke:none;" d="M191 149L192 150L191 149z"/>
<path style="fill:#3cdd45; stroke:none;" d="M197 162L197 167L202 167C199.113 185.489 181.726 159.008 195.105 154.851C199.046 153.626 202.621 157.74 207 157C204.3 149.131 192.514 145.177 187.09 153.214C179.895 163.873 188.938 188.402 203.772 177.258C213.92 169.634 205.964 162.001 197 162z"/>
<path style="fill:#4fb27e; stroke:none;" d="M201 149L202 150L201 149z"/>
<path style="fill:#695dc1; stroke:none;" d="M202 149L203 150L202 149z"/>
<path style="fill:#4fb27e; stroke:none;" d="M31 150L31 179L32 179L31 150M65 150L66 151L65 150M79 150L80 151L79 150z"/>
<path style="fill:#5d89a4; stroke:none;" d="M89 150L89 170L90 170L89 150z"/>
<path style="fill:#695dc1; stroke:none;" d="M120 150L121 151L120 150z"/>
<path style="fill:#5d89a4; stroke:none;" d="M134 150L135 151L134 150z"/>
<path style="fill:#695dc1; stroke:none;" d="M155 150L155 179L156 179L155 150z"/>
<path style="fill:#5d89a4; stroke:none;" d="M164 150L165 151L164 150M173 150L172 168C175.609 164.846 174.761 154.198 173 150z"/>
<path style="fill:#4fb27e; stroke:none;" d="M189 150L190 151L189 150M203 150L204 151L203 150z"/>
<path style="fill:#695dc1; stroke:none;" d="M63 151L64 152L63 151M81 151L82 152L81 151z"/>
<path style="fill:#4fb27e; stroke:none;" d="M106 151L106 168L107 168L106 151z"/>
<path style="fill:#695dc1; stroke:none;" d="M119 151L120 152L119 151z"/>
<path style="fill:#5d89a4; stroke:none;" d="M135 151L136 152L135 151z"/>
<path style="fill:#695dc1; stroke:none;" d="M187 151L188 152L187 151z"/>
<path style="fill:#4fb27e; stroke:none;" d="M204 151L205 152L204 151z"/>
<path style="fill:#695dc1; stroke:none;" d="M118 152L119 153L118 152M136 152L137 153L136 152M165 152L166 153L165 152z"/>
<path style="fill:#4fb27e; stroke:none;" d="M205 152L206 153L205 152M62 153L63 154L62 153M82 153L83 154L82 153M118 153L119 154L118 153M186 153L187 154L186 153z"/>
<path style="fill:#695dc1; stroke:none;" d="M206 153L207 154L206 153M61 154L62 155L61 154z"/>
<path style="fill:#5d89a4; stroke:none;" d="M70 154L71 155L70 154z"/>
<path style="fill:#695dc1; stroke:none;" d="M71 154L71 155L74 155L71 154z"/>
<path style="fill:#5d89a4; stroke:none;" d="M74 154L75 155L74 154z"/>
<path style="fill:#695dc1; stroke:none;" d="M83 154L84 155L83 154z"/>
<path style="fill:#5d89a4; stroke:none;" d="M125 154L126 155L125 154z"/>
<path style="fill:#695dc1; stroke:none;" d="M126 154L127 155L126 154M129 154L130 155L129 154M137 154L138 155L137 154M166 154L167 155L166 154z"/>
<path style="fill:#5d89a4; stroke:none;" d="M194 154L195 155L194 154z"/>
<path style="fill:#695dc1; stroke:none;" d="M195 154L195 155L198 155L195 154z"/>
<path style="fill:#5d89a4; stroke:none;" d="M198 154L199 155L198 154z"/>
<path style="fill:#4fb27e; stroke:none;" d="M206 154L207 155L206 154M61 155L62 156L61 155M68 155L67 157L68 155z"/>
<path style="fill:#7322dd; stroke:none;" d="M69.4336 156.029C63.7188 159.917 67.5487 178.624 75.6821 172.242C80.8426 168.193 78.0726 150.151 69.4336 156.029z"/>
<path style="fill:#5d89a4; stroke:none;" d="M76 155L77 156L76 155z"/>
<path style="fill:#4fb27e; stroke:none;" d="M83 155L84 156L83 155z"/>
<path style="fill:#695dc1; stroke:none;" d="M117 155L118 156L117 155M124 155L125 156L124 155z"/>
<path style="fill:#4fb27e; stroke:none;" d="M131 155L132 156L131 155M137 155L136 157L137 155z"/>
<path style="fill:#5d89a4; stroke:none;" d="M185 155L186 156L185 155z"/>
<path style="fill:#4fb27e; stroke:none;" d="M192 155L193 156L192 155M200 155L201 156L200 155z"/>
<path style="fill:#695dc1; stroke:none;" d="M207 155L208 156L207 155z"/>
<path style="fill:#4fb27e; stroke:none;" d="M77 156L78 157L77 156z"/>
<path style="fill:#5d89a4; stroke:none;" d="M117 156L117 159L118 159L117 156z"/>
<path style="fill:#4fb27e; stroke:none;" d="M123.333 156.667L123.667 157.333L123.333 156.667z"/>
<path style="fill:#695dc1; stroke:none;" d="M137 156L138 157L137 156M167 156L168 157L167 156z"/>
<path style="fill:#4fb27e; stroke:none;" d="M185 156L186 157L185 156z"/>
<path style="fill:#5d89a4; stroke:none;" d="M207 156L208 157L207 156z"/>
<path style="fill:#695dc1; stroke:none;" d="M67 157L68 158L67 157M77 157L78 158L77 157M84 157L84 171L85 171L84 157M132 157L133 158L132 157z"/>
<path style="fill:#4fb27e; stroke:none;" d="M133 157L134 158L133 157z"/>
<path style="fill:#695dc1; stroke:none;" d="M134 157L135 158L134 157z"/>
<path style="fill:#4fb27e; stroke:none;" d="M167 157L168 158L167 157z"/>
<path style="fill:#5d89a4; stroke:none;" d="M191 157L192 158L191 157M201 157L202 158L201 157z"/>
<path style="fill:#4fb27e; stroke:none;" d="M205 157L206 158L205 157z"/>
<path style="fill:#695dc1; stroke:none;" d="M206 157L207 158L206 157M60 158L60 170L61 170L60 158M124 158L125 159L124 158z"/>
<path style="fill:#4fb27e; stroke:none;" d="M161 158L161 179L162 179L161 158z"/>
<path style="fill:#695dc1; stroke:none;" d="M168 158L169 159L168 158z"/>
<path style="fill:#5d89a4; stroke:none;" d="M202.667 158.333L203.333 158.667L202.667 158.333z"/>
<path style="fill:#4fb27e; stroke:none;" d="M49 159L50 160L49 159z"/>
<path style="fill:#695dc1; stroke:none;" d="M117 159L118 160L117 159z"/>
<path style="fill:#5d89a4; stroke:none;" d="M125 159L126 160L125 159M161 159L162 160L161 159z"/>
<path style="fill:#4fb27e; stroke:none;" d="M168 159L169 160L168 159z"/>
<path style="fill:#695dc1; stroke:none;" d="M184 159L184 169L185 169L184 159M55 160L56 161L55 160z"/>
<path style="fill:#5d89a4; stroke:none;" d="M127 160L128 161L127 160z"/>
<path style="fill:#695dc1; stroke:none;" d="M128 160L129 161L128 160M162 160L163 161L162 160M169 160L170 161L169 160M118 161L119 162L118 161z"/>
<path style="fill:#4fb27e; stroke:none;" d="M129 161L130 162L129 161z"/>
<path style="fill:#5d89a4; stroke:none;" d="M130 161L131 162L130 161z"/>
<path style="fill:#4fb27e; stroke:none;" d="M169 161L170 162L169 161z"/>
<path style="fill:#695dc1; stroke:none;" d="M39 162L40 163L39 162z"/>
<path style="fill:#5d89a4; stroke:none;" d="M45 169L45 168L40 168L40 163L55 163L55 179L50 179C57.6213 181.895 58.3488 166.158 54.3966 163.028C47.0525 157.211 32.1971 168.002 45 169z"/>
<path style="fill:#695dc1; stroke:none;" d="M55 162L56 163L55 162z"/>
<path style="fill:#4fb27e; stroke:none;" d="M119 162L120 163L119 162z"/>
<path style="fill:#5d89a4; stroke:none;" d="M132 162L133 163L132 162M163 162L164 163L163 162z"/>
<path style="fill:#695dc1; stroke:none;" d="M170 162L171 163L170 162z"/>
<path style="fill:#5d89a4; stroke:none;" d="M196 162L197 163L196 162z"/>
<path style="fill:#4fb27e; stroke:none;" d="M207 162L208 163L207 162z"/>
<path style="fill:#3cdd45; stroke:none;" d="M40 163L40 168L49 168C49.0006 173.656 48.2223 178.472 55 179L55 163L40 163z"/>
<path style="fill:#5d89a4; stroke:none;" d="M120 163L121 164L120 163z"/>
<path style="fill:#695dc1; stroke:none;" d="M134 163L135 164L134 163z"/>
<path style="fill:#4fb27e; stroke:none;" d="M170 163L171 164L170 163M196 163L196 167L197 167L196 163z"/>
<path style="fill:#695dc1; stroke:none;" d="M121 164L122 165L121 164z"/>
<path style="fill:#4fb27e; stroke:none;" d="M135 164L136 165L135 164z"/>
<path style="fill:#5d89a4; stroke:none;" d="M164 164L165 165L164 164M123 165L124 166L123 165M136 165L137 166L136 165M171 165L172 166L171 165z"/>
<path style="fill:#695dc1; stroke:none;" d="M125 166L126 167L125 166z"/>
<path style="fill:#4fb27e; stroke:none;" d="M126 166L127 167L126 166z"/>
<path style="fill:#695dc1; stroke:none;" d="M137 166L138 167L137 166z"/>
<path style="fill:#5d89a4; stroke:none;" d="M165 166L166 167L165 166M128 167L129 168L128 167z"/>
<path style="fill:#4fb27e; stroke:none;" d="M137 167L138 168L137 167M197 167L197 168L202 168L197 167M45 168L45 169L48 169L45 168z"/>
<path style="fill:#5d89a4; stroke:none;" d="M48 168L49 169L48 168M130 168L131 169L130 168M166 168L167 169L166 168z"/>
<path style="fill:#4fb27e; stroke:none;" d="M172 168L173 169L172 168z"/>
<path style="fill:#695dc1; stroke:none;" d="M173 168L174 169L173 168M112.333 169.667L112.667 170.333L112.333 169.667M131 169L132 170L131 169M138 169L138 172L139 172L138 169z"/>
<path style="fill:#5d89a4; stroke:none;" d="M173 169L174 170L173 169z"/>
<path style="fill:#695dc1; stroke:none;" d="M67 170L68 171L67 170M89.3333 170.667L89.6667 171.333L89.3333 170.667z"/>
<path style="fill:#5d89a4; stroke:none;" d="M119 170L120 171L119 170z"/>
<path style="fill:#4fb27e; stroke:none;" d="M120 170L121 171L120 170z"/>
<path style="fill:#695dc1; stroke:none;" d="M122 170L123 171L122 170z"/>
<path style="fill:#5d89a4; stroke:none;" d="M167 170L168 171L167 170z"/>
<path style="fill:#695dc1; stroke:none;" d="M191 170L192 171L191 170M201 170L202 171L201 170z"/>
<path style="fill:#4fb27e; stroke:none;" d="M207.333 170.667L207.667 171.333L207.333 170.667M67 171L68 172L67 171z"/>
<path style="fill:#5d89a4; stroke:none;" d="M77 171L78 172L77 171z"/>
<path style="fill:#695dc1; stroke:none;" d="M96 171L97 172L96 171z"/>
<path style="fill:#5d89a4; stroke:none;" d="M105 171L106 172L105 171z"/>
<path style="fill:#4fb27e; stroke:none;" d="M117 171L118 172L117 171M191 171L192 172L191 171z"/>
<path style="fill:#5d89a4; stroke:none;" d="M201 171L202 172L201 171z"/>
<path style="fill:#4fb27e; stroke:none;" d="M61 172L62 173L61 172z"/>
<path style="fill:#695dc1; stroke:none;" d="M68 172L69 173L68 172M76 172L77 173L76 172z"/>
<path style="fill:#4fb27e; stroke:none;" d="M83 172L84 173L83 172z"/>
<path style="fill:#5d89a4; stroke:none;" d="M123 172L124 173L123 172M131 172L132 173L131 172M168 172L169 173L168 172z"/>
<path style="fill:#4fb27e; stroke:none;" d="M185 172L186 173L185 172z"/>
<path style="fill:#5d89a4; stroke:none;" d="M192 172L193 173L192 172z"/>
<path style="fill:#695dc1; stroke:none;" d="M200 172L201 173L200 172z"/>
<path style="fill:#5d89a4; stroke:none;" d="M207 172L208 173L207 172z"/>
<path style="fill:#695dc1; stroke:none;" d="M61 173L62 174L61 173z"/>
<path style="fill:#4fb27e; stroke:none;" d="M69 173L70 174L69 173z"/>
<path style="fill:#695dc1; stroke:none;" d="M70 173L71 174L70 173M74 173L75 174L74 173z"/>
<path style="fill:#5d89a4; stroke:none;" d="M75 173L76 174L75 173z"/>
<path style="fill:#695dc1; stroke:none;" d="M83 173L84 174L83 173z"/>
<path style="fill:#4fb27e; stroke:none;" d="M90 173L91 174L90 173z"/>
<path style="fill:#5d89a4; stroke:none;" d="M98 173L99 174L98 173M103 173L104 174L103 173M111 173L112 174L111 173z"/>
<path style="fill:#4fb27e; stroke:none;" d="M117 173L118 174L117 173z"/>
<path style="fill:#5d89a4; stroke:none;" d="M124 173L125 174L124 173M130 173L131 174L130 173z"/>
<path style="fill:#695dc1; stroke:none;" d="M185 173L186 174L185 173z"/>
<path style="fill:#4fb27e; stroke:none;" d="M193 173L194 174L193 173z"/>
<path style="fill:#695dc1; stroke:none;" d="M194 173L195 174L194 173M198 173L199 174L198 173z"/>
<path style="fill:#5d89a4; stroke:none;" d="M199 173L200 174L199 173z"/>
<path style="fill:#695dc1; stroke:none;" d="M90 174L91 175L90 174M117 174L118 175L117 174z"/>
<path style="fill:#4fb27e; stroke:none;" d="M127 174L128 175L127 174z"/>
<path style="fill:#5d89a4; stroke:none;" d="M137 174L138 175L137 174M169 174L170 175L169 174z"/>
<path style="fill:#4fb27e; stroke:none;" d="M186 174L187 175L186 174M206 174L207 175L206 174z"/>
<path style="fill:#695dc1; stroke:none;" d="M62 175L63 176L62 175M82 175L83 176L82 175z"/>
<path style="fill:#4fb27e; stroke:none;" d="M91 175L92 176L91 175z"/>
<path style="fill:#5d89a4; stroke:none;" d="M110 175L111 176L110 175z"/>
<path style="fill:#4fb27e; stroke:none;" d="M118 175L119 176L118 175z"/>
<path style="fill:#695dc1; stroke:none;" d="M186 175L187 176L186 175z"/>
<path style="fill:#5d89a4; stroke:none;" d="M63 176L64 177L63 176M81 176L82 177L81 176z"/>
<path style="fill:#4fb27e; stroke:none;" d="M92 176L93 177L92 176M109 176L110 177L109 176z"/>
<path style="fill:#695dc1; stroke:none;" d="M136 176L137 177L136 176z"/>
<path style="fill:#5d89a4; stroke:none;" d="M170 176L171 177L170 176z"/>
<path style="fill:#695dc1; stroke:none;" d="M187 176L188 177L187 176M205 176L206 177L205 176M64 177L65 178L64 177M80 177L81 178L80 177z"/>
<path style="fill:#4fb27e; stroke:none;" d="M93 177L94 178L93 177z"/>
<path style="fill:#5d89a4; stroke:none;" d="M108 177L109 178L108 177z"/>
<path style="fill:#695dc1; stroke:none;" d="M135 177L136 178L135 177M188 177L189 178L188 177M204 177L205 178L204 177z"/>
<path style="fill:#4fb27e; stroke:none;" d="M49 178L50 179L49 178M66 178L67 179L66 178M78 178L79 179L78 178z"/>
<path style="fill:#695dc1; stroke:none;" d="M94 178L95 179L94 178z"/>
<path style="fill:#4fb27e; stroke:none;" d="M106 178L107 179L106 178z"/>
<path style="fill:#695dc1; stroke:none;" d="M107 178L108 179L107 178z"/>
<path style="fill:#5d89a4; stroke:none;" d="M121 178L122 179L121 178M133 178L134 179L133 178z"/>
<path style="fill:#4fb27e; stroke:none;" d="M143 178L144 179L143 178z"/>
<path style="fill:#5d89a4; stroke:none;" d="M171 178L172 179L171 178M190 178L191 179L190 178M202 178L203 179L202 178z"/>
<path style="fill:#695dc1; stroke:none;" d="M32 179L33 180L32 179M37 179L38 180L37 179M55 179L56 180L55 179M68 179L69 180L68 179z"/>
<path style="fill:#5d89a4; stroke:none;" d="M69 179L70 180L69 179z"/>
<path style="fill:#4fb27e; stroke:none;" d="M70 179L70 180L75 180L70 179z"/>
<path style="fill:#5d89a4; stroke:none;" d="M75 179L76 180L75 179z"/>
<path style="fill:#695dc1; stroke:none;" d="M76 179L77 180L76 179M96 179L97 180L96 179z"/>
<path style="fill:#5d89a4; stroke:none;" d="M97 179L98 180L97 179z"/>
<path style="fill:#4fb27e; stroke:none;" d="M98 179L98 180L104 180L98 179z"/>
<path style="fill:#5d89a4; stroke:none;" d="M104 179L105 180L104 179z"/>
<path style="fill:#695dc1; stroke:none;" d="M123 179L124 180L123 179z"/>
<path style="fill:#5d89a4; stroke:none;" d="M124 179L125 180L124 179z"/>
<path style="fill:#4fb27e; stroke:none;" d="M125 179L125 180L130 180L125 179z"/>
<path style="fill:#5d89a4; stroke:none;" d="M130 179L131 180L130 179z"/>
<path style="fill:#695dc1; stroke:none;" d="M131 179L132 180L131 179z"/>
<path style="fill:#5d89a4; stroke:none;" d="M144 179L144 180L149 180L144 179z"/>
<path style="fill:#695dc1; stroke:none;" d="M156 179L157 180L156 179z"/>
<path style="fill:#5d89a4; stroke:none;" d="M157 179L157 180L161 180L157 179z"/>
<path style="fill:#695dc1; stroke:none;" d="M161 179L162 180L161 179M172 179L173 180L172 179M179 179L180 180L179 179M192 179L193 180L192 179z"/>
<path style="fill:#5d89a4; stroke:none;" d="M193 179L194 180L193 179z"/>
<path style="fill:#4fb27e; stroke:none;" d="M194 179L194 180L199 180L194 179z"/>
<path style="fill:#5d89a4; stroke:none;" d="M199 179L200 180L199 179z"/>
<path style="fill:#695dc1; stroke:none;" d="M200 179L201 180L200 179z"/>
</svg>
