<?xml version="1.0" standalone="no"?>
<!DOCTYPE svg PUBLIC "-//W3C//DTD SVG 20010904//EN"
 "http://www.w3.org/TR/2001/REC-SVG-20010904/DTD/svg10.dtd">
<svg version="1.0" xmlns="http://www.w3.org/2000/svg"
 width="540.000000pt" height="540.000000pt" viewBox="0 0 540.000000 540.000000"
 preserveAspectRatio="xMidYMid meet">
<metadata>
Created by potrace 1.16, written by Peter Selinger 2001-2019
</metadata>
<g transform="translate(0.000000,540.000000) scale(0.100000,-0.100000)"
fill="#000000" stroke="none">
<path d="M2563 5170 l6 -129 -32 -5 c-18 -3 -79 -10 -135 -16 -57 -6 -110 -14
-117 -16 -9 -4 -26 33 -55 115 -24 67 -45 121 -47 121 -3 0 -66 -18 -141 -41
-76 -23 -147 -43 -159 -46 -13 -3 -23 -10 -23 -15 0 -6 16 -62 36 -125 20 -63
34 -116 32 -117 -18 -13 -259 -128 -262 -125 -1 2 -36 47 -76 99 -40 52 -74
97 -76 98 -5 7 -273 -183 -274 -193 0 -6 30 -51 66 -100 36 -50 68 -95 71
-101 2 -7 -19 -34 -48 -60 -29 -27 -76 -73 -103 -101 -28 -29 -55 -53 -59 -53
-5 0 -56 32 -113 71 -58 39 -106 70 -108 68 -154 -201 -197 -262 -190 -268 5
-5 53 -41 107 -80 53 -39 97 -73 97 -76 0 -2 -15 -28 -34 -57 -18 -29 -50 -87
-71 -128 -20 -41 -39 -77 -41 -79 -2 -2 -58 15 -125 38 -66 24 -122 41 -123
39 -6 -7 -106 -297 -106 -306 0 -6 24 -19 53 -30 195 -71 179 -62 175 -96 -9
-63 -40 -251 -44 -263 -2 -10 -37 -13 -128 -13 -104 0 -125 -3 -130 -16 -3 -9
-6 -85 -6 -170 l0 -154 88 -1 c48 0 107 -4 132 -7 38 -6 45 -11 48 -32 7 -63
33 -237 38 -257 6 -20 -3 -24 -113 -58 -65 -21 -121 -40 -125 -44 -6 -5 80
-294 95 -318 4 -6 54 7 118 29 61 21 117 38 124 38 7 0 24 -24 36 -53 13 -28
43 -90 67 -137 l43 -85 -28 -23 c-15 -12 -61 -46 -100 -75 -40 -29 -73 -57
-73 -63 0 -10 164 -240 190 -268 5 -4 53 26 107 68 55 42 104 76 109 76 6 0
32 -25 58 -55 26 -30 51 -55 56 -55 5 0 32 47 60 105 27 58 73 153 101 212 33
68 48 111 43 119 -185 248 -266 422 -324 699 -143 684 148 1336 762 1704 157
94 365 173 549 208 132 25 448 25 574 0 810 -159 1372 -908 1296 -1726 -27
-297 -112 -539 -272 -776 l-73 -107 42 -81 c76 -151 163 -312 173 -322 7 -7
27 7 59 43 27 28 54 52 61 52 7 0 54 -31 105 -70 51 -39 96 -70 101 -70 7 1
182 249 191 271 2 4 -28 29 -65 55 -37 26 -84 60 -103 75 l-36 27 64 134 c35
73 65 134 66 135 1 2 57 -15 125 -36 122 -39 122 -39 130 -18 16 41 91 284 91
294 0 5 -53 27 -117 49 -65 21 -120 40 -122 41 -2 1 4 53 13 115 9 62 17 127
19 143 l2 30 125 5 125 5 0 170 0 170 -100 1 c-165 1 -152 -5 -159 62 -4 31
-14 92 -22 135 -9 43 -14 82 -12 88 2 6 55 27 118 48 98 32 115 40 112 57 -3
19 -92 296 -97 302 -2 2 -54 -13 -116 -32 -62 -20 -118 -36 -126 -36 -7 0 -33
43 -57 95 -25 52 -54 108 -65 124 -25 35 -29 30 97 121 50 36 91 67 92 70 0
15 -192 265 -203 264 -8 -1 -57 -33 -110 -72 l-97 -72 -100 103 c-55 56 -100
105 -100 108 0 4 30 49 66 100 37 52 67 99 68 106 1 10 -249 202 -264 203 -3
0 -39 -47 -80 -105 -41 -58 -78 -105 -82 -105 -3 0 -44 21 -90 48 -46 26 -102
56 -125 66 -24 11 -43 20 -43 22 0 1 18 57 41 124 22 67 39 123 37 125 -11 8
-313 103 -319 100 -4 -3 -24 -53 -44 -112 -21 -60 -41 -112 -45 -116 -4 -4
-69 3 -146 16 l-139 24 -3 124 c-2 83 -7 126 -15 131 -7 4 -84 8 -171 8 l-159
0 6 -130z m-33 -290 c0 -15 -7 -20 -25 -20 -21 0 -24 -4 -19 -27 19 -106 21
-124 12 -129 -16 -10 -38 5 -38 25 0 11 -5 43 -11 71 -10 46 -13 50 -37 48
-18 -2 -27 2 -27 12 0 10 18 18 55 26 81 17 90 17 90 -6z m200 5 c0 -11 -12
-15 -50 -15 -43 0 -50 -3 -50 -20 0 -17 7 -20 45 -20 33 0 45 -4 45 -14 0 -10
-14 -16 -42 -18 -36 -2 -44 -7 -46 -25 -3 -21 0 -23 47 -23 45 0 51 -3 51 -20
0 -19 -5 -21 -67 -18 l-68 3 -3 93 -3 92 71 0 c56 0 70 -3 70 -15z m159 4 c27
-10 51 -34 51 -53 0 -13 -38 -5 -50 9 -33 40 -93 -20 -74 -74 11 -31 60 -42
70 -17 7 18 13 19 34 6 22 -14 -25 -60 -63 -60 -36 0 -87 49 -87 83 0 42 21
87 49 102 32 18 31 17 70 4z m145 -58 c-6 -36 -4 -39 22 -44 36 -7 44 -2 44
28 0 27 14 39 34 32 11 -5 11 -21 -4 -92 -19 -95 -22 -100 -45 -91 -12 4 -14
14 -9 46 5 32 4 40 -9 40 -8 0 -22 3 -31 6 -16 6 -20 1 -30 -48 -5 -20 -10
-25 -26 -21 -13 4 -19 11 -16 22 3 9 10 39 16 66 5 28 12 60 15 73 3 14 13 22
25 22 18 0 19 -5 14 -39z m227 -81 c13 -51 18 -61 24 -45 28 72 35 85 44 85 5
0 12 -4 15 -9 5 -7 -19 -88 -49 -169 -11 -29 -42 7 -54 63 -14 61 -22 62 -41
2 -8 -24 -17 -37 -26 -35 -20 4 -20 8 7 99 20 67 27 79 44 77 15 -2 23 -18 36
-68z m-1081 46 c0 -8 -16 -20 -35 -27 -23 -9 -35 -19 -32 -29 3 -15 7 -15 56
-8 38 5 36 -20 -3 -36 -34 -14 -35 -16 -24 -46 11 -34 -3 -64 -21 -44 -11 11
-61 141 -61 158 0 12 70 43 103 45 9 0 17 -5 17 -13z m1338 -91 c26 -30 28
-74 7 -115 -26 -51 -74 -64 -126 -33 -83 49 -34 194 61 179 20 -3 45 -16 58
-31z m-1491 -10 c48 -55 41 -118 -18 -149 -59 -32 -122 0 -135 70 -8 45 3 72
39 95 40 25 84 18 114 -16z m1588 -109 c-19 -35 -35 -66 -35 -68 0 -3 18 -13
40 -23 42 -19 50 -32 26 -41 -13 -5 -116 41 -116 51 0 3 18 41 40 85 37 73 42
79 60 70 19 -10 19 -13 -15 -74z m224 -31 c34 -17 56 -65 47 -101 -4 -15 -20
-39 -36 -55 -36 -37 -78 -38 -119 -3 -39 32 -43 87 -10 128 35 45 73 55 118
31z m-2172 -12 c2 -5 -15 -22 -37 -37 -34 -22 -39 -30 -30 -41 10 -12 17 -11
48 10 19 13 39 22 44 19 16 -10 7 -30 -22 -47 -16 -10 -30 -25 -30 -33 0 -25
27 -27 59 -3 19 14 36 19 48 15 16 -7 15 -11 -14 -34 -17 -15 -45 -35 -62 -45
l-30 -18 -51 75 c-27 41 -50 77 -50 80 0 9 105 76 114 73 6 -2 11 -8 13 -14z
m-154 -100 c4 -3 -2 -16 -13 -28 l-20 -21 45 -53 c25 -30 44 -59 42 -65 -9
-26 -35 -12 -76 40 -40 50 -45 53 -61 39 -21 -19 -40 -19 -40 -1 0 15 88 95
106 96 6 0 14 -3 17 -7z m2541 -54 c27 -31 34 -73 16 -84 -13 -8 -42 14 -35
25 8 13 -6 40 -27 51 -24 13 -63 -10 -80 -46 -9 -20 -8 -29 7 -45 19 -21 55
-27 55 -10 0 6 -4 10 -10 10 -5 0 -10 9 -10 20 0 28 25 25 50 -7 24 -31 23
-40 -13 -67 -27 -20 -28 -20 -63 -1 -68 37 -79 102 -26 158 20 21 35 27 68 27
35 0 47 -5 68 -31z m-2647 -121 c36 -35 53 -60 53 -77 0 -33 -47 -81 -78 -81
-28 0 -132 83 -132 105 0 28 27 20 74 -22 51 -45 71 -50 90 -21 9 15 2 27 -42
71 -41 41 -50 55 -40 65 7 7 14 12 17 12 3 0 29 -23 58 -52z m2747 17 c3 -8 1
-27 -4 -41 -16 -42 -13 -47 26 -40 34 7 64 -5 64 -24 0 -4 -26 -11 -57 -15
-38 -4 -69 -15 -91 -32 -30 -23 -35 -24 -49 -10 -13 13 -12 17 16 38 20 15 36
40 47 73 9 28 19 54 21 59 7 12 20 8 27 -8z m-2927 -132 c-2 -10 -7 -25 -10
-33 -4 -10 14 -29 55 -58 55 -39 59 -45 45 -59 -14 -14 -21 -11 -75 31 -59 45
-60 45 -74 24 -11 -16 -18 -19 -31 -12 -15 9 -12 16 25 66 42 56 76 76 65 41z
m-47 -179 c66 -44 82 -65 60 -79 -5 -3 -42 16 -82 42 -40 26 -74 48 -76 49 -6
3 11 34 19 34 5 0 41 -21 79 -46z m3200 -10 c0 -8 -11 -20 -25 -26 -36 -16
-31 -24 20 -37 27 -7 49 -19 56 -32 11 -21 9 -21 -26 -15 -20 4 -42 9 -48 12
-7 2 -25 -21 -42 -51 -16 -30 -33 -55 -36 -55 -20 0 -18 43 2 80 12 22 19 43
16 47 -4 4 -24 1 -43 -6 -30 -11 -38 -11 -45 0 -12 20 -4 26 79 68 78 39 92
42 92 15z m-3304 -25 c3 -6 1 -16 -5 -22 -18 -18 -14 -24 54 -61 45 -26 62
-41 59 -51 -8 -21 -18 -19 -84 18 l-59 32 -17 -23 c-12 -18 -19 -20 -29 -12
-14 11 -8 26 42 108 15 24 28 28 39 11z m3394 -165 c0 -8 -12 -20 -27 -26 -16
-7 -29 -13 -31 -14 -1 -1 3 -13 9 -28 13 -28 29 -32 59 -16 15 8 21 6 30 -10
9 -17 8 -22 -7 -27 -10 -4 -48 -19 -85 -34 -58 -23 -69 -25 -80 -12 -13 16 -1
28 40 39 25 7 27 13 10 49 -8 18 -16 24 -27 19 -29 -13 -66 -10 -66 5 0 15
153 83 168 74 4 -2 7 -11 7 -19z m-3465 -24 c0 -8 -10 -19 -22 -25 -27 -11
-38 -34 -23 -49 7 -7 20 1 41 27 38 46 80 51 105 12 29 -44 -15 -125 -68 -125
-28 0 -22 39 7 50 30 11 42 37 26 53 -9 9 -20 3 -46 -26 -37 -40 -64 -46 -90
-20 -35 34 8 130 54 121 9 -2 16 -10 16 -18z m-25 -183 c58 -18 75 -28 75 -42
0 -15 -15 -24 -65 -39 l-65 -20 53 -14 c47 -13 65 -32 44 -46 -9 -5 -163 33
-175 44 -17 15 7 40 47 50 81 21 86 26 36 40 -52 16 -65 24 -56 39 10 15 20
14 106 -12z m3495 -13 c66 -6 84 -14 85 -40 0 -16 -149 -126 -161 -119 -14 9
-11 26 7 46 22 24 10 79 -16 79 -20 0 -44 32 -33 44 3 3 15 4 27 1 12 -2 53
-7 91 -11z m-3542 -178 c37 -7 71 -16 74 -19 12 -12 -7 -38 -24 -33 -10 3 -47
10 -83 17 -36 6 -69 15 -74 20 -15 13 2 41 21 35 10 -3 49 -12 86 -20z m3660
7 c3 -5 8 -33 11 -64 6 -45 4 -60 -9 -73 -21 -21 -74 -21 -82 0 -5 12 -12 9
-40 -18 -28 -27 -35 -30 -43 -18 -14 22 -13 23 25 60 48 47 47 64 -6 56 -38
-6 -40 -5 -37 16 3 21 11 24 83 34 44 6 83 12 87 13 4 0 9 -2 11 -6z m27 -281
c0 -22 -13 -30 -147 -88 -32 -14 -33 -14 -33 10 0 16 7 27 20 31 15 5 20 15
20 41 0 28 -5 36 -25 44 -23 9 -33 29 -20 42 3 3 46 -9 95 -26 77 -27 90 -34
90 -54z m-3640 -1 c0 -13 -19 -30 -57 -53 l-58 -33 58 -3 c49 -3 57 -6 57 -22
0 -18 -7 -20 -95 -20 -92 0 -95 1 -95 23 0 16 14 30 53 52 l52 30 -52 3 c-45
3 -53 6 -53 23 0 17 8 19 95 19 87 0 95 -2 95 -19z m3596 -137 c47 -23 62 -71
37 -122 -20 -41 -53 -56 -53 -24 0 11 7 25 15 32 18 15 20 51 3 68 -17 17 -83
15 -97 -2 -15 -18 -11 -68 6 -73 6 -2 13 6 15 19 2 13 10 23 18 23 14 0 17
-18 11 -72 -1 -17 -66 -17 -80 0 -34 42 -19 126 28 152 34 19 56 18 97 -1z
m-3596 -43 c0 -11 -9 -23 -20 -26 -14 -4 -20 -15 -20 -33 0 -32 9 -46 33 -55
9 -3 17 -16 17 -27 0 -16 -5 -20 -17 -16 -10 3 -45 12 -78 21 -92 24 -95 25
-95 48 0 17 18 32 78 64 87 48 102 51 102 24z m3558 -171 l73 -12 -5 -29 c-3
-16 -8 -42 -11 -58 -8 -38 -46 -56 -83 -39 -23 11 -27 21 -30 61 -3 42 -6 47
-27 47 -13 0 -27 5 -30 10 -11 18 4 42 22 36 10 -2 51 -10 91 -16z m-3535 -30
c4 -15 -1 -21 -16 -25 -150 -31 -167 -31 -167 -7 0 15 15 21 78 34 103 21 99
21 105 -2z m8 -98 c22 -23 42 -104 28 -113 -18 -11 -169 -43 -175 -37 -3 3 -8
31 -11 62 -6 62 3 80 52 103 36 16 84 9 106 -15z m3522 -64 c25 -8 37 -17 37
-30 0 -22 -9 -22 -78 -4 -65 18 -84 12 -80 -22 2 -17 11 -28 28 -33 14 -3 44
-12 68 -18 43 -12 47 -17 34 -38 -6 -10 -23 -8 -76 7 -37 10 -74 24 -82 31
-21 17 -17 73 8 104 19 24 25 26 62 21 23 -4 58 -12 79 -18z m-3465 -116 c2
-13 -11 -36 -34 -62 -20 -22 -34 -43 -32 -46 3 -3 24 3 47 12 32 12 45 14 54
5 16 -16 2 -26 -82 -55 -88 -31 -87 -31 -95 -9 -4 10 7 32 34 64 22 26 40 50
40 53 0 3 -19 -1 -41 -9 -52 -19 -69 -19 -69 -1 0 9 24 23 58 35 31 12 66 25
77 30 27 13 39 8 43 -17z m3371 -68 c45 -14 81 -30 81 -35 0 -29 -44 -119 -61
-124 -24 -8 -69 19 -69 41 0 11 -5 14 -17 9 -40 -16 -73 -23 -77 -16 -9 14 13
35 55 50 53 20 60 38 20 52 -20 7 -31 18 -31 30 0 24 3 24 99 -7z m-3305 -100
c4 -9 5 -19 2 -21 -12 -12 -161 -71 -168 -67 -22 14 3 38 72 69 89 40 86 39
94 19z m50 -140 c20 -19 20 -38 2 -54 -23 -19 -61 -8 -64 18 -7 44 32 67 62
36z m3136 1 c26 -32 -13 -81 -47 -59 -35 22 -23 74 17 74 10 0 23 -7 30 -15z"/>
<path d="M3416 4678 c-30 -43 -15 -98 26 -98 49 0 79 88 39 110 -30 16 -48 12
-65 -12z"/>
<path d="M1926 4674 c-9 -8 -16 -24 -16 -33 0 -26 38 -71 59 -71 28 0 54 35
46 62 -17 53 -58 73 -89 42z"/>
<path d="M3761 4504 c-36 -46 -23 -94 25 -94 25 0 64 43 64 70 0 21 -31 50
-53 50 -8 0 -25 -12 -36 -26z"/>
<path d="M4450 3500 c0 -23 8 -25 33 -6 16 12 16 14 1 20 -26 10 -34 7 -34
-14z"/>
<path d="M4527 3333 c-3 -4 -3 -21 0 -36 8 -39 38 -32 38 8 0 29 -26 48 -38
28z"/>
<path d="M4510 3101 c0 -22 16 -27 40 -11 17 10 14 15 -17 24 -19 6 -23 3 -23
-13z"/>
<path d="M870 2850 c-17 -10 -14 -15 18 -24 18 -6 22 -3 22 13 0 22 -16 27
-40 11z"/>
<path d="M4520 2680 c0 -23 5 -30 19 -30 11 0 21 9 24 22 8 27 1 38 -24 38
-14 0 -19 -7 -19 -30z"/>
<path d="M900 2582 c-17 -14 -21 -24 -15 -41 6 -20 11 -22 43 -16 74 13 81 19
66 59 -8 22 -66 21 -94 -2z"/>
<path d="M4430 2304 c-6 -14 -8 -30 -4 -35 11 -18 32 -8 42 20 8 24 7 31 -5
35 -22 9 -23 8 -33 -20z"/>
<path d="M2591 4526 c-7 -8 -11 -23 -9 -32 4 -20 30 -32 27 -13 -6 45 18 52
51 17 31 -34 26 -52 -12 -45 -47 7 -250 -25 -256 -41 -3 -9 7 -11 40 -6 23 4
47 7 52 8 11 1 24 -38 25 -76 1 -29 -23 -44 -53 -32 -23 9 -20 45 4 51 11 3
20 9 20 14 0 17 -37 9 -56 -12 -17 -19 -17 -23 -3 -47 13 -23 22 -27 57 -26
29 0 42 -3 42 -13 0 -7 6 -13 14 -13 12 0 13 11 9 54 -5 46 -3 54 13 58 11 3
25 3 32 1 17 -6 15 -52 -3 -59 -22 -9 -18 -24 5 -24 10 0 24 9 30 19 26 50 -7
98 -60 87 -26 -5 -31 -3 -28 12 3 14 16 18 74 20 l71 3 7 -38 c3 -21 6 -57 6
-80 0 -24 5 -43 10 -43 6 0 10 33 10 80 0 64 3 80 15 80 8 0 15 7 15 15 0 8
-6 15 -13 15 -8 0 -25 17 -38 38 -27 41 -75 55 -98 28z"/>
<path d="M3126 4461 c-7 -11 18 -33 27 -24 4 3 7 12 7 20 0 15 -26 18 -34 4z"/>
<path d="M2915 4430 c3 -5 12 -10 19 -10 8 0 24 -8 36 -18 17 -14 21 -24 15
-41 -6 -20 -12 -22 -41 -18 -37 6 -37 6 -17 -66 6 -21 50 -40 72 -32 12 5 8
10 -16 20 -37 16 -47 55 -15 55 26 0 42 20 42 53 0 26 3 29 23 23 12 -3 28 -6
35 -6 9 0 12 -10 10 -27 -2 -22 -9 -29 -30 -31 -33 -4 -37 -17 -7 -25 17 -5
20 -12 17 -43 -6 -71 19 -46 36 36 12 54 22 80 32 80 8 0 14 5 14 10 0 6 -2
10 -4 10 -2 0 -48 9 -101 20 -110 23 -129 24 -120 10z"/>
<path d="M2058 4409 c-33 -19 -41 -48 -23 -76 30 -45 -7 -57 -78 -24 -48 22
-82 25 -79 6 1 -5 20 -13 42 -16 68 -9 68 -23 3 -60 -68 -39 -159 -112 -144
-117 5 -2 21 4 36 14 31 20 45 11 22 -14 -23 -25 -21 -53 3 -59 11 -3 17 -9
14 -15 -9 -13 16 -38 38 -38 11 0 34 14 51 32 18 18 40 31 50 30 25 -4 22 4
-24 75 -23 35 -40 65 -38 66 24 17 61 38 63 35 2 -2 19 -33 40 -70 34 -63 56
-85 56 -56 0 6 -16 40 -35 76 -20 35 -35 65 -33 67 10 8 50 26 53 23 1 -2 17
-33 35 -70 18 -38 36 -68 40 -68 19 0 16 19 -15 81 -21 40 -31 70 -25 74 18
11 10 27 -10 22 -22 -6 -50 16 -50 37 0 29 28 38 90 31 37 -4 60 -3 60 3 0 20
-111 29 -142 11z m-124 -260 c25 -36 27 -43 16 -70 -13 -32 -44 -54 -60 -44
-15 9 -12 26 7 47 19 21 3 24 -27 6 -29 -19 -36 -1 -11 26 13 14 20 30 16 36
-9 15 1 40 17 40 7 0 26 -19 42 -41z"/>
<path d="M2236 4381 c-44 -15 -82 -33 -84 -39 -4 -14 -1 -15 32 -2 34 13 65
-14 73 -62 5 -34 3 -38 -17 -38 -13 0 -24 8 -27 20 -7 25 -23 26 -23 2 0 -42
54 -57 85 -22 20 22 14 63 -12 92 -18 21 -9 38 20 38 18 0 25 -11 42 -67 13
-44 26 -69 37 -71 14 -3 13 7 -8 75 -16 49 -21 79 -15 81 18 6 12 22 -6 21
-10 0 -54 -13 -97 -28z"/>
<path d="M3175 4370 c-3 -6 5 -14 19 -20 35 -13 52 -48 33 -67 -10 -10 -23
-13 -38 -8 -31 10 -34 7 -30 -35 1 -20 11 -42 23 -52 22 -19 58 -24 58 -8 0 6
-6 10 -14 10 -17 0 -48 39 -40 52 3 4 15 8 28 8 29 0 46 18 46 48 0 21 3 23
30 17 19 -4 30 -3 30 4 0 6 -2 11 -4 11 -2 0 -33 11 -69 25 -40 15 -69 21 -72
15z"/>
<path d="M3360 4275 c0 -9 8 -14 23 -12 14 1 22 -3 22 -13 0 -19 -41 -26 -60
-10 -9 7 -15 8 -20 0 -4 -7 -12 -7 -25 0 -24 13 -40 13 -40 0 0 -5 10 -12 23
-15 15 -4 27 -17 33 -38 7 -24 20 -37 51 -52 36 -16 41 -23 37 -42 -11 -43 22
-25 45 25 12 26 28 55 36 65 13 18 15 18 44 1 17 -10 31 -23 31 -29 0 -5 -21
-37 -45 -69 -31 -41 -42 -63 -35 -70 7 -7 15 -3 25 11 54 77 83 108 99 105 32
-6 12 17 -64 72 -45 33 -79 51 -84 46 -6 -6 -4 -15 3 -24 10 -12 9 -20 -6 -43
-24 -38 -33 -43 -63 -36 -34 8 -50 22 -50 44 0 15 7 18 37 16 30 -2 39 2 49
23 11 21 11 27 -3 42 -20 22 -63 24 -63 3z"/>
<path d="M2616 4200 c-245 -39 -491 -157 -640 -307 -201 -203 -310 -541 -248
-771 34 -126 133 -260 256 -346 138 -97 261 -124 404 -91 64 15 173 64 203 91
36 32 40 19 55 -177 4 -57 3 -89 -5 -93 -5 -4 -32 4 -58 18 -123 62 -313 96
-435 78 -154 -23 -277 -79 -379 -172 -44 -40 -59 -67 -145 -255 -53 -115 -208
-457 -346 -760 -138 -302 -263 -576 -279 -607 -16 -32 -29 -73 -29 -93 0 -57
33 -57 129 -1 143 84 332 157 501 193 66 14 130 18 285 18 221 0 295 -11 460
-67 142 -48 210 -87 253 -142 52 -68 111 -98 182 -93 71 4 128 32 153 75 23
39 62 65 167 111 184 81 371 121 571 121 254 0 475 -62 694 -194 66 -40 127
-47 133 -15 2 9 -117 259 -263 555 -146 297 -338 685 -426 865 -157 317 -162
326 -206 353 -93 56 -185 79 -333 83 -96 3 -154 0 -200 -10 -169 -39 -180 -41
-189 -32 -8 9 0 120 14 202 l6 32 57 -39 c157 -108 397 -86 569 51 156 125
275 393 258 583 -9 110 -38 215 -85 313 -103 213 -408 434 -695 504 -93 23
-300 33 -389 19z m249 -40 c232 -21 492 -149 674 -331 80 -81 124 -152 162
-261 32 -94 53 -243 43 -303 -19 -117 -83 -265 -156 -362 -132 -175 -376 -249
-555 -168 -34 15 -72 38 -84 51 -23 25 -23 25 -4 59 20 39 68 79 120 101 19 7
36 14 38 14 3 0 4 -18 3 -39 -1 -49 28 -83 90 -107 59 -22 99 -13 181 42 61
41 70 44 110 38 l43 -6 0 41 c0 55 -29 110 -85 159 -65 57 -109 76 -193 80
l-72 4 -40 -40 c-34 -33 -40 -46 -40 -81 0 -41 -1 -42 -56 -66 -31 -14 -60
-25 -64 -25 -10 0 3 58 20 90 30 59 176 214 247 263 18 12 34 31 35 42 2 12
14 21 33 25 43 9 93 37 153 87 45 36 61 43 98 43 41 0 44 2 44 27 0 37 -68 98
-158 141 -63 30 -85 35 -146 36 -112 0 -174 -42 -162 -112 6 -39 5 -40 -37
-56 -23 -9 -79 -48 -124 -86 -46 -39 -86 -70 -89 -70 -13 0 9 58 41 107 19 28
62 81 95 117 34 36 59 70 55 76 -3 5 -19 10 -35 10 -21 0 -39 -12 -74 -51 -53
-59 -155 -219 -169 -266 -15 -48 -27 -40 -27 15 0 27 -3 96 -6 154 l-7 105 44
7 c101 16 155 87 146 188 -5 57 -7 60 -74 123 -38 35 -80 84 -94 109 -13 25
-30 46 -37 46 -7 0 -21 -18 -30 -39 -10 -21 -47 -67 -83 -102 -53 -51 -68 -73
-78 -112 -22 -90 11 -153 105 -197 l64 -31 0 -145 c0 -79 -4 -144 -9 -144 -4
0 -25 26 -46 57 -33 50 -137 181 -187 236 -17 19 -49 20 -55 2 -2 -6 14 -33
34 -61 68 -89 106 -197 56 -152 -10 9 -55 34 -99 56 l-81 41 1 55 c0 48 -4 59
-29 87 -78 83 -213 78 -345 -12 -58 -40 -122 -124 -118 -157 3 -22 8 -24 58
-25 46 -2 68 -9 125 -44 39 -23 94 -47 122 -53 46 -10 58 -9 90 7 22 10 46 33
58 55 l21 37 41 -19 c155 -69 269 -224 308 -418 24 -118 18 -127 -34 -47 -57
87 -158 195 -237 251 -115 82 -254 130 -254 89 0 -9 8 -18 18 -21 110 -37 242
-149 336 -287 31 -44 54 -83 51 -85 -2 -2 -34 6 -71 19 -52 19 -71 31 -89 59
-48 75 -94 100 -179 100 -128 0 -229 -81 -270 -217 -7 -22 -5 -23 57 -23 56 0
69 -4 102 -30 47 -37 73 -45 152 -45 55 0 65 3 92 29 17 16 35 44 41 62 l11
32 52 -13 c72 -17 98 -29 129 -58 l28 -26 -33 -25 c-54 -41 -155 -84 -228 -96
-150 -26 -291 30 -429 169 -98 99 -142 177 -161 285 -37 213 69 510 245 690
139 142 373 255 603 290 108 17 132 18 258 6z m295 -679 c0 -28 7 -45 26 -65
15 -14 31 -26 35 -26 23 0 2 -21 -70 -73 -122 -89 -217 -203 -281 -339 -12
-27 -26 -45 -31 -42 -5 3 -9 62 -9 132 0 106 3 133 19 162 11 19 26 49 34 66
8 16 41 54 73 83 58 51 182 140 197 141 4 0 7 -17 7 -39z m-728 -955 c46 -14
111 -37 145 -53 l63 -28 0 -55 c0 -81 -27 -243 -56 -338 -47 -157 -123 -298
-211 -396 -56 -62 -89 -124 -74 -139 7 -7 23 -5 53 9 53 23 208 124 227 147
23 29 51 21 67 -20 29 -71 67 -143 86 -159 17 -16 18 -37 18 -276 l0 -259 -22
-8 c-33 -13 -39 -5 -22 34 8 19 14 37 14 40 0 4 -33 21 -72 40 -265 121 -589
181 -851 156 -109 -10 -226 -30 -278 -46 -13 -4 -19 -1 -19 8 0 9 33 109 74
224 41 114 133 372 204 573 72 201 145 402 162 446 l32 82 72 20 c39 12 82 23
96 26 54 10 211 -5 292 -28z m1022 -22 c47 -18 49 -21 76 -94 23 -66 75 -200
195 -510 132 -339 255 -662 255 -668 0 -4 -98 -6 -217 -4 -237 4 -353 -6 -503
-42 -198 -49 -369 -135 -400 -204 -11 -23 -21 -31 -35 -30 -19 3 -20 12 -23
280 l-2 276 36 62 c41 70 54 78 98 61 84 -34 141 -52 183 -58 l46 -6 -57 69
c-135 164 -227 457 -230 734 l-1 105 28 3 c15 2 69 14 120 28 81 21 109 24
237 21 113 -3 156 -8 194 -23z m184 -189 c94 -223 414 -979 503 -1189 49 -115
87 -211 84 -215 -4 -3 -23 3 -43 14 -35 19 -40 30 -123 245 -158 414 -351 913
-414 1075 -70 180 -82 215 -67 200 5 -5 32 -64 60 -130z m-1811 83 c-6 -16
-304 -693 -421 -958 -48 -107 -126 -284 -173 -393 -82 -186 -89 -198 -127
-221 -23 -13 -43 -23 -45 -21 -3 4 186 424 579 1285 108 237 155 320 183 320
5 0 7 -6 4 -12z m1982 -370 c38 -79 184 -376 325 -662 141 -285 254 -521 251
-525 -4 -3 -32 8 -62 24 -56 30 -57 31 -99 130 -116 276 -249 590 -365 862
-71 167 -129 305 -129 308 0 20 19 -13 79 -137z m-2105 -65 c-19 -49 -114
-290 -213 -538 -98 -247 -178 -451 -177 -452 0 0 35 10 76 24 270 89 618 96
926 18 127 -32 304 -96 304 -110 -1 -35 -17 -35 -124 0 -251 81 -448 110 -704
102 -221 -6 -364 -35 -556 -113 -15 -6 -18 -4 -14 7 4 8 36 82 73 164 89 199
339 770 381 868 37 85 53 117 59 117 2 0 -12 -39 -31 -87z m476 -808 c117 -19
246 -55 365 -102 109 -43 118 -49 105 -74 -10 -17 -13 -17 -78 8 -160 61 -339
104 -512 124 -143 16 -387 6 -510 -21 -52 -11 -107 -23 -122 -26 -40 -9 -36
14 5 30 56 24 239 66 327 75 107 12 296 6 420 -14z m1830 5 c26 -40 17 -42
-152 -35 -172 8 -358 -4 -503 -32 -154 -29 -349 -103 -437 -165 -25 -17 -28
-17 -28 -3 0 31 21 56 77 92 106 68 258 118 442 148 125 20 588 16 601 -5z
m17 -96 c15 -4 28 -21 39 -50 9 -25 15 -47 12 -49 -3 -3 -22 1 -44 9 -21 7
-91 24 -154 37 -150 30 -391 33 -518 5 -142 -30 -309 -97 -392 -156 -33 -24
-50 -26 -50 -6 0 34 175 122 320 160 87 24 242 51 340 60 61 5 419 -3 447 -10z"/>
<path d="M2318 1406 c-38 -33 -51 -63 -23 -52 8 3 22 9 30 12 13 5 15 -6 15
-70 0 -69 2 -76 20 -76 19 0 20 7 20 110 0 124 -3 128 -62 76z"/>
<path d="M2520 1420 c-23 -23 -27 -77 -6 -105 9 -13 25 -18 50 -17 40 2 48
-15 20 -42 -19 -20 -19 -20 -39 0 -22 22 -49 11 -35 -15 14 -27 46 -35 79 -21
37 15 51 48 51 116 0 45 -4 59 -25 79 -29 30 -68 32 -95 5z m64 -26 c27 -27
14 -74 -21 -74 -20 0 -35 47 -23 71 13 23 24 24 44 3z"/>
<path d="M2891 1418 c-4 -13 -11 -40 -14 -60 l-6 -38 47 3 c46 2 47 1 50 -29
2 -18 -3 -36 -11 -43 -15 -12 -47 -5 -47 10 0 5 -9 9 -20 9 -30 0 -24 -27 10
-45 40 -21 57 -19 85 10 48 47 24 125 -38 125 -20 0 -27 5 -27 20 0 17 7 20
40 20 33 0 40 3 40 20 0 17 -7 20 -50 20 -43 0 -52 -3 -59 -22z"/>
<path d="M3138 1406 c-38 -33 -51 -63 -23 -52 8 3 22 9 30 12 13 5 15 -6 15
-70 0 -69 2 -76 20 -76 19 0 20 7 20 110 0 124 -3 128 -62 76z"/>
<path d="M1600 4110 c0 -5 19 -10 43 -10 44 0 77 -14 64 -26 -4 -4 -31 -6 -60
-5 -33 1 -59 -4 -72 -13 -29 -21 -12 -30 24 -12 16 9 42 16 56 16 25 0 23 -4
-39 -71 -36 -39 -66 -75 -66 -80 0 -5 8 -9 18 -9 11 0 27 -9 37 -20 14 -16 26
-19 48 -14 28 6 29 5 22 -25 -5 -24 -3 -31 8 -31 10 0 17 16 21 50 7 52 15 60
36 35 14 -16 40 -20 40 -6 0 5 -25 31 -55 59 -30 28 -55 56 -55 61 0 6 11 18
25 27 26 17 26 17 76 -40 28 -31 55 -56 60 -56 20 0 7 25 -41 77 -37 40 -48
59 -40 68 13 15 1 28 -15 15 -8 -7 -21 -5 -41 5 -33 17 -94 20 -94 5z m79
-154 c19 -20 21 -28 12 -45 -15 -27 -52 -27 -76 -1 -18 20 -18 21 5 45 29 31
31 31 59 1z"/>
<path d="M3640 4111 c0 -5 23 -28 50 -51 53 -45 59 -57 35 -66 -8 -4 -32 9
-57 30 -49 43 -62 44 -84 11 -15 -23 -15 -27 0 -51 11 -16 25 -24 38 -22 32 5
35 28 4 28 -17 0 -26 6 -26 15 0 31 31 28 66 -6 l34 -33 -30 -31 c-29 -30 -39
-55 -22 -55 4 0 32 24 61 54 31 31 59 52 67 49 32 -12 10 19 -53 76 -66 59
-83 70 -83 52z"/>
<path d="M3910 3833 c1 -5 7 -19 14 -33 10 -17 11 -30 5 -42 -14 -25 -34 -22
-56 8 l-20 27 -21 -42 c-12 -23 -22 -50 -22 -60 0 -28 39 -71 65 -71 28 0 42
-30 20 -42 -17 -10 -20 -28 -4 -28 6 0 37 16 69 36 41 25 65 34 79 29 12 -3
21 -3 21 0 0 15 -132 225 -141 225 -5 0 -9 -3 -9 -7z m100 -181 c0 -4 -16 -16
-35 -26 -28 -15 -37 -17 -50 -6 -8 7 -15 19 -15 27 0 20 27 28 45 13 9 -7 19
-10 23 -6 4 4 -4 16 -16 27 -27 21 -54 13 -72 -21 -14 -26 -26 -25 -45 4 -13
19 -14 28 -4 50 14 30 22 32 39 11 17 -20 33 -19 55 5 19 20 19 20 47 -25 15
-25 28 -48 28 -53z"/>
<path d="M1387 3674 c-26 -47 -45 -90 -41 -95 3 -6 15 3 25 20 21 35 31 38 49
16 10 -12 10 -19 2 -27 -25 -25 -13 -39 31 -36 38 3 44 7 62 45 17 35 24 41
44 36 44 -11 18 21 -47 55 -43 23 -62 39 -62 53 0 35 -15 20 -63 -67z m76 10
c42 -22 47 -31 36 -67 -16 -57 -61 -66 -52 -11 5 30 3 36 -16 41 -22 6 -25 12
-15 37 8 20 8 20 47 0z"/>
<path d="M4060 3562 c0 -5 7 -26 15 -45 8 -20 15 -41 15 -47 0 -21 -18 -9 -30
19 -14 34 -37 46 -56 30 -17 -14 -18 -40 -2 -74 10 -22 9 -28 -3 -36 -23 -15
-52 28 -44 68 6 34 -8 46 -19 17 -12 -31 -6 -63 17 -90 19 -22 29 -26 51 -20
30 7 30 9 10 89 -10 41 14 34 32 -9 13 -31 19 -35 40 -30 17 5 24 2 24 -9 0
-8 7 -15 15 -15 19 0 20 -8 -14 80 -26 65 -51 101 -51 72z"/>
<path d="M1320 3541 c0 -5 -17 -12 -37 -16 -21 -3 -48 -13 -60 -21 -39 -24
-25 -84 19 -84 24 0 23 8 -4 30 -27 22 -18 36 30 49 28 8 32 7 32 -10 0 -21
16 -26 22 -7 3 8 28 2 82 -20 61 -25 77 -28 74 -15 -2 8 -32 27 -67 41 -39 16
-66 32 -69 44 -4 18 -22 26 -22 9z"/>
<path d="M1262 3371 c-24 -86 -26 -101 -14 -101 5 0 16 27 26 61 21 77 42 76
38 -3 -4 -57 4 -70 46 -81 28 -7 79 33 68 52 -6 9 -13 7 -27 -8 -23 -25 -29
-25 -54 -7 -16 11 -17 19 -9 47 11 36 20 39 82 25 24 -6 32 -4 32 6 0 9 -27
21 -75 33 -59 14 -75 22 -75 37 0 42 -18 13 -38 -61z"/>
<path d="M3874 3409 c-10 -17 13 -36 27 -22 12 12 4 33 -11 33 -5 0 -12 -5
-16 -11z"/>
<path d="M4147 3296 c4 -29 1 -37 -20 -51 -34 -22 -82 -17 -82 10 0 12 9 21
25 26 23 6 23 7 6 14 -42 18 -73 -40 -40 -76 21 -23 49 -24 88 -4 24 13 31 13
38 3 19 -30 3 -43 -71 -58 -41 -9 -76 -21 -79 -28 -5 -15 17 -15 96 2 56 12
63 12 71 -3 21 -36 22 3 5 99 -11 62 -23 100 -30 100 -9 0 -11 -11 -7 -34z"/>
<path d="M1227 3227 c-13 -33 -19 -147 -8 -147 6 0 11 7 11 15 0 8 5 26 12 40
9 20 18 25 37 23 23 -3 26 -7 24 -40 -2 -35 9 -50 21 -29 3 4 19 11 35 14 21
4 32 15 40 38 6 17 8 35 5 40 -10 17 -23 9 -26 -18 -5 -42 -40 -43 -55 -3 -10
28 -16 31 -45 28 -29 -3 -33 0 -30 19 3 24 -13 40 -21 20z"/>
<path d="M4188 3070 c-2 -6 -23 -13 -48 -15 -56 -5 -84 -34 -75 -77 6 -25 4
-28 -20 -28 -17 0 -25 -5 -22 -12 3 -9 26 -12 80 -10 63 3 78 1 83 -12 15 -38
24 -9 24 74 0 50 -4 90 -9 90 -5 0 -11 -5 -13 -10z m-3 -80 c0 -33 -2 -35 -39
-38 -42 -4 -56 8 -56 45 0 26 14 33 60 30 33 -2 35 -4 35 -37z"/>
<path d="M1207 3046 c-11 -29 -8 -184 4 -191 6 -4 13 3 16 15 8 29 67 25 71
-5 2 -17 -5 -23 -40 -30 -38 -9 -43 -13 -46 -41 -4 -40 19 -61 51 -47 22 11
22 11 -6 22 -36 14 -30 35 11 39 26 3 32 -1 38 -22 9 -36 43 -44 65 -17 24 29
11 65 -25 69 -21 3 -26 8 -26 32 0 25 4 29 33 32 17 2 30 8 27 13 -3 6 -37 8
-84 6 l-79 -3 7 32 c3 18 6 37 6 42 0 6 31 9 77 7 105 -5 112 16 7 24 -55 4
-79 10 -88 23 -12 16 -13 16 -19 0z m153 -251 c0 -8 -6 -15 -14 -15 -8 0 -16
7 -20 15 -4 10 1 15 14 15 11 0 20 -7 20 -15z"/>
<path d="M3945 3026 c-26 -62 -17 -106 21 -106 28 0 38 17 31 52 l-4 23 -8
-22 c-4 -13 -14 -23 -21 -23 -18 0 -18 34 1 70 10 19 11 31 5 35 -6 4 -17 -9
-25 -29z"/>
<path d="M4187 2859 c-20 -68 -23 -74 -47 -74 -22 0 -25 5 -28 38 -3 36 -14
47 -27 27 -3 -5 -16 -10 -29 -10 -32 0 -62 -69 -36 -85 5 -3 13 9 18 27 10 38
44 47 50 13 7 -34 24 -47 54 -41 25 5 28 3 28 -19 0 -14 5 -25 10 -25 6 0 10
3 10 8 0 4 5 36 11 71 7 43 7 67 0 74 -7 7 -12 6 -14 -4z"/>
<path d="M936 345 l-176 -235 1991 0 c1131 0 1989 4 1987 9 -1 5 -66 110 -143
235 l-140 226 -1671 0 -1672 0 -176 -235z m870 105 c95 0 114 -3 114 -15 0 -8
-4 -15 -10 -15 -6 0 -10 -37 -10 -90 0 -83 -1 -90 -20 -90 -19 0 -20 7 -20 90
0 89 0 90 -25 90 -24 0 -25 -3 -25 -60 0 -33 -3 -60 -6 -60 -3 0 -19 9 -35 21
-31 22 -39 49 -14 49 9 0 15 9 15 25 0 22 -4 25 -35 25 l-34 0 -3 -87 c-3 -74
-6 -88 -20 -91 -16 -3 -18 6 -18 87 0 90 0 91 -25 91 -25 0 -25 -1 -25 -90 0
-83 -1 -90 -20 -90 -13 0 -20 7 -20 20 0 17 -7 20 -40 20 -27 0 -47 7 -60 20
-26 26 -26 56 1 63 15 4 20 12 17 29 -2 18 -10 24 -36 26 -24 2 -32 8 -30 19
3 13 21 15 116 14 61 -1 112 1 112 5 0 4 -16 20 -35 37 -29 24 -33 32 -23 44
10 13 19 7 56 -36 l44 -51 114 0z m841 83 c2 -6 -6 -13 -19 -15 -26 -3 -35
-32 -18 -53 10 -12 41 -15 146 -15 112 0 134 -2 134 -15 0 -8 -4 -15 -10 -15
-6 0 -10 -37 -10 -90 0 -82 -2 -90 -19 -90 -17 0 -20 8 -23 48 -3 40 -6 47
-26 50 -28 4 -24 26 6 30 16 2 22 10 22 28 0 20 -5 24 -31 24 -28 0 -30 -3
-27 -29 1 -18 -5 -37 -16 -50 -19 -21 -19 -22 4 -46 21 -23 22 -55 2 -55 -10
0 -92 117 -92 131 0 18 23 20 41 3 18 -17 19 -16 19 14 0 32 -1 32 -50 32
l-49 0 -3 -87 c-3 -74 -6 -88 -20 -91 -15 -3 -18 4 -18 42 0 44 -1 46 -30 46
-20 0 -30 -5 -30 -15 0 -20 -19 -19 -42 2 -19 17 -24 43 -8 43 6 0 10 14 10
30 l0 31 -72 -3 c-47 -2 -73 -7 -76 -16 -3 -9 3 -11 21 -7 14 4 35 2 46 -5 40
-21 19 -120 -26 -120 -17 0 -17 15 2 44 13 20 13 25 0 42 -15 19 -15 19 -30 0
-9 -11 -15 -40 -15 -68 0 -41 -3 -48 -20 -48 -13 0 -20 7 -20 20 0 15 -7 20
-29 20 -37 0 -61 23 -61 60 0 35 23 60 56 60 30 0 32 -26 3 -33 -28 -7 -23
-52 6 -52 17 0 20 8 23 53 l3 52 -60 0 c-48 0 -61 3 -61 15 0 13 29 15 200 15
l201 0 -7 37 c-5 29 -3 39 12 50 22 16 56 14 61 -4z m666 -33 l37 -50 360 0
c313 0 360 -2 360 -15 0 -8 -4 -15 -10 -15 -6 0 -10 -37 -10 -90 0 -83 -1 -90
-20 -90 -17 0 -20 7 -20 45 0 43 -1 45 -30 45 -20 0 -30 -5 -30 -15 0 -20 -19
-19 -42 2 -19 17 -24 43 -8 43 6 0 10 14 10 30 0 27 -3 30 -30 30 l-30 0 0
-90 c0 -83 -1 -90 -20 -90 -18 0 -20 7 -20 55 0 57 -11 70 -30 35 -14 -27 -44
-27 -37 0 3 13 -1 21 -14 25 -46 15 -55 -42 -11 -73 20 -16 24 -24 16 -32 -15
-15 -48 1 -70 35 -37 57 12 122 76 98 38 -14 70 -6 70 18 0 17 -9 19 -100 19
l-100 0 0 -90 c0 -83 -1 -90 -20 -90 -19 0 -20 7 -20 90 0 82 -2 90 -19 90
-15 0 -19 -7 -18 -36 1 -28 -5 -42 -27 -61 l-28 -23 23 -19 c12 -10 19 -23 15
-29 -11 -18 -19 -15 -64 24 -50 43 -56 69 -14 59 20 -4 33 -1 42 10 11 13 9
15 -13 15 -30 0 -60 27 -53 46 4 10 -2 14 -18 14 -30 0 -33 -8 -34 -98 -1 -80
-3 -88 -27 -78 -13 4 -16 18 -15 58 1 29 1 68 1 86 l-1 33 -62 -3 c-41 -2 -63
-8 -66 -17 -3 -9 2 -11 17 -6 57 18 93 -33 65 -91 -10 -21 -24 -34 -35 -34
-23 0 -24 13 -2 46 14 22 14 27 1 40 -25 25 -48 -7 -48 -67 0 -38 -4 -49 -16
-49 -9 0 -18 9 -21 20 -4 13 -14 20 -31 20 -34 0 -62 27 -62 59 0 37 11 50 48
57 25 5 32 3 32 -9 0 -8 -9 -17 -21 -20 -28 -7 -23 -52 6 -52 17 0 20 8 23 52
l3 52 -56 3 c-100 5 -66 23 55 28 l115 5 -33 18 c-18 10 -30 22 -27 27 10 16
25 11 67 -21 51 -41 59 -32 14 16 -32 33 -39 55 -18 55 4 0 25 -22 45 -50z
m-1305 -98 c3 -16 -2 -22 -17 -22 -24 0 -35 15 -27 36 9 23 40 13 44 -14z m2
-112 c0 -13 -7 -20 -19 -20 -22 0 -35 15 -26 30 12 19 45 11 45 -10z m2048
-93 c20 -19 30 -47 16 -47 -5 0 -47 27 -73 46 -2 2 -1 10 3 19 6 18 18 14 54
-18z m-1200 -16 c2 -13 -2 -28 -10 -32 -37 -24 -166 7 -139 34 8 8 17 8 33 -1
38 -18 62 -22 78 -12 14 9 11 12 -19 14 -8 1 -16 7 -19 14 -3 10 6 12 34 10
32 -2 40 -7 42 -27z"/>
<path d="M1528 394 c3 -17 -2 -32 -17 -48 -23 -25 -19 -36 14 -36 32 0 45 19
45 67 0 39 -2 43 -24 43 -20 0 -22 -4 -18 -26z"/>
<path d="M2530 389 c0 -27 3 -30 28 -27 21 2 28 9 30 31 3 24 0 27 -27 27 -28
0 -31 -3 -31 -31z"/>
<path d="M3450 405 c0 -8 9 -15 20 -15 11 0 20 7 20 15 0 8 -9 15 -20 15 -11
0 -20 -7 -20 -15z"/>
<path d="M3950 390 c0 -27 3 -30 30 -30 27 0 30 3 30 30 0 27 -3 30 -30 30
-27 0 -30 -3 -30 -30z"/>
</g>
</svg>
