<?xml version="1.0" standalone="no"?>
<!DOCTYPE svg PUBLIC "-//W3C//DTD SVG 20010904//EN"
 "http://www.w3.org/TR/2001/REC-SVG-20010904/DTD/svg10.dtd">
<svg version="1.0" xmlns="http://www.w3.org/2000/svg"
 width="3840.000000pt" height="2160.000000pt" viewBox="0 0 3840.000000 2160.000000"
 preserveAspectRatio="xMidYMid meet">

<g transform="translate(0.000000,2160.000000) scale(0.100000,-0.100000)"
fill="#000000" stroke="none">
<path d="M11340 12160 c-165 -41 -306 -125 -450 -270 -265 -265 -432 -635
-511 -1135 -8 -47 -13 -170 -13 -295 0 -190 3 -226 23 -310 73 -302 227 -495
459 -575 62 -22 102 -28 204 -32 142 -6 211 3 309 43 124 51 235 141 363 298
141 172 259 357 522 818 71 125 134 226 139 225 6 -2 102 -156 215 -343 318
-525 437 -694 588 -836 90 -85 166 -133 267 -171 70 -26 96 -30 215 -34 155
-6 232 8 333 58 166 82 279 229 346 450 33 108 42 177 48 351 28 839 -373
1590 -937 1753 -90 26 -291 27 -375 1 -207 -63 -390 -210 -618 -496 l-28 -35
-52 60 c-250 288 -433 418 -670 475 -107 26 -272 26 -377 0z m2035 -335 c116
-34 267 -158 357 -292 123 -184 201 -385 255 -663 24 -123 27 -157 27 -380 1
-232 0 -249 -22 -313 -30 -85 -73 -143 -137 -182 -44 -27 -56 -30 -134 -30
-106 0 -157 22 -239 104 -99 98 -281 369 -566 841 -65 107 -154 249 -197 316
-44 66 -79 126 -79 132 0 15 58 99 141 204 116 147 244 244 364 275 58 15 159
10 230 -12z m-1714 -95 c88 -27 179 -89 279 -190 102 -102 243 -286 233 -303
-4 -7 -75 -115 -158 -242 -83 -126 -171 -261 -195 -300 -25 -38 -96 -146 -158
-240 -247 -369 -361 -477 -516 -492 -168 -15 -287 82 -331 270 -61 262 7 713
157 1036 106 232 280 419 431 466 64 21 185 18 258 -5z"/>
<path d="M15260 10840 l0 -1260 205 0 205 0 0 962 c0 593 4 958 9 953 5 -6
107 -183 226 -395 120 -212 287 -508 372 -657 l154 -273 192 0 192 0 74 133
c68 121 294 523 567 1006 l109 193 3 -961 2 -961 205 0 205 0 0 1260 0 1260
-247 -2 -247 -3 -328 -585 c-181 -322 -372 -663 -424 -758 -53 -95 -100 -174
-103 -177 -4 -2 -55 80 -113 183 -57 103 -250 447 -428 765 l-324 577 -253 0
-253 0 0 -1260z"/>
<path d="M25456 12033 c-308 -614 -718 -1635 -940 -2344 l-34 -109 224 0 223
0 21 73 c12 39 57 183 101 320 l80 247 601 -2 601 -3 54 -160 c29 -88 74 -231
100 -317 l47 -158 227 0 227 0 -24 83 c-136 454 -434 1241 -679 1792 -108 244
-281 612 -298 633 -7 9 -70 12 -253 12 l-244 0 -34 -67z m362 -515 c145 -328
388 -926 379 -934 -2 -2 -213 -3 -470 -2 l-465 3 87 225 c126 322 369 889 382
890 3 0 43 -82 87 -182z"/>
<path d="M27300 10840 l0 -1260 215 0 215 0 0 1260 0 1260 -215 0 -215 0 0
-1260z"/>
<path d="M20660 11735 l0 -275 -174 0 c-96 0 -181 -3 -190 -6 -14 -5 -16 -30
-16 -170 l0 -164 190 0 190 0 0 -477 c0 -371 3 -500 15 -576 42 -278 163 -430
401 -504 84 -26 375 -26 487 0 l77 18 0 164 0 165 -47 -8 c-27 -4 -111 -7
-189 -7 -137 0 -142 1 -199 30 -44 22 -67 42 -87 75 -53 86 -58 139 -58 652
l0 468 288 2 287 3 0 165 0 165 -270 2 c-148 1 -278 2 -287 3 -17 0 -18 20
-18 275 l0 275 -200 0 -200 0 0 -275z"/>
<path d="M19099 11484 c-341 -61 -603 -303 -703 -648 -74 -253 -51 -578 55
-789 185 -366 548 -553 990 -507 191 19 342 66 489 152 72 41 180 124 180 137
0 4 -47 65 -105 135 l-106 127 -47 -39 c-123 -102 -253 -154 -423 -172 -256
-26 -448 52 -568 229 -41 60 -85 163 -95 224 l-7 37 701 0 700 0 0 108 c0 499
-216 858 -590 980 -129 43 -322 53 -471 26z m287 -335 c175 -32 314 -169 358
-354 8 -33 17 -75 20 -92 l6 -33 -506 0 -505 0 7 38 c3 20 18 69 33 107 98
256 321 383 587 334z"/>
<path d="M22545 11485 c-335 -62 -585 -309 -682 -673 -24 -88 -26 -115 -27
-287 0 -159 4 -205 21 -280 43 -183 122 -332 241 -457 136 -142 277 -216 469
-245 260 -39 503 36 676 207 l77 78 0 -124 0 -124 195 0 195 0 0 939 0 940
-192 -2 -193 -2 -3 -115 -3 -115 -72 70 c-112 109 -234 170 -387 194 -86 14
-228 12 -315 -4z m418 -364 c108 -30 208 -98 278 -191 78 -104 79 -107 79
-417 l0 -275 -32 -61 c-91 -170 -265 -274 -478 -284 -202 -10 -352 56 -455
202 -85 119 -116 234 -116 420 0 219 54 370 175 485 141 134 342 179 549 121z"/>
</g>
</svg>
