<?xml version="1.0" standalone="no"?>
<!DOCTYPE svg PUBLIC "-//W3C//DTD SVG 20010904//EN"
 "http://www.w3.org/TR/2001/REC-SVG-20010904/DTD/svg10.dtd">
<svg version="1.0" xmlns="http://www.w3.org/2000/svg"
 width="2364.000000pt" height="1019.000000pt" viewBox="0 0 2364.000000 1019.000000"
 preserveAspectRatio="xMidYMid meet">
<metadata>
Created by potrace 1.16, written by Peter Selinger 2001-2019
</metadata>
<g transform="translate(0.000000,1019.000000) scale(0.100000,-0.100000)"
fill="#000000" stroke="none">
<path d="M4755 6783 c-530 -68 -991 -566 -1220 -1318 -92 -302 -128 -546 -128
-875 0 -196 4 -254 21 -349 22 -117 68 -271 84 -282 5 -3 9 -9 8 -13 -4 -13
22 -66 32 -66 5 0 7 -3 5 -7 -7 -12 12 -55 21 -49 5 3 9 -1 9 -9 0 -25 67
-116 81 -110 8 3 10 0 6 -6 -3 -6 13 -31 37 -56 128 -131 329 -225 467 -218
46 2 50 1 17 -4 -35 -6 -30 -8 47 -15 49 -5 121 -5 161 -1 75 7 196 32 165 34
-27 2 -22 31 5 30 20 0 21 -1 2 -8 -17 -7 -17 -8 8 -15 19 -4 44 2 87 22 33
15 57 31 53 36 -4 4 -1 4 8 1 8 -3 23 1 34 10 17 13 18 16 5 25 -13 8 -13 10
3 10 9 0 17 -4 17 -10 0 -26 177 125 267 228 31 35 52 66 49 70 -4 3 -12 0
-17 -8 -9 -13 -10 -13 -6 0 2 8 12 15 21 15 10 0 27 11 37 24 16 19 17 26 7
34 -9 6 -8 7 4 3 13 -4 25 6 42 31 14 20 23 40 20 45 -3 5 -1 7 4 6 15 -4 72
79 66 96 -3 8 -1 17 5 21 7 4 8 -1 4 -12 -10 -29 8 -6 65 82 29 45 50 89 48
100 -2 11 -1 14 1 7 6 -17 44 31 40 50 -2 7 -2 9 1 5 5 -9 35 38 111 170 29
52 49 98 45 104 -4 7 -3 9 4 5 10 -6 72 89 76 119 1 8 9 22 17 32 37 43 71
115 60 126 -15 15 -43 -21 -37 -47 3 -12 -2 -20 -15 -23 -10 -3 -16 -10 -12
-16 3 -6 1 -7 -5 -3 -9 5 -9 13 -2 27 8 13 7 25 -3 41 -9 16 -12 50 -9 111 l3
87 69 0 c38 0 75 3 83 6 20 7 29 -22 13 -39 -14 -13 -31 -57 -23 -57 3 0 24
35 48 78 23 42 49 88 58 102 9 13 11 21 5 18 -6 -4 -11 -1 -11 7 0 18 8 19 29
3 9 -7 138 -217 287 -466 418 -701 583 -933 782 -1100 116 -97 299 -195 330
-176 7 4 10 3 6 -3 -8 -13 106 -34 224 -40 65 -4 127 0 194 11 108 19 249 71
238 88 -3 7 -1 8 6 4 29 -18 243 167 226 195 -5 7 -4 10 2 6 14 -9 66 60 57
75 -4 6 -3 8 3 5 12 -8 72 108 102 196 14 40 17 64 11 80 -5 12 -9 18 -10 12
0 -5 -5 -3 -10 5 -13 20 -13 33 0 25 6 -3 10 1 10 10 0 9 -4 14 -9 11 -5 -4
-9 19 -8 51 2 63 17 73 30 22 6 -22 5 -34 -3 -39 -9 -5 -9 -9 -1 -14 6 -4 11
-26 12 -49 0 -38 2 -36 19 33 32 127 46 248 32 271 -15 24 -15 30 1 26 9 -1
12 44 11 203 -1 358 -52 662 -164 985 -41 116 -60 156 -60 124 0 -8 5 -20 12
-27 6 -6 9 -14 5 -18 -10 -10 -27 6 -27 25 0 10 -7 24 -15 31 -8 7 -15 9 -15
5 0 -5 -8 -1 -19 9 -10 9 -25 14 -35 10 -13 -5 -16 0 -15 27 0 19 3 28 6 22 2
-7 11 -13 19 -13 8 0 14 -5 14 -10 0 -6 6 -10 13 -9 6 1 19 1 27 0 12 -1 12
-3 2 -10 -10 -6 -9 -10 7 -14 26 -7 26 -6 -5 64 -15 33 -31 56 -37 52 -6 -3
-7 -1 -3 5 4 6 0 24 -9 39 -14 24 -15 25 -12 5 3 -12 1 -20 -3 -17 -5 3 -10 0
-13 -7 -2 -7 -2 -2 0 10 2 15 0 21 -7 17 -7 -4 -7 2 0 20 7 18 7 33 0 46 -13
22 -25 26 -16 4 3 -9 0 -15 -10 -15 -12 0 -13 4 -3 21 9 18 5 30 -24 77 -24
38 -42 57 -56 58 -44 3 -46 4 -28 18 9 7 17 17 17 21 0 28 -220 282 -256 295
-13 5 -24 14 -24 19 0 11 -120 103 -182 140 -35 21 -43 20 -39 -2 1 -5 -3 -5
-9 -2 -6 4 -9 13 -6 20 5 14 -63 47 -169 83 -109 37 -234 55 -220 32 3 -5 1
-10 -4 -10 -6 0 -11 7 -11 15 0 12 -13 15 -57 14 -36 0 -51 -3 -39 -8 15 -6
11 -9 -21 -19 -22 -7 -58 -11 -79 -11 -36 1 -34 2 14 9 29 4 56 11 60 15 15
17 -120 -6 -202 -34 -91 -31 -122 -48 -73 -39 15 3 27 1 27 -3 0 -5 -12 -9
-27 -10 -16 0 -22 -3 -15 -6 20 -8 14 -22 -8 -18 -14 3 -20 -2 -20 -16 0 -10
5 -19 11 -19 6 0 9 -9 6 -19 -3 -13 1 -21 12 -24 14 -4 14 -5 -1 -6 -22 -1
-24 -31 -3 -31 8 0 15 -9 15 -20 0 -18 -7 -20 -85 -20 -67 0 -87 3 -91 15 -9
22 -24 18 -24 -5 0 -13 7 -20 20 -20 18 0 20 -7 20 -75 l0 -76 -77 3 c-77 3
-78 3 -81 31 -3 25 -1 27 33 27 44 0 65 19 65 58 0 22 -6 31 -22 35 -20 6 -19
20 3 23 5 1 12 2 15 3 4 0 1 7 -5 15 -9 10 -8 15 3 19 16 6 66 -13 66 -25 0
-5 5 -8 12 -8 8 0 7 5 -3 16 -9 9 -14 25 -11 40 5 26 22 33 22 9 0 -19 14 -19
30 0 7 8 16 12 21 9 5 -3 9 2 9 10 0 9 -7 16 -16 16 -14 0 -14 2 0 15 8 8 19
15 24 15 5 0 17 10 28 21 l19 22 -25 -13 c-43 -22 -135 -81 -145 -93 -5 -7
-30 -25 -55 -41 -88 -57 -410 -400 -328 -350 7 5 8 3 4 -5 -5 -7 -11 -10 -14
-7 -7 7 -32 -13 -32 -26 0 -5 5 -6 10 -3 6 3 10 1 10 -5 0 -7 -6 -10 -14 -7
-18 7 -51 -29 -51 -57 0 -11 7 -26 15 -33 12 -10 13 -14 2 -25 -11 -11 -12
-10 -6 6 5 13 4 17 -4 12 -12 -7 -16 4 -13 34 1 12 -1 11 -12 -3 -13 -16 -20
-11 -78 60 -198 241 -417 431 -606 527 -179 90 -414 133 -598 109z m2472 -29
c-3 -3 -12 -4 -19 -1 -8 3 -5 6 6 6 11 1 17 -2 13 -5z m-460 -56 c-3 -8 -6 -5
-6 6 -1 11 2 17 5 13 3 -3 4 -12 1 -19z m610 8 c-4 -9 3 -13 21 -14 74 -2 79
-17 7 -17 -33 -1 -42 3 -40 15 1 8 -3 18 -9 22 -7 5 -4 8 8 8 11 0 16 -5 13
-14z m-50 -32 c-3 -3 -12 -4 -19 -1 -8 3 -5 6 6 6 11 1 17 -2 13 -5z m-587
-59 c0 -8 -4 -15 -10 -15 -5 0 -10 7 -10 15 0 8 5 15 10 15 6 0 10 -7 10 -15z
m910 -39 c0 -2 -6 -9 -14 -15 -11 -9 -16 -9 -22 0 -4 7 -3 9 4 5 6 -3 13 -2
17 4 6 10 15 14 15 6z m94 -77 c17 -20 25 -38 21 -50 -5 -16 -1 -19 29 -19 47
0 68 -21 53 -55 -11 -23 -17 -25 -89 -25 l-78 0 0 100 c0 96 1 100 19 91 10
-6 31 -25 45 -42z m-1299 21 c-3 -5 -1 -10 4 -10 6 0 11 -13 11 -30 0 -25 -4
-30 -25 -30 -30 0 -34 29 -8 60 18 21 28 27 18 10z m548 -147 c-7 -2 -19 -2
-25 0 -7 3 -2 5 12 5 14 0 19 -2 13 -5z m94 1 c-3 -3 -12 -4 -19 -1 -8 3 -5 6
6 6 11 1 17 -2 13 -5z m807 -20 c5 -14 -20 -12 -34 2 -6 6 -3 10 10 10 11 0
22 -6 24 -12z m-1583 -4 c5 0 9 -9 9 -20 0 -17 7 -20 40 -20 22 0 40 -4 40
-10 0 -5 -16 -10 -36 -10 -19 0 -42 -6 -50 -14 -8 -8 -14 -31 -14 -50 0 -34
-2 -36 -35 -36 -19 0 -35 5 -35 10 0 6 5 10 10 10 6 0 10 13 10 29 0 31 -19
45 -47 34 -15 -6 -15 -4 2 12 11 11 24 24 28 30 5 5 6 -1 2 -15 -5 -23 -5 -23
8 -7 8 9 20 17 27 17 8 0 10 8 6 26 -6 22 -4 25 9 20 9 -3 21 -6 26 -6z m820
0 c98 -18 231 -82 297 -144 14 -12 37 -21 54 -21 25 0 32 -5 34 -23 3 -19 2
-21 -10 -10 -10 9 -11 15 -3 20 7 4 1 6 -12 5 -21 -1 -20 -4 21 -42 23 -22 48
-47 53 -56 6 -8 32 -45 59 -82 27 -36 73 -106 101 -156 42 -73 55 -88 66 -78
11 10 11 9 1 -5 -11 -13 -6 -32 27 -110 22 -51 41 -89 41 -85 0 5 5 5 11 1 8
-5 8 -8 0 -13 -12 -8 17 -111 31 -111 4 0 8 5 8 10 0 6 5 10 12 10 7 0 5 -7
-5 -18 -15 -16 -15 -24 5 -97 12 -44 24 -82 27 -85 4 -3 6 -16 7 -30 1 -14 11
-79 22 -145 12 -66 26 -169 32 -230 14 -157 12 -435 -5 -528 -7 -44 -11 -86
-8 -95 4 -13 3 -14 -5 -4 -7 10 -13 1 -23 -35 -7 -26 -12 -57 -12 -68 1 -11
-1 -14 -4 -7 -3 8 -15 -1 -33 -25 -48 -67 -79 -94 -133 -117 -103 -46 -232
-42 -329 11 -58 31 -153 124 -228 223 -116 153 -338 500 -610 955 -79 132
-190 312 -247 401 -56 89 -103 164 -103 168 0 4 14 27 31 52 16 24 27 49 23
56 -4 6 -3 8 3 5 14 -9 34 16 37 48 2 14 7 29 11 33 4 4 4 -4 0 -18 -8 -28 -2
-23 38 31 26 36 26 37 7 54 -22 20 -16 43 6 24 7 -6 11 -15 8 -20 -12 -21 14
-7 41 21 24 25 26 30 12 36 -10 3 -17 13 -17 22 0 13 2 13 18 -1 17 -16 23
-12 97 64 44 44 95 89 113 100 19 12 29 26 25 32 -3 7 -3 9 2 5 4 -4 34 6 67
23 106 53 224 70 339 49z m-371 -19 c13 -25 13 -31 -2 -31 -7 0 -18 11 -25 25
-9 20 -8 25 3 25 7 0 18 -9 24 -19z m65 10 c13 -2 -16 -21 -31 -21 -7 0 -14 6
-17 14 -5 12 3 14 48 7z m460 -10 c-3 -6 -11 -11 -17 -11 -6 0 -6 6 2 15 14
17 26 13 15 -4z m71 -43 c2 -14 -1 -16 -16 -8 -30 16 -35 32 -10 28 13 -1 24
-11 26 -20z m574 2 c0 -5 -4 -10 -10 -10 -5 0 -10 5 -10 10 0 6 5 10 10 10 6
0 10 -4 10 -10z m61 -51 c6 -12 5 -27 -3 -43 -11 -26 -28 -35 -28 -16 0 5 -11
9 -25 8 -21 -2 -25 -7 -25 -35 0 -31 -2 -33 -35 -33 -33 0 -35 2 -35 35 0 32
3 35 29 35 16 0 31 6 34 14 5 12 13 13 39 5 18 -5 34 -9 35 -9 2 0 3 9 3 20 0
11 -4 20 -9 20 -5 0 -11 9 -14 21 -5 17 -3 18 9 8 8 -7 19 -20 25 -30z m-1299
24 c-6 -2 -10 -9 -6 -14 3 -5 1 -8 -5 -7 -5 2 -17 -6 -25 -17 -10 -12 -15 -14
-14 -6 4 22 31 49 48 49 10 0 11 -1 2 -5z m703 -3 c3 -6 -1 -7 -9 -4 -18 7
-21 14 -7 14 6 0 13 -4 16 -10z m550 -12 c6 -4 2 -8 -7 -8 -10 0 -18 7 -18 17
0 9 3 12 8 7 4 -5 12 -12 17 -16z m-1725 -19 c0 -20 -16 -24 -39 -10 -12 8
-12 12 -2 25 16 19 41 10 41 -15z m-1244 0 c192 -35 386 -191 615 -495 98
-130 109 -150 89 -170 -6 -6 -2 -10 12 -11 19 -2 20 0 8 8 -12 8 -12 10 -1 7
8 -2 20 -21 28 -43 13 -38 13 -38 -7 -20 -19 18 -20 17 -20 -3 0 -26 -18 -38
-26 -17 -5 11 -10 13 -19 5 -6 -5 -15 -7 -18 -4 -8 8 -47 -57 -41 -68 3 -5 1
-7 -4 -6 -14 4 -94 -121 -86 -134 4 -7 2 -8 -4 -4 -15 9 -32 -26 -26 -51 3
-12 0 -24 -6 -28 -9 -5 -10 -1 -5 14 9 28 1 27 -19 -4 -11 -17 -14 -31 -8 -42
6 -11 11 -12 16 -4 10 15 27 14 23 -1 -1 -10 14 -12 61 -10 57 4 62 2 62 -17
0 -14 -6 -21 -20 -21 -13 0 -20 -7 -20 -20 0 -16 -7 -20 -30 -20 -27 0 -30 -3
-30 -30 0 -16 -4 -30 -10 -30 -6 0 -10 28 -10 65 0 59 -2 65 -20 65 -11 0 -23
7 -26 15 -4 8 -10 12 -15 9 -5 -3 -7 -10 -4 -15 4 -5 2 -9 -3 -9 -6 0 -19 -15
-30 -32 -11 -18 -45 -73 -76 -122 -57 -90 -63 -102 -47 -91 5 3 13 0 17 -6 5
-8 1 -10 -14 -7 -16 5 -26 -4 -50 -42 -22 -36 -27 -51 -19 -59 9 -9 8 -17 -1
-32 -10 -16 -11 -24 -1 -35 6 -8 9 -17 5 -21 -3 -3 -6 -1 -6 5 0 17 -27 15
-34 -3 -3 -9 5 -20 22 -29 24 -14 25 -15 6 -16 -13 0 -29 11 -39 26 -9 15 -11
23 -4 19 8 -6 10 -4 4 5 -4 7 -2 16 6 21 8 5 9 9 3 9 -7 0 -19 -11 -28 -25 -9
-14 -14 -25 -11 -25 3 0 -4 -9 -15 -20 -21 -21 -28 -46 -10 -35 6 4 10 -10 10
-35 0 -34 -3 -41 -16 -36 -9 3 -20 6 -25 6 -5 0 -2 11 7 25 9 14 12 25 8 25
-10 0 -54 -65 -54 -79 0 -5 -7 -11 -15 -14 -9 -4 -13 -16 -10 -37 2 -20 0 -28
-7 -24 -7 5 -9 2 -6 -8 4 -9 0 -15 -8 -15 -12 0 -11 5 2 25 8 13 14 26 11 28
-7 8 -58 -76 -52 -87 4 -5 2 -8 -3 -7 -9 3 -142 -163 -142 -177 0 -15 22 -2
29 18 8 20 10 20 16 4 5 -11 1 -25 -9 -36 -11 -12 -12 -18 -4 -18 7 0 24 -3
37 -8 19 -6 23 -4 18 8 -4 11 -2 14 9 10 16 -6 20 32 4 42 -6 4 -8 10 -5 15 3
5 0 12 -6 16 -8 4 -9 3 -5 -4 4 -7 3 -12 -2 -12 -5 0 -12 9 -15 20 -3 11 -1
18 4 14 5 -3 9 0 9 5 0 6 5 11 10 11 6 0 10 -7 10 -15 0 -10 11 -15 35 -15
l35 0 0 -60 0 -60 -74 0 c-55 0 -77 4 -87 16 -12 15 -15 14 -31 -6 -10 -12
-18 -17 -18 -11 0 6 9 20 19 30 11 11 17 22 14 25 -3 3 -28 -23 -57 -57 -28
-34 -54 -64 -59 -65 -4 -2 -13 -9 -20 -16 -6 -6 -34 -28 -62 -47 -116 -83
-278 -98 -404 -37 -25 12 -49 22 -54 20 -4 -1 -6 2 -5 6 5 14 -84 108 -89 95
-3 -7 -9 -13 -15 -13 -6 0 -4 8 5 18 10 10 14 22 11 25 -4 4 -13 -1 -21 -11
-13 -15 -13 -14 -3 7 9 18 9 30 0 50 -53 114 -75 312 -60 535 39 556 234 1066
511 1336 164 160 320 215 515 179z m1484 -19 c0 -11 -4 -20 -10 -20 -5 0 -10
9 -10 20 0 11 5 20 10 20 6 0 10 -9 10 -20z m1166 -60 c48 0 54 -2 54 -21 0
-19 -5 -20 -59 -16 -33 2 -67 10 -76 17 -16 13 -15 15 1 27 12 9 20 10 22 3 2
-5 28 -10 58 -10z m448 -25 c4 -10 -1 -15 -14 -15 -11 0 -20 5 -20 11 0 5 5 7
10 4 6 -3 10 -1 10 4 0 16 7 13 14 -4z m19 -72 c-5 -12 -3 -14 7 -8 9 6 11 4
5 -4 -5 -9 -11 -9 -17 -3 -6 6 -7 15 -4 21 11 17 16 13 9 -6z m-1628 -22 c10
-17 -12 -21 -25 -6 -10 12 -10 15 3 15 9 0 18 -4 22 -9z m1220 -2 c11 -17 -1
-21 -15 -4 -8 9 -8 15 -2 15 6 0 14 -5 17 -11z m-1445 -29 c0 -23 -4 -30 -20
-30 -16 0 -20 7 -20 30 0 23 4 30 20 30 16 0 20 -7 20 -30z m1445 -40 c-3 -5
-1 -10 4 -10 6 0 11 -8 11 -17 -1 -16 -2 -16 -15 1 -18 23 -19 36 -4 36 5 0 7
-4 4 -10z m71 -117 l2 -24 -19 22 c-23 27 -23 25 -1 25 11 0 18 -9 18 -23z
m454 23 c0 -2 -7 -9 -15 -16 -12 -10 -15 -10 -15 4 0 9 7 16 15 16 8 0 15 -2
15 -4z m-374 -113 c-11 -11 -19 6 -11 24 8 17 8 17 12 0 3 -10 2 -21 -1 -24z
m1 -55 c-3 -8 -6 -5 -6 6 -1 11 2 17 5 13 3 -3 4 -12 1 -19z m463 -61 c-8 -9
-9 -7 -4 7 5 13 4 17 -4 12 -13 -8 -17 6 -5 18 4 3 11 -1 16 -10 6 -10 5 -20
-3 -27z m-460 18 c0 -8 -2 -15 -4 -15 -2 0 -6 7 -10 15 -3 8 -1 15 4 15 6 0
10 -7 10 -15z m25 -55 c3 -5 1 -10 -4 -10 -6 0 -11 5 -11 10 0 6 2 10 4 10 3
0 8 -4 11 -10z m-2199 -164 c-16 -25 -16 -26 4 -26 12 0 18 -4 15 -10 -6 -10
-55 -14 -55 -4 0 3 5 14 10 24 7 13 7 21 0 25 -5 3 -10 1 -10 -4 0 -6 -4 -11
-10 -11 -17 0 2 31 24 40 31 12 42 -5 22 -34z m104 25 c14 -28 13 -41 -5 -41
-20 0 -33 32 -16 38 11 4 11 6 0 13 -10 6 -10 9 -2 9 7 0 17 -9 23 -19z m2607
-63 c-3 -8 -6 -5 -6 6 -1 11 2 17 5 13 3 -3 4 -12 1 -19z m-2782 -48 c3 -5 1
-10 -4 -10 -6 0 -11 5 -11 10 0 6 2 10 4 10 3 0 8 -4 11 -10z m-38 -22 c2 -17
0 -19 -7 -8 -5 8 -6 18 -4 22 8 12 10 10 11 -14z m343 -73 c0 -5 -5 -3 -10 5
-5 8 -10 20 -10 25 0 6 5 3 10 -5 5 -8 10 -19 10 -25z m2097 -85 c-3 -19 -4
-17 -6 10 -1 28 -4 32 -12 20 -9 -12 -10 -12 -5 3 3 10 6 24 7 30 0 7 5 1 10
-13 5 -13 8 -36 6 -50z m-2481 23 c-10 -10 -19 5 -10 18 6 11 8 11 12 0 2 -7
1 -15 -2 -18z m394 -29 c0 -23 -2 -24 -15 -10 -8 8 -15 19 -15 25 0 6 7 11 15
11 9 0 15 -10 15 -26z m2517 -6 c-3 -8 -6 -5 -6 6 -1 11 2 17 5 13 3 -3 4 -12
1 -19z m-2535 -36 c-7 -2 -9 -9 -6 -15 5 -9 4 -9 -6 0 -15 13 -4 37 13 26 8
-5 8 -8 -1 -11z m2561 -66 c2 -31 0 -56 -4 -56 -4 0 -7 27 -7 61 0 75 8 72 11
-5z m-3063 29 c-9 -10 -9 -15 -1 -15 6 0 11 -9 11 -20 0 -13 -7 -20 -20 -20
-18 0 -19 3 -10 20 6 11 8 20 4 20 -3 0 -1 7 6 15 7 8 15 15 17 15 3 0 0 -7
-7 -15z m-36 -80 c3 -8 1 -15 -4 -15 -6 0 -10 7 -10 15 0 8 2 15 4 15 2 0 6
-7 10 -15z m242 -252 c-4 -97 -11 -161 -18 -168 -8 -7 -9 -6 -3 5 5 10 2 9
-11 -3 -13 -13 -16 -20 -7 -25 14 -9 -5 -48 -24 -47 -19 0 -28 15 -9 15 14 0
15 3 5 21 -9 17 -8 20 2 14 9 -6 11 -3 6 9 -4 9 -3 15 1 12 4 -2 6 70 4 160
l-3 164 32 0 32 0 -7 -157z m2442 121 c-3 -14 -5 -12 -10 9 -3 19 -2 25 4 19
6 -6 8 -18 6 -28z m-2297 -21 c-8 -15 -10 -15 -11 -2 0 17 10 32 18 25 2 -3
-1 -13 -7 -23z m2296 -85 c-3 -8 -6 -5 -6 6 -1 11 2 17 5 13 3 -3 4 -12 1 -19z
m-2410 -110 c-3 -8 -6 -5 -6 6 -1 11 2 17 5 13 3 -3 4 -12 1 -19z m-593 -163
c-20 -30 -20 -30 -20 -6 0 11 4 17 8 15 4 -3 8 0 8 5 0 6 5 11 10 11 6 0 3
-11 -6 -25z m3456 -20 c0 -19 -2 -35 -4 -35 -2 0 -6 16 -8 35 -2 19 0 35 4 35
4 0 8 -16 8 -35z m-3370 -25 c0 -17 -7 -20 -40 -20 -22 0 -40 2 -40 5 0 16 28
34 53 35 20 0 27 -5 27 -20z m346 -46 c-3 -8 -1 -14 5 -14 6 0 7 -4 4 -10 -3
-5 -10 -10 -14 -10 -11 0 -22 40 -15 52 8 13 26 -3 20 -18z m34 16 c0 -5 -2
-10 -4 -10 -3 0 -8 5 -11 10 -3 6 -1 10 4 10 6 0 11 -4 11 -10z m-2058 -39 c2
-22 0 -37 -4 -35 -8 5 -11 74 -4 74 2 0 6 -18 8 -39z m503 -24 c4 -21 4 -21
-10 -3 -8 11 -15 29 -15 40 1 19 1 20 11 3 6 -9 12 -27 14 -40z m1004 9 c-9
-8 -10 -7 -5 7 3 10 7 24 7 30 1 7 3 4 6 -7 3 -10 -1 -23 -8 -30z m-32 -53
c-3 -2 -13 -3 -23 -1 -16 3 -16 4 2 22 18 18 19 18 22 2 2 -10 1 -20 -1 -23z
m-1474 -31 c4 -21 3 -31 -3 -27 -6 3 -10 20 -10 37 0 38 5 34 13 -10z m5010
-47 c4 -8 2 -17 -3 -20 -6 -4 -10 3 -10 14 0 25 6 27 13 6z m-3589 -10 c3 -8
1 -15 -4 -15 -6 0 -10 7 -10 15 0 8 2 15 4 15 2 0 6 -7 10 -15z m436 -55 c0
-11 -4 -20 -8 -20 -4 0 -8 9 -9 20 -1 11 2 20 8 20 5 0 9 -9 9 -20z m3147 -2
c-3 -8 -6 -5 -6 6 -1 11 2 17 5 13 3 -3 4 -12 1 -19z m-3114 -13 c-7 -21 -13
-19 -13 6 0 11 4 18 10 14 5 -3 7 -12 3 -20z m-533 -11 c0 -8 -4 -12 -10 -9
-5 3 -10 10 -10 16 0 5 5 9 10 9 6 0 10 -7 10 -16z m-1305 -11 c14 34 26 16
24 -38 -3 -58 -13 -71 -23 -30 -4 14 -11 23 -15 20 -5 -3 -9 12 -9 33 0 28 2
32 8 17 7 -18 8 -19 15 -2z m1242 -6 c0 -8 -6 -14 -14 -14 -9 0 -10 4 -2 14 6
7 12 13 14 13 1 0 2 -6 2 -13z m-17 -37 c0 -5 -5 -10 -11 -10 -5 0 -7 5 -4 10
3 6 8 10 11 10 2 0 4 -4 4 -10z m526 -5 c-8 -8 -18 -15 -22 -15 -3 0 -1 7 6
15 7 8 17 15 22 15 5 0 3 -7 -6 -15z m12 -35 c-15 -24 -19 -21 -11 8 3 12 9
19 14 16 5 -3 3 -14 -3 -24z m-544 3 c4 -9 2 -21 -4 -27 -5 -5 -10 -25 -10
-43 0 -31 -2 -33 -37 -33 -28 0 -34 3 -23 10 12 8 12 10 -5 11 -11 0 -14 3 -7
6 6 2 10 9 6 14 -3 5 0 9 5 9 6 0 11 7 11 16 0 15 -2 15 -25 0 -34 -23 -31
-11 6 22 36 32 74 39 83 15z m-1194 -27 c0 -3 -4 -8 -10 -11 -5 -3 -10 -1 -10
4 0 6 5 11 10 11 6 0 10 -2 10 -4z m1084 -45 c-7 -8 -35 9 -29 19 4 6 11 5 20
-3 7 -6 11 -14 9 -16z m-434 -17 c0 -20 -18 -17 -29 5 -9 16 -8 18 9 14 11 -3
20 -12 20 -19z m-79 -12 c-28 -4 -40 6 -21 18 9 6 20 4 29 -3 12 -10 11 -13
-8 -15z m482 15 c3 -9 -5 -12 -32 -8 -30 3 -32 5 -16 12 30 11 42 10 48 -4z
m3767 -22 c0 -8 -4 -17 -10 -20 -6 -4 -10 5 -10 20 0 15 4 24 10 20 6 -3 10
-12 10 -20z m-4786 -11 c3 -9 6 -23 6 -32 0 -13 -3 -12 -15 4 -16 21 -19 44
-6 44 5 0 12 -7 15 -16z m846 -14 c0 -5 -4 -10 -9 -10 -6 0 -13 5 -16 10 -3 6
1 10 9 10 9 0 16 -4 16 -10z m-800 -20 c0 -5 -2 -10 -4 -10 -3 0 -8 5 -11 10
-3 6 -1 10 4 10 6 0 11 -4 11 -10z m4744 -55 c-4 -8 -11 -12 -16 -9 -6 4 -5
10 3 15 19 12 19 11 13 -6z m-4710 -63 c3 -5 -1 -9 -9 -9 -8 0 -15 4 -15 9 0
4 4 8 9 8 6 0 12 -4 15 -8z m4640 -10 c15 -18 15 -20 -4 -37 -18 -17 -20 -17
-14 -2 3 10 1 23 -5 31 -6 7 -8 16 -4 19 9 9 8 10 27 -11z m-3254 -26 c0 -3
-4 -8 -10 -11 -5 -3 -10 -1 -10 4 0 6 5 11 10 11 6 0 10 -2 10 -4z m-1311 -58
c-5 -10 -11 -18 -12 -18 -2 0 -3 8 -3 18 0 10 6 19 13 19 8 0 9 -6 2 -19z m48
-32 c0 -8 -6 -12 -15 -9 -11 5 -11 7 0 14 7 5 13 9 14 9 0 0 1 -6 1 -14z
m4433 10 c0 -2 -8 -10 -17 -17 -16 -13 -17 -12 -4 4 13 16 21 21 21 13z
m-4350 -75 c0 -5 -8 -15 -17 -22 -16 -12 -17 -12 -6 2 7 9 10 19 6 22 -3 4 -1
7 5 7 7 0 12 -4 12 -9z m978 -21 c-7 -10 -14 -17 -17 -15 -4 4 18 35 25 35 2
0 -1 -9 -8 -20z m3288 2 c1 -7 0 -8 -3 -2 -2 5 -9 8 -14 4 -5 -3 -9 0 -9 6 0
15 23 7 26 -8z m-4226 -28 c0 -8 -19 -13 -24 -6 -3 5 1 9 9 9 8 0 15 -2 15 -3z
m4195 -4 c-27 -12 -43 -12 -25 0 8 5 22 9 30 9 10 0 8 -3 -5 -9z m-4155 -20
c0 -5 -6 -10 -14 -10 -8 0 -18 5 -21 10 -3 6 3 10 14 10 12 0 21 -4 21 -10z
m800 6 c0 -11 -19 -15 -25 -6 -3 5 1 10 9 10 9 0 16 -2 16 -4z m-716 -38 c-3
-4 -17 -8 -32 -8 -17 0 -22 3 -15 8 16 10 53 10 47 0z m86 -33 c7 -9 8 -15 2
-15 -5 0 -12 7 -16 15 -3 8 -4 15 -2 15 2 0 9 -7 16 -15z m57 -2 c3 -7 -3 -9
-17 -6 -29 8 -37 25 -9 21 12 -1 24 -8 26 -15z m283 7 c0 -14 47 -12 54 3 5
10 7 10 12 0 3 -7 15 -13 27 -13 18 0 19 -2 7 -10 -9 -5 -19 -5 -27 1 -7 6
-17 8 -24 4 -8 -6 -7 -10 2 -16 10 -6 6 -9 -13 -9 -15 0 -31 6 -35 14 -4 8
-12 15 -18 15 -5 0 -11 4 -13 10 -2 6 3 11 12 11 9 0 16 -4 16 -10z"/>
<path d="M5649 5518 c-12 -23 -12 -23 10 -4 23 21 26 26 11 26 -5 0 -15 -10
-21 -22z"/>
<path d="M5163 4760 c-10 -15 -9 -17 8 -13 20 5 25 18 11 27 -4 2 -13 -4 -19
-14z"/>
<path d="M4656 4052 c-3 -6 -1 -14 5 -17 15 -10 25 3 12 16 -7 7 -13 7 -17 1z"/>
<path d="M8250 3776 c0 -2 8 -10 18 -17 15 -13 16 -12 3 4 -13 16 -21 21 -21
13z"/>
<path d="M9580 5070 l0 -1610 260 0 260 0 2 1232 3 1232 473 -852 474 -852
246 0 247 0 469 846 c258 465 474 847 479 851 5 3 8 -5 7 -18 -1 -13 -2 -567
-1 -1231 l1 -1208 258 0 257 0 -3 1610 -2 1610 -312 -2 -311 -3 -254 -460
c-140 -253 -379 -685 -530 -960 -152 -275 -282 -508 -288 -517 -10 -15 -39 31
-198 320 -103 185 -346 625 -541 977 l-353 640 -322 3 -321 2 0 -1610z"/>
<path d="M6672 6570 c0 -14 2 -19 5 -12 2 6 2 18 0 25 -3 6 -5 1 -5 -13z"/>
<path d="M16400 6213 l0 -353 -240 0 -240 0 0 -215 0 -215 240 0 239 0 3 -687
4 -688 27 -100 c61 -227 177 -382 347 -463 106 -51 174 -69 318 -83 85 -9 142
-9 235 0 127 12 266 37 280 50 5 5 9 101 10 215 l2 207 -30 -5 c-110 -19 -224
-28 -315 -23 -223 11 -322 91 -365 295 -12 61 -15 175 -15 678 l0 604 363 2
362 3 0 210 0 210 -362 3 -363 2 -2 350 -3 350 -248 3 -247 2 0 -352z"/>
<path d="M14550 5913 c-216 -20 -395 -83 -565 -196 -90 -60 -241 -220 -304
-320 -146 -236 -211 -503 -198 -812 15 -355 132 -633 357 -855 242 -238 531
-340 920 -327 292 10 533 81 751 222 89 57 188 136 188 150 1 7 -232 300 -265
334 -2 2 -21 -12 -42 -31 -100 -90 -270 -182 -392 -212 -36 -8 -113 -20 -171
-25 -330 -31 -584 84 -729 328 -41 70 -100 231 -100 275 l0 26 881 0 882 0 -6
198 c-4 143 -11 226 -26 305 -62 311 -200 559 -403 722 -205 164 -495 245
-778 218z m245 -448 c39 -8 99 -29 133 -46 78 -38 185 -137 231 -213 43 -73
89 -207 97 -290 l7 -66 -632 0 -631 0 0 21 c0 46 34 149 81 246 88 183 240
309 419 347 86 19 209 19 295 1z"/>
<path d="M18845 5910 c-501 -57 -879 -455 -961 -1012 -24 -164 -15 -443 19
-588 58 -246 154 -431 302 -589 203 -215 453 -321 755 -321 305 0 573 118 742
328 l43 54 3 -161 2 -161 245 0 245 0 0 1200 0 1200 -245 0 -245 0 0 -149 0
-149 -87 87 c-172 171 -367 253 -633 265 -58 2 -141 1 -185 -4z m460 -480 c39
-12 99 -38 135 -57 90 -50 214 -177 263 -270 l38 -72 -3 -383 -3 -383 -48 -77
c-92 -148 -260 -269 -437 -315 -90 -23 -283 -22 -370 1 -268 72 -448 301 -491
621 -16 122 -7 327 20 430 55 211 184 382 351 464 114 56 195 71 350 67 93 -3
143 -9 195 -26z"/>
<path d="M5788 4973 c-22 -5 -22 -10 -3 -29 12 -13 15 -12 25 5 11 22 4 30
-22 24z"/>
<path d="M5773 4921 c0 -11 5 -18 9 -15 4 3 5 11 1 19 -7 21 -12 19 -10 -4z"/>
</g>
</svg>
