<?xml version="1.0" standalone="yes"?>
<svg xmlns="http://www.w3.org/2000/svg" width="1162" height="452">
<path style="fill:#fefeff; stroke:none;" d="M0 0L0 452L1162 452L1162 0L0 0z"/>
<path style="fill:#9ca4ad; stroke:none;" d="M198 221C201.536 236.048 216.413 254.058 225.004 267C233.284 279.474 242.743 292.702 257 298.651C283.197 309.583 308.865 291.963 314.489 266C321.864 231.956 312.238 188.721 289.715 162.004C262.538 129.767 220.125 139.176 200 174C189.537 163.067 180.23 151.709 166 145.44C143.099 135.35 118.004 144.228 102.616 163C81.8832 188.291 68.3195 233.709 78.1821 266C86.3011 292.582 114.982 312.239 142 296.07C160.713 284.871 171.53 263.321 182.001 245C186.511 237.108 190.767 226.663 198 221z"/>
<path style="fill:#2073e0; stroke:none;" d="M143 142.454C97.3391 148.434 78 201.373 78 242C78 262.42 81.2085 284.119 101 294.965C136.054 314.173 161.579 277.227 176.716 251C181.349 242.973 186.047 235.002 190.717 227C191.884 225 193.881 220.122 196.883 220.631C202.994 221.668 210.891 240.943 214.05 246C228.796 269.602 246.198 305.308 280 299.674C303.222 295.804 313.999 273.648 314 252C314.002 218.592 308.802 181.466 282.91 157.289C265.096 140.655 240.5 138.282 221.04 153.371C215.544 157.633 210.789 162.841 206.155 168.003C204.402 169.956 202.078 173.79 198.989 173.369C193.803 172.662 187.726 162.543 184 159.09C174.083 149.9 157.09 140.608 143 142.454z"/>
<path style="fill:#9ca4ad; stroke:none;" d="M400 193C412.389 205.013 419.973 226.928 428.435 242C431.235 246.987 433.858 254.763 438.39 258.397C442.3 261.532 457.526 261.469 461.39 258.258C466.334 254.151 469.259 245.517 472.421 240C480.637 225.668 494.504 208.15 498 192L499 192C503.426 215.843 499 241.924 499 266C499 271.314 497.169 288.309 501.603 291.821C505.581 294.971 522.108 294.467 523.682 288.891C526.219 279.902 524 267.34 524 258L524 192C524 182.329 527.373 165.048 523.397 156.228C521.552 152.138 515.647 153.001 512 153C496.606 152.994 493.658 156.926 486.145 170C481.238 178.539 476.424 187.312 471.781 196C464.953 208.776 455.963 221.363 451 235C437.568 218.654 428.156 195.706 418.22 177C414.84 170.638 409.95 156.576 402.957 153.742C398.689 152.013 378.777 150.824 376.349 155.318C372.69 162.089 376 179.187 376 187L376 261C376 268.729 373.096 283.656 376.603 290.566C378.659 294.616 396.639 293.827 398.972 290.552C402.757 285.238 400 270.398 400 264L400 237L400 193M871 292C877.304 293.17 892.548 295.881 896.864 289.721C902.27 282.006 900.591 260.478 911.044 257.434C923.422 253.828 941.1 257 954 257C958.271 257 965.145 255.723 968.698 258.603C977.601 265.821 972.803 285.432 982.419 291.821C985.677 293.985 991.286 293 995 293C997.684 293 1002.14 293.776 1004.4 291.972C1006.92 289.956 1005.51 285.565 1004.84 283C1002.74 274.942 999.867 266.869 997.139 259C988.208 233.234 977.808 207.959 966.861 183C963.37 175.041 959.927 159.924 952.787 154.603C949.277 151.988 943.779 153.061 939.714 153.387C935.713 153.707 930.878 152.17 927.104 153.743C921.307 156.159 918.237 166.668 915.861 172C904.257 198.037 893.599 224.227 883.786 251C879.088 263.819 872.191 278.338 871 292M1025.11 153.767C1021.5 155.4 1022.01 159.691 1022 163L1022 189L1022 260C1022 268.143 1019.25 282.323 1022.6 289.772C1024.79 294.623 1039.57 294.258 1043.72 292.258C1047.11 290.624 1046.96 286.204 1047 283C1047.1 274.336 1047 265.665 1047 257L1047 186C1047 177.834 1049.74 163.677 1046.26 156.228C1043.98 151.351 1029.44 151.805 1025.11 153.767z"/>
<path style="fill:#585d62; stroke:none;" d="M399 190C418.714 205.47 421.353 238.811 438.634 256.682C448.446 266.829 463.494 255.631 467 246L466 246C461.009 253.832 451.811 264.217 441.21 256.397C436.892 253.212 434.485 246.51 431.799 242C424.202 229.242 417.845 215.773 410.266 203C407.063 197.601 404.371 188.987 398 187C396.458 194.09 398.245 201.753 397.96 209C397.253 226.95 397 244.947 397 263C397 268.466 400.333 285.69 395.566 288.972C393.73 290.237 391.11 289.986 389 289.999C373.778 290.097 378 275.65 378 264L378 191C378 179.761 379.754 167.019 378 156L402.61 157.028L413.988 176L436.964 217L451 239L475.22 196L490 168L489 168L451 237C436.342 219.758 427.228 195.648 415.999 176C412.517 169.907 408.268 156.487 400.985 154.434C396.755 153.241 381.015 152.05 378.028 155.742C373.661 161.14 377 180.126 377 187L377 259C377 266.854 374.126 281.615 377.603 288.682C379.441 292.416 395.498 292.52 397.972 289.397C402.017 284.29 399 267.411 399 261L399 234L399 190M490 167L491 167C499.608 153.95 507.197 156 522 156L521 203L521 290L502 290L502 221L501 187L489.562 203L467 245L468 245L489.231 207L501 190L501 233C501 249.371 496.827 272.19 501.318 287.887C502.604 292.384 519.24 293.114 521.652 289.397C525.767 283.055 522 266.441 522 259C522 231.697 522.083 204.325 522.957 177C523.106 172.318 524.789 158.995 521.397 155.603C518.992 153.198 514.093 153.96 511.015 154.025C499.664 154.263 494.599 155.957 490 167M1024 155L1023.12 252L1023.41 281L1024.12 289.397L1044 292L1045 251L1046 156L1024 155M873 291C878.452 291 889.916 293.186 894.49 289.972C903.325 283.766 898.613 264.743 907.394 257.742C911.055 254.823 917.629 256 922 256L956 256C960.444 256 967.101 254.758 970.49 258.318C977.181 265.346 977.187 279.234 981.248 287.852C983.167 291.923 1000.09 293.316 1003.31 290.227C1005.37 288.243 1003.66 284.216 1002.92 282C1000.28 274.022 997.946 265.927 995.142 258C986.178 232.658 976.351 207.506 965.306 183C962.046 175.769 958.54 160.449 951.61 156.028C948.776 154.22 944.199 155 941 155C925.234 155 922.651 159.73 916.424 174C904.624 201.045 893.182 228.098 883.495 256C879.632 267.129 873.966 279.193 873 291z"/>
<path style="fill:#172026; stroke:none;" d="M378 156C380.135 192.031 378 228.885 378 265C378 277.136 373.753 290.03 389 290C391.198 289.996 394.411 290.466 396.258 288.972C400.439 285.589 397 268.248 397 263C397 238.555 394.554 211.149 398 187C403.693 189.951 405.888 196.695 409.051 202C416.858 215.095 423.407 228.906 431.201 242C433.863 246.474 436.565 254.258 441.21 256.972C452.854 263.775 462.147 254.154 466.961 245C473.852 231.899 481.112 218.915 488.438 206C492.146 199.464 495.204 191.919 501 187L502 223L502 290L521 290C521 246.15 516.505 199.478 522 156L497.39 157.028L482.49 182L451 239C436.977 223.379 427.026 199.583 417.255 181C413.915 174.647 409.253 161.133 403.363 157.028C398.127 153.379 384.273 156 378 156M926 156C921.942 168.093 915.174 179.312 910.095 191C896.371 222.583 881.718 256.334 874 290L895 290C895.78 282.17 899.948 261.702 906.344 256.742C910.078 253.847 916.578 255 921 255L955 255C959.277 255 965.969 253.766 969.786 256.028C980.106 262.142 974.991 282.19 983.728 288.972C987.629 292.001 998.22 290 1003 290C1002.6 280.736 997.936 270.81 995 262C987.514 239.539 977.885 218.04 969.369 196C965.205 185.225 960.178 165.374 951.363 157.603C946.531 153.344 932.183 156 926 156M1025 156L1025 290L1044 290L1044 156L1025 156z"/>
<path style="fill:#9ca4ad; stroke:none;" d="M666 159C666 165.135 668.922 181.871 664.397 186.397C658.479 192.315 644.737 182.533 645.135 195.831C645.229 198.984 644.431 205.668 647.448 207.552C652.498 210.705 663.495 204.096 665.682 212.059C673.335 239.928 650.848 287.617 694 294.41C700.138 295.376 713.663 296.498 718.397 291.436C720.996 288.656 721.652 275.442 717.682 273.618C710.516 270.326 702.575 276.673 695.188 270.501C684.341 261.437 689 237.567 689 225C689 220.986 687.46 212.82 690.603 209.742C700.088 200.458 720.032 218.087 720 198C719.997 196.076 720.197 193.935 719.682 192.059C717.628 184.579 695.315 188 689 188C689 182.437 691.954 163.638 687.397 160.028C683.259 156.751 671.132 159 666 159z"/>
<path style="fill:#585d62; stroke:none;" d="M659 190L659 191C678.371 190.531 657.925 161.592 676 161C659.946 154.28 674.168 188.305 659 190z"/>
<path style="fill:#172026; stroke:none;" d="M647 205C652.375 206.589 662.526 203.724 666.397 208.318C670.065 212.672 668 223.623 668 229C668 246.208 663.721 272.635 678.21 285.475C690.09 296.002 723.816 298.06 717 275C713.324 275.682 709.751 276.121 706 275.961C683.025 274.981 686 249.642 686 233C686 226.793 683.502 213.419 687.742 208.434C692.573 202.755 711.076 206 718 206C718 202.235 719.432 194.704 716.972 191.604C711.339 184.506 693.713 195.552 687.603 188.566C682.015 182.175 691.001 166.036 685.219 161.031C683.438 159.489 679.86 160.109 677.714 160.285C660.104 161.731 673.283 177.471 666.972 187.772C663.039 194.192 654.552 187.109 649.603 191.028C646.658 193.361 647.843 201.461 647 205z"/>
<path style="fill:#585d62; stroke:none;" d="M679 160L680 161L679 160M686 160C686.428 167.226 682.436 185.744 689 190C686.638 182.379 691.937 165.188 686 160z"/>
<path style="fill:#9ca4ad; stroke:none;" d="M241 162.558C231.191 165.115 209.798 182.393 212.039 194C213.335 200.718 219.928 208.349 223.667 214C230.982 225.053 237.253 236.787 244.32 248C251.491 259.378 261.686 278.426 278 274.467C291.977 271.075 292.947 252.728 292.999 241C293.098 218.673 287.375 194.788 273.5 177.004C266.157 167.591 253.496 159.301 241 162.558z"/>
<path style="fill:#fefeff; stroke:none;" d="M245 163.479C238.582 164.229 233.744 167.721 229.015 171.87C223.994 176.275 214.052 184.823 213.538 192C213.149 197.425 219.119 203.684 221.807 208C229.877 220.955 238.064 233.884 245.856 247C252.474 258.141 261.67 275.181 277 272.786C291.303 270.552 291.018 250.964 291 240C290.966 218.842 285.78 197.507 273.652 180C267.554 171.197 256.511 162.134 245 163.479z"/>
<path style="fill:#9ca4ad; stroke:none;" d="M142 167.468C112.886 172.819 102 218.228 102 243C102 258.245 106.476 277.765 126 274.787C133.67 273.617 139.898 266.767 144.485 261C154.906 247.899 163.074 233.08 172.054 219C175.43 213.708 183.447 205.578 183.444 199C183.443 194.618 178.976 190.16 176.384 187C168.527 177.418 155.734 164.945 142 167.468z"/>
<path style="fill:#fefeff; stroke:none;" d="M141 169.468C112.973 174.846 103.993 220.682 104 244C104.004 257.073 107.486 275.97 125 273.631C132.66 272.608 138.668 265.737 143.112 260C153.166 247.021 160.996 232.669 170.003 219C173.437 213.789 181.182 205.454 181.329 199C181.436 194.307 176.559 189.71 173.731 186.424C165.569 176.942 154.542 166.87 141 169.468z"/>
<path style="fill:#585d62; stroke:none;" d="M958 239L958 238L927 238L915.708 236.258L919.399 221L938 177L939 177C945.952 190.534 951.577 204.818 957.061 219C959.645 225.684 963.559 231.833 961 239C967.078 236.549 963.444 230.65 961.601 226C956.822 213.944 951.969 201.967 946.988 190C945.684 186.865 942.73 176.237 938.169 176.921C934.204 177.516 931.898 185.869 930.681 189C926.265 200.358 921.65 211.828 916.777 223C915.381 226.202 911.156 233.123 913.122 236.566C915.12 240.066 921.684 239 925 239L958 239z"/>
<path style="fill:#9ca4ad; stroke:none;" d="M938 177C929.587 190.225 924.771 206.481 919 221C917.69 224.296 912.665 232.908 915.071 236.258C916.937 238.855 922.272 237.999 925 238L952 238C954.748 237.999 960.039 238.85 961.932 236.258C964.47 232.783 959.686 224.344 958.283 221C952.887 208.139 948.658 186.277 938 177z"/>
<path style="fill:#fefeff; stroke:none;" d="M938 180C929.178 195.171 917.751 218.436 916 236C930.179 236 948.406 239.018 962 235L946.861 197L938 180z"/>
<path style="fill:#9ca4ad; stroke:none;" d="M567 249C578.438 250.257 590.456 249 602 249L629 249C631.91 249 636.948 249.912 639.397 247.972C642.164 245.781 641.123 239.067 640.83 236C639.719 224.366 636.724 211.367 629.097 202.17C601.339 168.695 545.028 190.077 542.089 232C541.365 242.329 541.536 253.293 545.453 263C556.434 290.21 584.047 298.68 611 293.193C617.758 291.817 635.273 286.544 637.252 278.816C638.56 273.709 629.161 263.485 623.996 264.572C618.386 265.752 613.692 270.864 608 272.56C591.726 277.41 565.606 270.159 567 249M809 282C808.785 284.827 807.537 288.946 809.757 291.258C815.57 297.309 831.71 293.706 831.985 284.999C832.645 264.045 832 242.966 832 222C832 212.893 834.095 200.844 831.682 192.059C830.162 186.523 814.526 186.131 810.448 189.028C807.889 190.846 808.465 195.236 808 198C801.307 192.692 794.605 188.175 786 186.873C778.24 185.7 770.617 185.608 763 187.746C707.269 203.388 721.498 299.271 781 294.91C792.203 294.089 799.879 287.679 809 282z"/>
<path style="fill:#585d62; stroke:none;" d="M587 187L587 188L599 188L587 187M764 292L764 291C722.98 277.032 718.667 210.231 759 192.171C769.782 187.343 782.112 186.736 793 191.669C797.044 193.501 804.422 201.696 808.682 200.94C811.84 200.38 811.411 192.473 812 190L809 200C798.686 193.206 790.687 187.898 778 187.09C722.252 183.542 710.464 282.752 764 292M581 292L581 291C531.363 276.607 532.121 195.958 586 189C572.093 183.33 553.364 202.943 548.439 214C535.803 242.369 545.413 286.741 581 292z"/>
<path style="fill:#172026; stroke:none;" d="M635 280C634.143 275.736 630.144 267.408 624.985 267.167C621.086 266.986 616.572 271.885 613 273.37C603.946 277.135 594.388 277.89 585 275.086C576.633 272.588 569.669 265.939 566.174 258C565.013 255.364 563.045 251.073 565.502 248.603C569.57 244.515 583.574 247 589 247L609 247L638 247C638 236.219 637.625 226.316 634.061 216C623.836 186.398 584.919 180.246 562.004 198.518C535.416 219.718 538.512 269.303 568 286.127C577.508 291.552 586.351 292 597 292C612.476 292 621.249 285.212 635 280z"/>
<path style="fill:#585d62; stroke:none;" d="M600 188L600 189L608 190L600 188z"/>
<path style="fill:#172026; stroke:none;" d="M829 290L829 218C829 212.052 831.791 196.462 827.972 191.742C825.81 189.07 814.197 188.776 812.013 191.614C810.404 193.706 812.012 200.755 807.852 200.234C803.049 199.633 797.695 193.217 793 191.233C778.878 185.266 760.954 187.887 749.039 197.529C716.11 224.175 728.776 291.675 775 292.29C782.896 292.395 790.078 291.228 797 287.251C800.07 285.487 804.442 279.404 807.941 279.346C812.29 279.273 810.05 286.95 812.603 288.972C816.013 291.672 824.833 290 829 290z"/>
<path style="fill:#585d62; stroke:none;" d="M649 189L649 190L652 190L649 189M715 189L716 190L715 189M608 190L608 191L617 194L617 193L608 190M647 190L647 204L648 204L649 190L647 190M689 190L689 191L695 191L689 190M696.667 190.333L697.333 190.667L696.667 190.333M707 190L708 191L707 190M710 190L711 191L710 190M717 190L718 191L717 190M816 190L817 191L816 190M827 190L827 191C831.588 197.056 829 210.573 829 218L829 290L830 290L830 190L827 190M718 191L718 206L719 206L718 191M617 194L618 195L617 194M618 195L622 198L618 195M622 198L624 200L624 198L622 198M624 200L626 202L626 200L624 200M626 202L627 203L626 202M627 203L628 204L627 203M587 204.468C577.25 206.294 569.74 213.031 565.873 222.001C564.833 224.412 562.048 229.745 564.644 231.972C567.008 234.001 573.011 233.183 576 233.576C587.674 235.108 605.474 236.244 616.851 232.686C623.266 230.68 617.017 218.39 614.752 215.004C608.927 206.296 597.133 202.569 587 204.468M628 204L632 210L628 204z"/>
<path style="fill:#9ca4ad; stroke:none;" d="M565 232L569 232L569 231L566 231C569.645 215.288 584.345 201.895 601 208.094C607.117 210.371 621.249 223.52 616 231C619.769 232.43 618.324 227.299 617.782 225C616.561 219.813 613.802 214.913 609.866 211.278C593.024 195.721 565.262 210.511 565 232z"/>
<path style="fill:#585d62; stroke:none;" d="M647 205L667 208L667 207L647 205M785 276L785 275C774.57 274.993 764.608 272.705 757.927 263.961C743.205 244.688 751.495 207.532 779 206.043C817.205 203.975 821.954 270.317 786 274C795.505 277.839 807.24 265.112 809.779 257C815.758 237.9 811.576 211.938 790 206.019C754.322 196.229 735.472 246.419 760.04 268.812C767.143 275.285 775.884 276 785 276z"/>
<path style="fill:#fefeff; stroke:none;" d="M566 231C581.871 232.704 602.388 234.717 618 231C615.853 223.382 613.796 215.535 606.985 210.649C590.077 198.518 568.745 212.429 566 231z"/>
<path style="fill:#585d62; stroke:none;" d="M689 206L689 207L718 207L689 206z"/>
<path style="fill:#9ca4ad; stroke:none;" d="M774 206.598C735.556 215.838 747.06 284.358 789 273.957C824.219 265.222 814.749 196.804 774 206.598z"/>
<path style="fill:#585d62; stroke:none;" d="M687 207C683.007 223.772 685.654 244.946 687 262L688 262C688 244.604 684.968 223.936 689 207L687 207z"/>
<path style="fill:#fefeff; stroke:none;" d="M778 207.428C740.934 212.691 744.793 279.337 784 273.7C820.186 268.497 816.564 201.953 778 207.428z"/>
<path style="fill:#585d62; stroke:none;" d="M667 208L668 269L669 269L668 229L667 208M632 210L633 214L634 214L632 210M634 215L635 221L636 221L634 215M636 221L638 247L565 247L565 248L619 248C623.687 248 634.585 250.014 638.396 246.972C642.647 243.579 638.455 225.071 636 221z"/>
<path style="fill:#9ca4ad; stroke:none;" d="M570 231L570 232L576 232L570 231z"/>
<path style="fill:#585d62; stroke:none;" d="M564 248L564 254L565 254L564 248M565 254L565 257L566 257L565 254M566 257L567 261L568 261L566 257M568 261L575 269L568 261M688 262L689 268L690 268L688 262M624.667 265.333L625.333 265.667L624.667 265.333M623 266L624 267L623 266M626 266L630 270L626 266M620 269L623 267L620 269M690 268L692 271L690 268M575 269L575 271L577 271L575 269M619 269L620 270L619 269M616 272L619 270L616 272M630 270L634 275L630 270M669 270L670 276L671 276L669 270M577 271L578 272L577 271M692 271L693 272L692 271M578.667 272.333L579.333 272.667L578.667 272.333M613 272L613 273L616 273L613 272M693.667 272.333L694.333 272.667L693.667 272.333M580 273L580 274L586 275L586 274L580 273M607 274L607 275L613 274L607 274M695 273L695 274L700 275L700 274L695 273M701 275L701 276L718 276L701 275M586 275L586 276L607 276L586 275M634 275L635 280L636 280L634 275M671 276L672 280L673 280L671 276M718 276C718 282 719.086 287.931 713 291L713 292C720.235 290.846 720.425 281.778 718 276M802 284L809 280C809.695 282.918 809.163 288.044 811.028 290.397C814.173 294.365 824.666 291.089 829 291C824.316 289.034 818.747 291.404 814.148 289.397C808.46 286.913 810.628 270.963 802 284M631 282L634 280L631 282M673 280L675 284L676 284L673 280M628 284L631 282L628 284M625 286L628 284L625 286M676 284L677 285L676 284M801 284L802 285L801 284M677 285L678 286L677 285M800 285L801 286L800 285M621 287L621 288L625 287L621 287M678 286L681 288L678 286M793 289L793 290L800 287L793 289M616 289L616 290L621 289L616 289M681 288L681 289L685 290L685 289L681 288M608 291L608 292L616 291L608 291M685 290L685 291L712 293L712 292L685 290M787 291L787 292L793 291L787 291M583 292L583 293L608 293L583 292M765 292L765 293L786 293L765 292z"/>
</svg>
