<?xml version="1.0" standalone="yes"?>
<svg xmlns="http://www.w3.org/2000/svg" width="1318" height="396">
<path style="fill:#ffffff; stroke:none;" d="M0 0L0 396L1318 396L1318 0L0 0z"/>
<path style="fill:#05fb59; stroke:none;" d="M129 52L130 53L129 52M126 53L127 54L126 53M194 53L195 54L194 53M129.333 54.6667L129.667 55.3333L129.333 54.6667M126 55L127 56L126 55z"/>
<path style="fill:#fe0303; stroke:none;" d="M128 55L127 88L127 153L79 153L54 154L55 164C58.824 168.231 60.9797 173.66 64.9506 177.961C74.4667 188.267 88.0562 196.787 90 212L92 212C92.8069 224.961 106.819 241.406 120.996 234.86C128.008 231.623 130.944 223.203 139 222C143.137 215.105 156.815 226.74 156 230C164.008 236.86 167.76 250.53 172 260C173.762 263.935 176.68 267.652 177 272L190 293L194 293L194 297L195 297L194 295L195 295L199 301C203.479 300.253 211.732 308.244 217 310C223.626 312.209 239.654 311.739 244 310C247.97 308.412 247.376 304.303 246 301C241.223 289.536 241.088 280.736 245 269C246.411 264.768 249.567 255.142 253 256L259 249C263.091 234.775 290.655 225.853 303 220.858C306.464 219.456 313.816 219.015 316.307 216.317C319.102 213.291 317 202.067 317 198C317 188.505 319.677 174.281 316.486 165.325C313.3 156.382 305.028 151.419 303.325 141C301.307 128.657 305.559 115.04 302 103L265 103L250.988 104.742L244 136L262 137L260 151C256.485 153.712 256.706 160.792 257 165L238 165C236.162 179.236 219.097 218.64 247 212L242 243C226.664 241.287 198.021 248.468 186.343 235.812C180.758 229.758 183.047 221.34 184.41 214.08C187.42 198.037 192.662 181.372 193 165L176 164L182 137L199.262 135.397L204.75 112L204.357 104.028L190 104L190 56C170.469 56 147.005 59.5247 128 55z"/>
<path style="fill:#05fb59; stroke:none;" d="M189 55L190 56L189 55z"/>
<path style="fill:#040404; stroke:none;" d="M126 57L127 58L126 57z"/>
<path style="fill:#05fb59; stroke:none;" d="M123 58L124 59L123 58M193 58L194 59L193 58z"/>
<path style="fill:#fe0303; stroke:none;" d="M220.333 68.6667L220.667 69.3333L220.333 68.6667M225 68L225 70L222 69L216 92L216 93C223.703 97.1107 235.406 95 244 95L248 69L225 68z"/>
<path style="fill:#05fb59; stroke:none;" d="M249 68L250 69L249 68z"/>
<path style="fill:#040404; stroke:none;" d="M224 69L225 70L224 69z"/>
<path style="fill:#05fb59; stroke:none;" d="M220 70L221 71L220 70z"/>
<path style="fill:#040404; stroke:none;" d="M248 70L249 71L248 70M247 75L248 76L247 75z"/>
<path style="fill:#fe0303; stroke:none;" d="M249 75L250 76L249 75z"/>
<path style="fill:#05fb59; stroke:none;" d="M220 76L221 77L220 76M249 79L250 80L249 79z"/>
<path style="fill:#040404; stroke:none;" d="M216 84L217 85L216 84z"/>
<path style="fill:#05fb59; stroke:none;" d="M246 87L247 88L246 87M248.333 87.6667L248.667 88.3333L248.333 87.6667z"/>
<path style="fill:#040404; stroke:none;" d="M218 88L219 89L218 88M244 89L245 90L244 89z"/>
<path style="fill:#05fb59; stroke:none;" d="M214 91L215 92L214 91M246 91L247 92L246 91z"/>
<path style="fill:#040404; stroke:none;" d="M214 93L215 94L214 93z"/>
<path style="fill:#05fb59; stroke:none;" d="M215 93L216 94L215 93z"/>
<path style="fill:#ffffff; stroke:none;" d="M216 93L217 94L216 93z"/>
<path style="fill:#0809f4; stroke:none;" d="M216 94L217 95L216 94z"/>
<path style="fill:#05fb59; stroke:none;" d="M218 95L219 96L218 95z"/>
<path style="fill:#fe0303; stroke:none;" d="M218 96L219 97L218 96z"/>
<path style="fill:#05fb59; stroke:none;" d="M212 97L213 98L212 97z"/>
<path style="fill:#040404; stroke:none;" d="M216 97L217 98L216 97z"/>
<path style="fill:#05fb59; stroke:none;" d="M218 97L219 98L218 97z"/>
<path style="fill:#040404; stroke:none;" d="M211 98L212 99L211 98z"/>
<path style="fill:#05fb59; stroke:none;" d="M214 98L215 99L214 98M212 99L213 100L212 99M217 99L218 100L217 99z"/>
<path style="fill:#040404; stroke:none;" d="M192 100L193 101L192 100z"/>
<path style="fill:#05fb59; stroke:none;" d="M248 100L249 101L248 100M251 100L252 101L251 100M263 100L264 101L263 100z"/>
<path style="fill:#fe0303; stroke:none;" d="M299 100L300 101L299 100z"/>
<path style="fill:#05fb59; stroke:none;" d="M211 101L212 102L211 101M241 101L242 102L241 101M209.333 102.667L209.667 103.333L209.333 102.667M236 102L237 103L236 102M263 102L264 103L263 102z"/>
<path style="fill:#0809f4; stroke:none;" d="M300 102L301 103L300 102z"/>
<path style="fill:#040404; stroke:none;" d="M190.667 103.333L191.333 103.667L190.667 103.333z"/>
<path style="fill:#fe0303; stroke:none;" d="M211 103L212 104L211 103M241 103C235.367 103 219.808 100.282 215.768 104.792C211.671 109.365 211.376 122.025 210.261 128C206.647 147.351 203.033 166.716 199.2 186C198.049 191.789 192.324 205.308 194.643 210.682C196.508 215.006 216.346 214.211 219.487 211.397C225.746 205.789 225.614 186.98 227.2 179C229.252 168.675 231.203 158.336 233.197 148C236.009 133.419 240.693 117.861 241 103z"/>
<path style="fill:#040404; stroke:none;" d="M218 103L219 104L218 103z"/>
<path style="fill:#ffffff; stroke:none;" d="M300 103L301 104L300 103z"/>
<path style="fill:#040404; stroke:none;" d="M358 126C364.115 118.083 373.587 116.988 383 117C386.866 117.005 392.362 116.433 393.682 121.109C395.741 128.404 394 138.431 394 146C394 162.83 398.124 185.813 393.566 201.985C392.218 206.767 386.98 208.47 385 213C393.502 213 418.852 217.138 424 210C414.307 203.818 416 196.372 416 186L416 141C416 135.803 413.403 121.209 418.293 118.028C423.74 114.484 438.495 116.948 444 119.573C446.459 120.745 451.428 126.558 454.357 124.824C457.93 122.708 450.853 107.733 448.926 105.318C445.275 100.742 433.285 103 428 103L382 103C376.353 103 367.445 101.315 362.214 103.603C356.852 105.949 351.231 123.746 358 126z"/>
<path style="fill:#05fb59; stroke:none;" d="M211.667 104.333L212.333 104.667L211.667 104.333z"/>
<path style="fill:#040404; stroke:none;" d="M241.333 104.667L241.667 105.333L241.333 104.667z"/>
<path style="fill:#05fb59; stroke:none;" d="M306 104L307 105L306 104z"/>
<path style="fill:#040404; stroke:none;" d="M210 105L211 106L210 105M205 107L206 108L205 107z"/>
<path style="fill:#05fb59; stroke:none;" d="M213 107L214 108L213 107M211 110L212 111L211 110M204 115L205 116L204 115M243 115L244 116L243 115M212 116L213 117L212 116z"/>
<path style="fill:#040404; stroke:none;" d="M212 117L213 118L212 117z"/>
<path style="fill:#fe0303; stroke:none;" d="M243 119L244 120L243 119M241 121L242 122L241 121z"/>
<path style="fill:#05fb59; stroke:none;" d="M241 124L242 125L241 124z"/>
<path style="fill:#040404; stroke:none;" d="M201 127L202 128L201 127z"/>
<path style="fill:#05fb59; stroke:none;" d="M237.333 127.667L237.667 128.333L237.333 127.667z"/>
<path style="fill:#040404; stroke:none;" d="M676 187C676.563 192.359 679.184 208.952 683.5 212.278C686.748 214.781 689.771 210.388 693 210.972C710.173 214.08 737.391 220.019 745.111 196.917C752.724 174.137 733.746 164.511 715 160.389C709.124 159.097 695.669 158.2 695.194 150C694.283 134.258 722.706 142.251 729 146.694C731.154 148.215 735.635 154.114 738.667 152.25C741.865 150.283 736.567 133.896 734.889 131.111C732.941 127.876 729.678 128.837 729 132C721.308 130.178 715.055 127.962 707 128.001C687.572 128.093 667.265 149.709 683.39 167.816C693.043 178.654 709.842 176.925 721.985 182.919C727.247 185.517 729.826 191.694 726.258 196.895C718.247 208.572 698.617 201.705 690 194.985C685.579 191.537 681.968 186.5 676 187M435 129L442.467 141.004L443 164L442.811 200L435 213L484 213L503.501 211.972L512 192L505 192C500.913 206.529 474.205 202 463 202L462 175C469.454 175 478.763 173.483 485.996 175.318C489.135 176.114 492.671 182.26 495.786 181.248C499.608 180.007 499.576 158.956 495.736 157.752C492.654 156.785 489.028 162.544 485.995 163.427C478.81 165.52 469.447 164 462 164C462 158.395 460.238 149.115 463.179 144.148C465.562 140.123 471.021 141 475 141C488.906 140.999 494.066 145.468 506 151C507.405 145.877 505.017 132.255 499.582 129.603C494.894 127.317 486.145 129 481 129L435 129M509 129C509.9 134.448 515.297 136.211 518.907 140.015C525.128 146.572 538.93 161.706 540.415 170.715C541.073 174.705 536.008 180.024 533.848 183C529.094 189.549 524.609 197.205 518.907 202.945C515.217 206.659 509.828 207.602 507 212L541 213L541 209C528.755 204.749 544.908 186.974 550 181L549 184C553.916 185.456 564.629 199.358 563.335 204.867C562.528 208.302 558.672 209.113 558 213L615 213C614.311 208.978 609.986 206.974 609.836 202.985C609.137 184.443 635.182 190 647 190L649.933 203.957L645 213L681 213C681 207.339 672.518 203.042 670 197C663.147 180.553 657.854 163.45 651 147C649.021 142.251 648.728 135.287 646 131C644.368 128.435 627.833 127.111 625 129C621.799 131.134 620.466 141.481 619 145L602 186C600.189 190.347 598.085 204.479 592 206C587.703 207.074 582.648 193.119 581 191C577.147 186.046 572.61 180.415 569 175C567.802 173.204 563.82 170.165 564 168C564.383 163.408 578.48 147.62 580 148L595 129L564 129L568.865 137.133L557 159L556 159C552.175 151.815 537.93 138.011 550 133C548.345 128.013 543.541 129 539 129L509 129z"/>
<path style="fill:#fe0303; stroke:none;" d="M239.333 130.667L239.667 131.333L239.333 130.667z"/>
<path style="fill:#05fb59; stroke:none;" d="M238 131L239 132L238 131M243 132L244 133L243 132z"/>
<path style="fill:#040404; stroke:none;" d="M207 133L208 134L207 133z"/>
<path style="fill:#05fb59; stroke:none;" d="M236 133L237 134L236 133z"/>
<path style="fill:#040404; stroke:none;" d="M565 135L566 136L565 135M185.667 137.333L186.333 137.667L185.667 137.333z"/>
<path style="fill:#05fb59; stroke:none;" d="M196 137L197 138L196 137z"/>
<path style="fill:#0809f4; stroke:none;" d="M197 137L198 138L197 137z"/>
<path style="fill:#05fb59; stroke:none;" d="M243 137L244 138L243 137z"/>
<path style="fill:#0809f4; stroke:none;" d="M182 138L183 139L182 138z"/>
<path style="fill:#05fb59; stroke:none;" d="M184 138L185 139L184 138z"/>
<path style="fill:#fe0303; stroke:none;" d="M195 138L196 139L195 138z"/>
<path style="fill:#040404; stroke:none;" d="M198 138L199 139L198 138M200 138L201 139L200 138z"/>
<path style="fill:#05fb59; stroke:none;" d="M201 138L202 139L201 138M258 138L259 139L258 138z"/>
<path style="fill:#ffffff; stroke:none;" d="M259 138L260 139L259 138z"/>
<path style="fill:#05fb59; stroke:none;" d="M260 138L261 139L260 138M236.667 139.333L237.333 139.667L236.667 139.333z"/>
<path style="fill:#fe0303; stroke:none;" d="M244 139L245 140L244 139z"/>
<path style="fill:#040404; stroke:none;" d="M250 139L251 140L250 139z"/>
<path style="fill:#0809f4; stroke:none;" d="M259 139L260 140L259 139z"/>
<path style="fill:#040404; stroke:none;" d="M205 140L206 141L205 140z"/>
<path style="fill:#05fb59; stroke:none;" d="M259 140L260 141L259 140z"/>
<path style="fill:#fe0303; stroke:none;" d="M304 140L305 141L304 140z"/>
<path style="fill:#05fb59; stroke:none;" d="M259.333 143.667L259.667 144.333L259.333 143.667z"/>
<path style="fill:#040404; stroke:none;" d="M180 144L181 145L180 144M259 145L260 146L259 145z"/>
<path style="fill:#ffffff; stroke:none;" d="M630 147L618 180L643 180L637 168L630 147z"/>
<path style="fill:#05fb59; stroke:none;" d="M56 148L57 149L56 148z"/>
<path style="fill:#040404; stroke:none;" d="M179.333 148.667L179.667 149.333L179.333 148.667z"/>
<path style="fill:#05fb59; stroke:none;" d="M258 148L259 149L258 148M313 148L314 149L313 148M52 149L53 150L52 149M54 149L55 150L54 149z"/>
<path style="fill:#fe0303; stroke:none;" d="M56 149L57 150L56 149z"/>
<path style="fill:#05fb59; stroke:none;" d="M58 149L59 150L58 149z"/>
<path style="fill:#040404; stroke:none;" d="M305 149L306 150L305 149z"/>
<path style="fill:#05fb59; stroke:none;" d="M307 149L308 150L307 149z"/>
<path style="fill:#0809f4; stroke:none;" d="M124 150L125 151L124 150z"/>
<path style="fill:#040404; stroke:none;" d="M259 150L260 151L259 150M306 151L307 152L306 151M178 154L179 155L178 154z"/>
<path style="fill:#05fb59; stroke:none;" d="M53 155L54 156L53 155z"/>
<path style="fill:#040404; stroke:none;" d="M258 155L259 156L258 155z"/>
<path style="fill:#05fb59; stroke:none;" d="M309 155L310 156L309 155M233 156L234 157L233 156z"/>
<path style="fill:#0809f4; stroke:none;" d="M257 156L258 157L257 156z"/>
<path style="fill:#040404; stroke:none;" d="M177 159L178 160L177 159z"/>
<path style="fill:#05fb59; stroke:none;" d="M177 160L178 161L177 160z"/>
<path style="fill:#040404; stroke:none;" d="M727 161L728 162L727 161z"/>
<path style="fill:#05fb59; stroke:none;" d="M51 163L52 164L51 163M254 163L255 164L254 163z"/>
<path style="fill:#040404; stroke:none;" d="M315.667 163.333L316.333 163.667L315.667 163.333M56 164L57 165L56 164z"/>
<path style="fill:#05fb59; stroke:none;" d="M177 164L178 165L177 164M187 164L188 165L187 164z"/>
<path style="fill:#0809f4; stroke:none;" d="M193 164L194 165L193 164z"/>
<path style="fill:#05fb59; stroke:none;" d="M235 164L236 165L235 164M240.667 164.333L241.333 164.667L240.667 164.333M255 164L256 165L255 164z"/>
<path style="fill:#ffffff; stroke:none;" d="M256 164L257 165L256 164z"/>
<path style="fill:#05fb59; stroke:none;" d="M317 164L318 165L317 164z"/>
<path style="fill:#040404; stroke:none;" d="M321 164L322 165L321 164z"/>
<path style="fill:#05fb59; stroke:none;" d="M232 165L233 166L232 165z"/>
<path style="fill:#040404; stroke:none;" d="M317 165L318 166L317 165z"/>
<path style="fill:#05fb59; stroke:none;" d="M193 166L194 167L193 166M198.333 166.667L198.667 167.333L198.333 166.667M57 167L58 168L57 167z"/>
<path style="fill:#0809f4; stroke:none;" d="M194 168L195 169L194 168z"/>
<path style="fill:#05fb59; stroke:none;" d="M322 168L323 169L322 168M194.333 169.667L194.667 170.333L194.333 169.667M54 170L55 171L54 170M200.333 170.667L200.667 171.333L200.333 170.667z"/>
<path style="fill:#0809f4; stroke:none;" d="M59 172L60 173L59 172z"/>
<path style="fill:#05fb59; stroke:none;" d="M201 172L202 173L201 172M231 172L232 173L231 172z"/>
<path style="fill:#040404; stroke:none;" d="M196.333 173.667L196.667 174.333L196.333 173.667M236 173L237 174L236 173z"/>
<path style="fill:#05fb59; stroke:none;" d="M61 176L62 177L61 176z"/>
<path style="fill:#040404; stroke:none;" d="M200 176L201 177L200 176z"/>
<path style="fill:#05fb59; stroke:none;" d="M59 177L60 178L59 177M63 177L65 179L63 177z"/>
<path style="fill:#ffffff; stroke:none;" d="M64 177L65 178L64 177z"/>
<path style="fill:#040404; stroke:none;" d="M697 177L698 178L697 177z"/>
<path style="fill:#ffffff; stroke:none;" d="M65 178L66 179L65 178z"/>
<path style="fill:#05fb59; stroke:none;" d="M199 178L200 179L199 178z"/>
<path style="fill:#fe0303; stroke:none;" d="M63 179L64 180L63 179z"/>
<path style="fill:#040404; stroke:none;" d="M65 179L66 180L65 179z"/>
<path style="fill:#fe0303; stroke:none;" d="M199 179L200 180L199 179z"/>
<path style="fill:#040404; stroke:none;" d="M69 182L70 183L69 182z"/>
<path style="fill:#fe0303; stroke:none;" d="M67 183L68 184L67 183z"/>
<path style="fill:#05fb59; stroke:none;" d="M69 183L71 185L69 183z"/>
<path style="fill:#ffffff; stroke:none;" d="M70 183L71 184L70 183z"/>
<path style="fill:#05fb59; stroke:none;" d="M196 183L197 184L196 183M199 183L200 184L199 183z"/>
<path style="fill:#fe0303; stroke:none;" d="M68 184L69 185L68 184z"/>
<path style="fill:#040404; stroke:none;" d="M72 186L73 187L72 186z"/>
<path style="fill:#05fb59; stroke:none;" d="M197 186L197 189L198 189L197 186z"/>
<path style="fill:#fe0303; stroke:none;" d="M195 187L196 188L195 187z"/>
<path style="fill:#0809f4; stroke:none;" d="M196 187L197 188L196 187z"/>
<path style="fill:#ffffff; stroke:none;" d="M197 187L198 188L197 187z"/>
<path style="fill:#05fb59; stroke:none;" d="M189 188L190 189L189 188M231 188L232 189L231 188M75.3333 190.667L75.6667 191.333L75.3333 190.667z"/>
<path style="fill:#040404; stroke:none;" d="M76 190L77 191L76 190M78 190L79 191L78 190z"/>
<path style="fill:#05fb59; stroke:none;" d="M191 191L192 192L191 191z"/>
<path style="fill:#0809f4; stroke:none;" d="M79 192L80 193L79 192z"/>
<path style="fill:#040404; stroke:none;" d="M197 192L198 193L197 192z"/>
<path style="fill:#05fb59; stroke:none;" d="M80 194L81 195L80 194M82 195L83 196L82 195z"/>
<path style="fill:#0809f4; stroke:none;" d="M192 195L193 196L192 195z"/>
<path style="fill:#040404; stroke:none;" d="M197 195L198 196L197 195z"/>
<path style="fill:#fe0303; stroke:none;" d="M229 195L230 196L229 195z"/>
<path style="fill:#040404; stroke:none;" d="M196 197L196 200L197 200L196 197z"/>
<path style="fill:#fe0303; stroke:none;" d="M83 200L84 201L83 200z"/>
<path style="fill:#05fb59; stroke:none;" d="M85 200L86 201L85 200M86 202L86 205L87 205L86 202z"/>
<path style="fill:#040404; stroke:none;" d="M195 202L196 203L195 202z"/>
<path style="fill:#0809f4; stroke:none;" d="M224 203L225 204L224 203z"/>
<path style="fill:#05fb59; stroke:none;" d="M229 203L230 204L229 203M83 204L84 205L83 204M222 204L223 205L222 204z"/>
<path style="fill:#040404; stroke:none;" d="M224 204L225 205L224 204M228 204L229 205L228 204M229 205L230 206L229 205M88 206L89 207L88 206z"/>
<path style="fill:#0809f4; stroke:none;" d="M227 206L228 207L227 206M84 207L85 208L84 207z"/>
<path style="fill:#fe0303; stroke:none;" d="M228 207L229 208L228 207z"/>
<path style="fill:#040404; stroke:none;" d="M185 208L186 209L185 208M221 208L222 209L221 208z"/>
<path style="fill:#05fb59; stroke:none;" d="M221.667 209.333L222.333 209.667L221.667 209.333M226 209L227 210L226 209M89 210L90 211L89 210z"/>
<path style="fill:#040404; stroke:none;" d="M90 210L91 211L90 210z"/>
<path style="fill:#0809f4; stroke:none;" d="M228 210L229 211L228 210z"/>
<path style="fill:#040404; stroke:none;" d="M83 211L84 212L83 211M220 211L221 212L220 211M223 211L224 212L223 211z"/>
<path style="fill:#fe0303; stroke:none;" d="M230 211L231 212L230 211z"/>
<path style="fill:#040404; stroke:none;" d="M91 212L92 213L91 212M184 212L185 213L184 212M219 212L220 213L219 212M245.667 212.333L246.333 212.667L245.667 212.333z"/>
<path style="fill:#05fb59; stroke:none;" d="M317.333 212.667L317.667 213.333L317.333 212.667z"/>
<path style="fill:#040404; stroke:none;" d="M92 215L93 216L92 215M92 217L93 218L92 217z"/>
<path style="fill:#ffffff; stroke:none;" d="M93 217L94 218L93 217z"/>
<path style="fill:#040404; stroke:none;" d="M183 217L184 218L183 217z"/>
<path style="fill:#05fb59; stroke:none;" d="M92 218L94 220L94 218L92 218M184 219L185 220L184 219M322 219L323 220L322 219z"/>
<path style="fill:#040404; stroke:none;" d="M139 220L139 221L146 221L139 220z"/>
<path style="fill:#05fb59; stroke:none;" d="M245 220L246 221L245 220z"/>
<path style="fill:#040404; stroke:none;" d="M303 220L304 221L303 220M136 221L137 222L136 221z"/>
<path style="fill:#05fb59; stroke:none;" d="M137 221L138 222L137 221z"/>
<path style="fill:#040404; stroke:none;" d="M147 221L148 222L147 221z"/>
<path style="fill:#05fb59; stroke:none;" d="M306 221L307 222L306 221z"/>
<path style="fill:#fe0303; stroke:none;" d="M93 222L94 223L93 222z"/>
<path style="fill:#05fb59; stroke:none;" d="M94 222L95 223L94 222M148 222L149 223L148 222z"/>
<path style="fill:#040404; stroke:none;" d="M133 223L134 224L133 223z"/>
<path style="fill:#05fb59; stroke:none;" d="M138 223L139 224L138 223z"/>
<path style="fill:#040404; stroke:none;" d="M147 223L148 224L147 223M151 223L152 224L151 223z"/>
<path style="fill:#05fb59; stroke:none;" d="M185 223L186 224L185 223z"/>
<path style="fill:#040404; stroke:none;" d="M295 223L296 224L295 223z"/>
<path style="fill:#05fb59; stroke:none;" d="M306 223L307 224L306 223z"/>
<path style="fill:#040404; stroke:none;" d="M94 224L95 225L94 224z"/>
<path style="fill:#fe0303; stroke:none;" d="M95 225L96 226L95 225z"/>
<path style="fill:#05fb59; stroke:none;" d="M133.667 225.333L134.333 225.667L133.667 225.333z"/>
<path style="fill:#040404; stroke:none;" d="M151 225L152 226L151 225z"/>
<path style="fill:#05fb59; stroke:none;" d="M152 225L153 226L152 225z"/>
<path style="fill:#ffffff; stroke:none;" d="M291 225L292 226L291 225z"/>
<path style="fill:#05fb59; stroke:none;" d="M292.667 225.333L293.333 225.667L292.667 225.333M298 225L299 226L298 225z"/>
<path style="fill:#fe0303; stroke:none;" d="M93 226L94 227L93 226z"/>
<path style="fill:#05fb59; stroke:none;" d="M131 226L132 227L131 226z"/>
<path style="fill:#040404; stroke:none;" d="M150 226L151 227L150 226M182 226L183 227L182 226z"/>
<path style="fill:#05fb59; stroke:none;" d="M291 226L292 227L291 226M294 226L295 227L294 226M94 227L95 228L94 227M97 227L98 228L97 227M130 228L131 229L130 228z"/>
<path style="fill:#040404; stroke:none;" d="M156 228L157 229L156 228M182 228L183 229L182 228z"/>
<path style="fill:#05fb59; stroke:none;" d="M286 228L287 229L286 228M155 229L156 230L155 229M185 229L186 230L185 229z"/>
<path style="fill:#040404; stroke:none;" d="M385 339L424 339C423.073 333.39 416.878 332.256 415.877 326.513C412.391 306.493 416 282.404 416 262C416 252.277 412.407 237.475 424 234L424 229L396 229L386.176 230.549L392.821 239.044L394 258L394 305L393.682 326.996L385 339z"/>
<path style="fill:#05fb59; stroke:none;" d="M283 230L284 231L283 230M130 231L131 232L130 231z"/>
<path style="fill:#040404; stroke:none;" d="M127 232L128 233L127 232M183 232L184 233L183 232z"/>
<path style="fill:#05fb59; stroke:none;" d="M184.667 232.333L185.333 232.667L184.667 232.333M280.667 232.333L281.333 232.667L280.667 232.333M287 232L288 233L287 232M103 233L104 234L103 233M156 233L158 235L156 233z"/>
<path style="fill:#040404; stroke:none;" d="M157 233L158 234L157 233z"/>
<path style="fill:#fe0303; stroke:none;" d="M282 233L283 234L282 233z"/>
<path style="fill:#05fb59; stroke:none;" d="M124 234L125 235L124 234z"/>
<path style="fill:#040404; stroke:none;" d="M159 234L160 235L159 234M274 234L275 235L274 234z"/>
<path style="fill:#05fb59; stroke:none;" d="M102 235L103 236L102 235z"/>
<path style="fill:#040404; stroke:none;" d="M108 235L109 236L108 235M127 235L128 236L127 235z"/>
<path style="fill:#05fb59; stroke:none;" d="M158 235L159 236L158 235M187 236L188 237L187 236M194 236L195 237L194 236M271 236L272 237L271 236z"/>
<path style="fill:#0809f4; stroke:none;" d="M272 236L273 237L272 236z"/>
<path style="fill:#05fb59; stroke:none;" d="M156.333 237.667L156.667 238.333L156.333 237.667M161 237L162 238L161 237M235 237L236 238L235 237M237 237L238 238L237 237z"/>
<path style="fill:#040404; stroke:none;" d="M238 237L239 238L238 237M242 237L243 238L242 237M269 237L270 238L269 237z"/>
<path style="fill:#fe0303; stroke:none;" d="M272 237L273 238L272 237z"/>
<path style="fill:#05fb59; stroke:none;" d="M162 238L163 239L162 238M241 238L242 239L241 238z"/>
<path style="fill:#fe0303; stroke:none;" d="M270 238L271 239L270 238z"/>
<path style="fill:#05fb59; stroke:none;" d="M274 238L275 239L274 238z"/>
<path style="fill:#040404; stroke:none;" d="M211 239L212 240L211 239z"/>
<path style="fill:#05fb59; stroke:none;" d="M235 239L236 240L235 239z"/>
<path style="fill:#fe0303; stroke:none;" d="M237 239L238 240L237 239z"/>
<path style="fill:#05fb59; stroke:none;" d="M269 239L270 240L269 239M266 240L267 241L266 240z"/>
<path style="fill:#fe0303; stroke:none;" d="M271 240L272 241L271 240z"/>
<path style="fill:#05fb59; stroke:none;" d="M273 240L274 241L273 240M157 241L158 242L157 241z"/>
<path style="fill:#0809f4; stroke:none;" d="M200 241L201 242L200 241z"/>
<path style="fill:#040404; stroke:none;" d="M240 241L241 242L240 241z"/>
<path style="fill:#05fb59; stroke:none;" d="M241 241L242 242L241 241z"/>
<path style="fill:#040404; stroke:none;" d="M265 241L266 242L265 241z"/>
<path style="fill:#fe0303; stroke:none;" d="M267 241L268 242L267 241z"/>
<path style="fill:#040404; stroke:none;" d="M160 242L161 243L160 242z"/>
<path style="fill:#05fb59; stroke:none;" d="M236 242L237 243L236 242z"/>
<path style="fill:#ffffff; stroke:none;" d="M240.667 242.333L241.333 242.667L240.667 242.333z"/>
<path style="fill:#05fb59; stroke:none;" d="M261 244L262 245L261 244M266 245L267 246L266 245M164.333 246.667L164.667 247.333L164.333 246.667M259 246L258 248L259 246z"/>
<path style="fill:#040404; stroke:none;" d="M259 247L260 248L259 247z"/>
<path style="fill:#ffffff; stroke:none;" d="M259 248L260 249L259 248z"/>
<path style="fill:#05fb59; stroke:none;" d="M260 248L259 250L261 250L260 248M257 250L258 251L257 250z"/>
<path style="fill:#fe0303; stroke:none;" d="M259.667 250.333L260.333 250.667L259.667 250.333z"/>
<path style="fill:#040404; stroke:none;" d="M254 251L255 252L254 251z"/>
<path style="fill:#05fb59; stroke:none;" d="M260 251L261 252L260 251M164 252L165 253L164 252M166 252L167 253L166 252M254 252L255 253L254 252z"/>
<path style="fill:#040404; stroke:none;" d="M587 252L588 253L587 252M166 253L167 254L166 253M253 253L254 254L253 253M542 304C549.17 303.867 564.58 306.332 567.393 314.015C572.991 329.308 548.152 329.212 540 326.3C533.509 323.982 529.07 319.509 524.001 315.07C522.68 313.914 519.9 311.119 518.032 312.89C514.393 316.341 522.189 347.739 530 335C542.462 340.311 558.023 342.94 571 337.095C585.535 330.548 592.478 310.054 581.316 297.184C574.055 288.811 561.246 287.282 551 285.199C545.183 284.016 537.957 282.97 536.116 276.296C534.544 270.601 540.301 267.614 545 266.529C552.448 264.81 569.226 267.807 572 276L581 278C580.202 271.468 577.908 264.034 575.213 258.028C573.521 254.258 570.148 254.096 569 258C561.113 255.745 554.497 252.324 546 253.171C528.668 254.897 510.489 271.443 521.089 289.999C526.097 298.765 535.174 298.386 542 304M1194 313C1195.07 318.166 1200.02 348 1208 335C1220.33 341.498 1238.42 342.615 1251 336.015C1263.78 329.307 1268.64 310.104 1259.89 298.174C1253.09 288.896 1239.42 287.459 1229 285.21C1223.91 284.111 1216.74 283.297 1214.22 277.956C1210.82 270.745 1220.44 266.487 1226 266.097C1236.32 265.374 1247.94 270.778 1254 279C1262.1 276.312 1254.24 261.008 1253 255L1248 254L1246 258C1235.48 253.686 1225.16 251.227 1214 255.101C1200.4 259.822 1190.42 276.477 1198.84 289.999C1207.08 303.222 1224.87 303.043 1238 307.765C1243.77 309.841 1248.65 315.5 1244.72 321.56C1237.24 333.073 1217.87 328.141 1209 321.319C1204.3 317.702 1200.43 310.897 1194 313z"/>
<path style="fill:#05fb59; stroke:none;" d="M252 254L253 255L252 254M255 254L254 256L255 254z"/>
<path style="fill:#040404; stroke:none;" d="M429 255L436.566 267.001L437 288L436.811 325.999L429 339L459 338C457.147 333.259 451.868 331.908 450.032 326.996C445.016 313.578 449 292.274 449 278C462.944 293.149 475.773 309.39 489.547 324.714C494.666 330.408 499.788 339.391 508 340L508 283C508 272.807 506.506 264.179 516 258L516 256C508.073 252.504 495.164 253.239 487 256L494.397 265.015L495 300L467.424 269L452.999 254.603L429 255M587 257L583 278L587 279C594.433 269.246 601.074 266.534 613 267L612.772 326.996L604 339L642 339C641.021 333.119 634.429 332.859 632.724 326.996C628.805 313.525 632 295.004 632 281C632 276.628 630.573 269.113 635.734 267.129C647.884 262.459 654.837 280.004 664 277C662.441 271.52 660.298 258.709 655.583 255.27C651.852 252.548 643.325 254 639 254C624.369 254 599.77 249.312 587 257M663 339L699 339L699 334C687.565 330.754 691 314.261 691 305C695.917 305.013 701.795 304.72 705.996 307.717C716.916 315.507 716.537 331.708 730 338.08C736.689 341.246 753.275 342.656 756 334C737.71 329.615 737.579 306.21 720 301C725.564 298.867 731.51 297.532 735.66 292.895C744.232 283.314 741.505 266.689 730.999 259.815C719.13 252.049 701.501 254 688 254C683.509 254 666.891 251.853 664.086 255.574C661.87 258.514 668.639 261.855 669.821 264.055C671.679 267.514 671 272.215 671 276C671 292.195 673.712 311.084 670.772 326.996C669.754 332.502 663.902 333.545 663 339M746 255L746 259C757.101 262.808 754 276.526 754 286C754 308.346 751.085 333.644 779 339.192C784.284 340.242 789.64 340.002 795 340C799.424 339.998 803.697 339.867 808 338.711C833.781 331.78 826.999 299.479 827 279C827 273.846 826.46 267.553 829.584 263.104C830.838 261.319 835.98 258.284 833.914 255.599C830.47 251.123 812.357 254.599 807 254C807.43 259.418 812.191 261.036 813.566 266.004C816.73 277.434 814 293.142 814 305C814 310.276 814.694 316.234 811.911 320.985C804.901 332.948 779.724 331.201 775.109 317.999C771.472 307.594 774 292.943 774 282C774 276.975 773.082 270.879 774.434 266.004C775.731 261.323 780.58 259.558 782 255L746 255M839 254L838 259C842.111 260.41 845.446 262.945 846.042 267.576C847.506 278.932 846 291.528 846 303C846 310.577 847.349 319.58 845.807 326.996C844.674 332.445 838.897 333.572 838 339L866 339L866 334C858.625 331.879 859 325.55 859 319L859 279L860 279C863.659 299.594 883.25 317.826 884 339L891 340L917 278L918 278L917.656 326L910 339L946 339C945.098 333.545 939.246 332.502 938.228 326.996C935.231 310.777 937.994 291.508 938 275C938.003 267.777 938.296 261.649 946 259L945 254C930.691 255.185 911.38 248.64 910 269L908 269C906.849 276.829 901.294 290.136 896 296L893 307L876.231 269L868.61 255.179L839 254M951 254L950 259C956.153 260.844 958.442 264.663 958.91 271C960.125 287.483 962.048 309.864 958.517 326C957.205 331.995 950.951 333.282 950 339L996 339C1002.56 339 1011.48 340.582 1017.78 338.682C1021.56 337.541 1028.64 322.027 1025.93 318.662C1023.81 316.033 1013.23 325.595 1010 326.507C1003.75 328.27 982.945 331.469 979.028 324.852C975.6 319.062 978 306.614 978 300C985.367 300 995.001 298.383 1001.98 301.032C1004.46 301.971 1008.83 308.388 1011.44 306.824C1015.44 304.432 1013 287.323 1013 283L1001.98 288.682L978 289C978 283.771 976.084 273.812 979.027 269.315C983.088 263.108 1002.16 266.075 1008 268.109C1011.18 269.217 1018.25 276.606 1021.38 274.824C1026.41 271.957 1017.13 255.735 1013.13 254.549C994.245 248.962 970.522 256.047 951 254M1027 338L1057 339L1048.47 325L1048 279C1061.6 292.888 1074.48 308.066 1086.92 323C1092.2 329.336 1098.17 339.334 1107 340C1107 316.476 1105.61 292.476 1107.04 269.001C1107.35 264.053 1113.44 260.894 1113.37 257.022C1113.31 253.886 1108.04 254.329 1106 254.2C1099.94 253.814 1088.34 251.869 1086 259C1098.98 263.521 1094 288.967 1094 300C1083.51 289.507 1074.37 277.906 1064.34 267C1060.72 263.059 1057.12 256.746 1051.96 254.738C1048.36 253.337 1030.97 252.071 1028.58 255.672C1026.93 258.161 1030.47 260.608 1031.88 262.166C1035.78 266.471 1035.97 271.432 1036 277C1036.07 291.842 1040.24 314.547 1034.88 328.509C1033.27 332.702 1028.64 333.852 1027 338M1113 278L1117 279C1120.81 274 1136.58 259.038 1142.99 269.307C1145.4 273.174 1144 280.609 1144 285C1144 297.988 1145.59 312.136 1143.81 325C1142.82 332.156 1135.1 332.665 1134 339L1172 339C1171.02 333.119 1164.43 332.859 1162.72 326.996C1159.46 315.766 1162 300.656 1162 289C1162 283.459 1160.84 276.423 1162.32 271.059C1166.33 256.438 1185.82 276.312 1190.1 277.654C1193.62 278.762 1192.99 273.872 1192.56 271.999C1191.49 267.403 1190.09 257.737 1185.72 255.147C1182.07 252.983 1175.11 254.005 1171 254L1136 254C1131.86 254 1124.57 252.657 1120.99 255.144C1115.75 258.78 1113.8 272.068 1113 278M587 255L588 256L587 255z"/>
<path style="fill:#05fb59; stroke:none;" d="M256.333 256.667L256.667 257.333L256.333 256.667M249 258L250 259L249 258z"/>
<path style="fill:#040404; stroke:none;" d="M252 258L253 259L252 258M255 258L256 259L255 258z"/>
<path style="fill:#05fb59; stroke:none;" d="M247.333 263.667L247.667 264.333L247.333 263.667z"/>
<path style="fill:#040404; stroke:none;" d="M245 265L246 266L245 265z"/>
<path style="fill:#fe0303; stroke:none;" d="M250 265L251 266L250 265M172 266L173 267L172 266z"/>
<path style="fill:#040404; stroke:none;" d="M174.667 266.333L175.333 266.667L174.667 266.333M248 266L249 267L248 266M173 267L174 268L173 267z"/>
<path style="fill:#05fb59; stroke:none;" d="M250 267L251 268L250 267z"/>
<path style="fill:#ffffff; stroke:none;" d="M691 294C698.701 292.167 708.151 295.734 714.856 290.347C720.007 286.209 720.927 274.328 715.697 269.854C711.931 266.633 706.618 267.001 702 267C699.207 266.999 694.168 266.092 692.179 268.603C688.33 273.463 691 287.966 691 294z"/>
<path style="fill:#05fb59; stroke:none;" d="M175 268L176 269L175 268M245.333 269.667L245.667 270.333L245.333 269.667M177 270L178 271L177 270z"/>
<path style="fill:#040404; stroke:none;" d="M470 270L471 271L470 270z"/>
<path style="fill:#fe0303; stroke:none;" d="M171 271L172 272L171 271z"/>
<path style="fill:#040404; stroke:none;" d="M243 271L244 272L243 271z"/>
<path style="fill:#05fb59; stroke:none;" d="M177 273L178 274L177 273M179 274L180 275L179 274z"/>
<path style="fill:#040404; stroke:none;" d="M242.333 274.667L242.667 275.333L242.333 274.667M564 274L565 275L564 274M591 275L591 278L592 278L591 275z"/>
<path style="fill:#05fb59; stroke:none;" d="M181 277L182 278L181 277z"/>
<path style="fill:#ffffff; stroke:none;" d="M858.333 277.667L858.667 278.333L858.333 277.667z"/>
<path style="fill:#040404; stroke:none;" d="M592.333 279.667L592.667 280.333L592.333 279.667M241.333 280.667L241.667 281.333L241.333 280.667M1009 280L1010 281L1009 280z"/>
<path style="fill:#fe0303; stroke:none;" d="M181 281L182 282L181 281z"/>
<path style="fill:#05fb59; stroke:none;" d="M182.667 281.333L183.333 281.667L182.667 281.333z"/>
<path style="fill:#040404; stroke:none;" d="M591 282L592 283L591 282z"/>
<path style="fill:#05fb59; stroke:none;" d="M182 283L183 284L182 283M184 283L184 286L185 286L184 283z"/>
<path style="fill:#ffffff; stroke:none;" d="M184 284L185 285L184 284z"/>
<path style="fill:#05fb59; stroke:none;" d="M186 287L188 289L188 287L186 287z"/>
<path style="fill:#040404; stroke:none;" d="M1086 288L1087 289L1086 288z"/>
<path style="fill:#05fb59; stroke:none;" d="M183 289L184 290L183 289z"/>
<path style="fill:#040404; stroke:none;" d="M452 290L453 291L452 290z"/>
<path style="fill:#05fb59; stroke:none;" d="M179 291L180 292L179 291M188 291L189 292L188 291M191 292L192 293L191 292z"/>
<path style="fill:#040404; stroke:none;" d="M189 293L190 294L189 293z"/>
<path style="fill:#05fb59; stroke:none;" d="M192 295L193 296L192 295M194 295L195 296L194 295z"/>
<path style="fill:#040404; stroke:none;" d="M195 295L196 296L195 295M243.333 295.667L243.667 296.333L243.333 295.667z"/>
<path style="fill:#05fb59; stroke:none;" d="M244 296L245 297L244 296z"/>
<path style="fill:#040404; stroke:none;" d="M247 296L248 297L247 296z"/>
<path style="fill:#0809f4; stroke:none;" d="M190 297L191 298L190 297z"/>
<path style="fill:#040404; stroke:none;" d="M462 297L463 298L462 297M194 298L195 299L194 298z"/>
<path style="fill:#05fb59; stroke:none;" d="M196 298L197 299L196 298M195 300L196 301L195 300M197 300L198 301L197 300M200 300L201 301L200 300z"/>
<path style="fill:#0809f4; stroke:none;" d="M246 300L247 301L246 300z"/>
<path style="fill:#05fb59; stroke:none;" d="M249 300L250 301L249 300M198 301L199 302L198 301M202.667 302.333L203.333 302.667L202.667 302.333M247 302L248 303L247 302M200 303L201 304L200 303z"/>
<path style="fill:#fe0303; stroke:none;" d="M202 303L203 304L202 303z"/>
<path style="fill:#040404; stroke:none;" d="M197 304L198 305L197 304z"/>
<path style="fill:#05fb59; stroke:none;" d="M249 304L250 305L249 304M195 305L196 306L195 305z"/>
<path style="fill:#040404; stroke:none;" d="M202 305L204 307L202 305M208 305L209 306L208 305z"/>
<path style="fill:#0809f4; stroke:none;" d="M248 305L249 306L248 305z"/>
<path style="fill:#05fb59; stroke:none;" d="M208 306L209 307L208 306z"/>
<path style="fill:#040404; stroke:none;" d="M245 310L246 311L245 310z"/>
<path style="fill:#05fb59; stroke:none;" d="M241 311L242 312L241 311z"/>
<path style="fill:#040404; stroke:none;" d="M216 312L217 313L216 312M222 312L223 313L222 312z"/>
<path style="fill:#05fb59; stroke:none;" d="M227.667 312.333L228.333 312.667L227.667 312.333M235 313L236 314L235 313z"/>
<path style="fill:#040404; stroke:none;" d="M476 313L477 314L476 313z"/>
<path style="fill:#05fb59; stroke:none;" d="M218 314L219 315L218 314z"/>
<path style="fill:#fe0303; stroke:none;" d="M218 315L219 316L218 315z"/>
<path style="fill:#040404; stroke:none;" d="M1236 326L1237 327L1236 326z"/>
</svg>
