<?xml version="1.0" standalone="no"?>
<!DOCTYPE svg PUBLIC "-//W3C//DTD SVG 20010904//EN"
 "http://www.w3.org/TR/2001/REC-SVG-20010904/DTD/svg10.dtd">
<svg version="1.0" xmlns="http://www.w3.org/2000/svg"
 width="1280.000000pt" height="720.000000pt" viewBox="0 0 1280.000000 720.000000"
 preserveAspectRatio="xMidYMid meet">
<metadata>
Created by potrace 1.16, written by Peter Selinger 2001-2019
</metadata>
<g transform="translate(0.000000,720.000000) scale(0.100000,-0.100000)"
fill="#000000" stroke="none">
<path d="M10 3600 l0 -3600 6390 0 6390 0 0 3600 0 3600 -6390 0 -6390 0 0
-3600z m3370 765 l0 -155 50 0 c58 0 57 6 32 -125 l-17 -90 -58 -3 c-49 -3
-58 -6 -62 -25 -37 -162 -38 -157 31 -157 49 0 55 -2 49 -17 -6 -17 -61 -291
-72 -359 -7 -48 20 -91 65 -103 20 -6 101 -11 178 -11 l141 0 17 83 c21 109
22 107 -18 107 -76 0 -76 2 -44 177 l23 122 60 3 60 3 11 51 c6 29 14 68 18
88 l7 36 -56 0 c-65 0 -64 -3 -37 130 l18 85 164 0 165 0 5 -135 c4 -116 8
-141 29 -180 12 -24 32 -51 42 -58 17 -12 19 -27 19 -181 l0 -168 -62 -18
c-167 -48 -342 -177 -394 -289 -28 -60 -32 -166 -9 -231 9 -26 11 -43 4 -50
-5 -5 -43 -11 -84 -13 -66 -4 -82 -1 -133 24 -31 15 -83 53 -114 85 -48 47
-70 83 -139 224 -96 196 -133 245 -188 245 -31 0 -46 -8 -88 -50 -46 -45 -56
-50 -95 -50 -67 0 -113 52 -159 179 -19 53 -35 75 -101 140 -82 79 -113 125
-119 176 l-4 30 233 3 232 2 0 309 c0 169 3 311 7 314 3 4 93 7 200 7 l193 0
0 -155z m372 29 c-2 -16 -9 -52 -16 -80 l-12 -49 -80 0 -79 0 3 35 c3 30 11
65 28 118 3 10 24 13 81 10 l78 -3 -3 -31z m-42 -204 c0 -11 -9 -62 -19 -113
-11 -50 -41 -198 -66 -327 -25 -129 -48 -236 -49 -238 -2 -1 -40 -2 -84 0
l-80 3 44 215 c23 118 52 269 64 335 12 66 24 126 26 133 2 8 28 12 84 12 74
0 80 -2 80 -20z m1358 -45 c27 -78 21 -97 -18 -60 -34 32 -155 55 -196 37
l-24 -12 0 -270 0 -271 25 -25 c14 -14 25 -29 25 -34 0 -11 -223 -14 -233 -4
-3 4 7 19 23 34 l30 28 0 271 0 271 -24 12 c-41 18 -162 -5 -196 -37 -40 -38
-46 -17 -19 61 l23 64 280 0 281 0 23 -65z m312 -112 c12 -14 44 -112 38 -118
-3 -3 -27 8 -54 24 -43 28 -56 31 -125 31 -110 0 -109 0 -109 -81 l0 -69 85 0
c72 0 88 3 105 20 33 33 40 24 40 -55 0 -79 -7 -88 -40 -55 -17 17 -33 20
-105 20 l-85 0 0 -80 c0 -93 7 -100 92 -99 92 1 147 14 176 42 28 27 52 35 52
18 0 -5 -12 -37 -26 -70 l-27 -61 -218 0 c-188 0 -219 2 -219 15 0 8 4 15 9
15 5 0 17 7 25 16 14 13 16 48 16 229 l0 215 -25 16 c-14 9 -25 20 -25 25 0
16 406 18 420 2z m293 7 c31 0 37 -19 7 -27 -30 -8 -24 -41 19 -106 l39 -58
34 49 c61 85 64 92 37 113 -15 11 -20 21 -14 26 13 11 195 4 195 -7 0 -5 -15
-16 -34 -25 -23 -11 -55 -47 -100 -110 -36 -52 -66 -99 -66 -104 0 -16 163
-241 175 -241 16 0 38 42 90 175 80 207 118 300 125 308 8 10 106 16 118 8 4
-4 16 -28 27 -56 52 -141 147 -384 162 -412 9 -18 22 -33 30 -33 7 0 13 -2 13
-4 0 -2 3 -11 6 -20 5 -14 -8 -16 -110 -16 -120 0 -135 6 -96 38 20 16 20 19
4 65 l-16 47 -104 0 -105 0 -15 -35 c-20 -48 -18 -76 6 -82 11 -3 20 -12 20
-19 0 -11 -34 -14 -185 -14 -151 0 -185 3 -185 14 0 7 9 16 20 19 11 3 20 13
20 23 0 19 -88 154 -99 154 -11 -1 -91 -137 -91 -155 0 -9 9 -19 20 -22 11 -3
20 -12 20 -19 0 -11 -22 -14 -105 -14 -79 0 -105 3 -105 13 0 7 13 18 29 23
18 7 51 42 89 95 33 46 70 96 81 110 l21 27 -38 54 c-87 128 -128 179 -149
184 -13 4 -23 12 -23 20 0 10 22 14 83 17 45 2 91 2 102 0 11 -1 32 -3 48 -3z
m1127 -5 c39 -14 44 -14 54 1 10 13 14 13 22 2 10 -11 44 -123 44 -141 0 -13
-28 -7 -33 7 -3 7 -29 25 -58 40 -90 45 -199 30 -199 -27 0 -38 14 -47 112
-71 126 -32 161 -48 186 -83 42 -59 37 -156 -11 -206 -56 -58 -210 -82 -282
-43 -27 14 -31 14 -41 1 -24 -33 -40 -16 -61 67 -12 45 -20 85 -17 90 3 4 29
-12 59 -37 62 -50 119 -69 184 -62 51 6 84 34 84 73 0 41 -31 60 -136 84 -111
25 -160 59 -177 121 -20 75 27 160 105 187 44 15 117 14 165 -3z m-1910 -649
c0 -8 -11 -17 -24 -20 -13 -3 -26 -16 -30 -28 -3 -13 -6 -148 -6 -300 0 -259
1 -279 19 -297 10 -10 24 -20 32 -23 7 -2 9 -10 5 -16 -5 -8 -44 -12 -121 -12
-77 0 -116 4 -121 12 -4 6 -2 14 5 16 8 3 22 13 32 23 18 18 19 38 19 297 0
152 -3 287 -6 300 -4 12 -17 25 -30 28 -13 3 -24 12 -24 20 0 11 25 14 125 14
100 0 125 -3 125 -14z m231 -194 c24 -26 69 -76 99 -111 30 -35 72 -82 92
-105 l37 -41 1 118 c0 113 -1 119 -25 143 -14 14 -23 30 -20 35 4 5 42 9 86 9
64 0 79 -3 79 -15 0 -9 -7 -18 -15 -21 -28 -11 -36 -81 -35 -296 2 -242 0
-247 -64 -170 -40 49 -97 114 -226 260 l-75 85 -3 -149 c-1 -82 0 -158 2 -170
3 -11 17 -26 31 -34 45 -24 23 -35 -70 -35 -58 0 -90 4 -92 12 -2 6 5 14 16
18 35 11 43 66 39 263 l-3 184 -28 24 c-16 13 -25 29 -22 34 3 6 39 10 79 10
l73 0 44 -48z m659 33 c22 -12 27 -11 42 2 9 8 21 12 26 9 12 -7 47 -145 39
-153 -4 -3 -20 6 -38 21 -50 42 -85 57 -143 58 -69 2 -109 -21 -104 -60 4 -34
34 -49 148 -74 131 -29 175 -71 175 -166 -1 -74 -26 -117 -87 -148 -59 -30
-177 -34 -233 -7 -34 16 -36 16 -49 -3 -8 -10 -18 -15 -22 -11 -15 15 -53 162
-44 171 6 5 24 -6 47 -27 54 -53 98 -71 171 -72 58 0 66 3 88 28 52 60 21 96
-108 126 -107 25 -155 52 -174 97 -50 120 31 224 176 223 37 0 76 -6 90 -14z
m605 3 c2 -7 12 -41 23 -76 21 -68 13 -89 -19 -48 -29 36 -70 56 -119 56 l-40
0 -1 -60 c0 -33 0 -80 0 -105 0 -258 -1 -255 26 -267 14 -6 25 -17 25 -25 0
-10 -26 -13 -115 -13 -91 0 -115 3 -115 14 0 7 9 16 20 19 33 8 40 50 40 225
0 214 0 212 -59 212 -42 0 -51 -5 -86 -40 -21 -22 -43 -36 -47 -32 -7 7 21
116 36 141 11 17 425 15 431 -1z m428 -8 c21 -6 52 -24 70 -40 30 -26 32 -33
32 -94 0 -57 -3 -69 -26 -91 -14 -15 -43 -32 -63 -39 l-38 -13 35 -20 c19 -12
48 -44 66 -74 43 -74 71 -106 105 -119 23 -9 26 -13 16 -25 -8 -10 -32 -15
-72 -15 -94 0 -133 29 -188 140 -18 36 -38 68 -44 72 -6 4 -32 8 -58 8 l-48 0
0 -73 c0 -76 16 -117 46 -117 9 0 14 -6 12 -12 -3 -9 -36 -14 -108 -16 -130
-3 -144 1 -105 33 l30 23 3 199 c3 209 -3 251 -38 260 -21 6 -25 14 -12 27 11
12 341 0 385 -14z m375 3 c2 -7 -3 -13 -12 -13 -8 0 -22 -10 -30 -22 -13 -18
-16 -53 -16 -176 0 -181 9 -214 67 -238 56 -24 137 -15 171 20 l27 26 0 181
c0 177 -1 182 -22 196 -46 31 -29 43 61 43 47 0 87 -4 90 -8 3 -5 -6 -19 -19
-30 -25 -22 -25 -24 -25 -189 0 -190 -8 -231 -52 -273 -39 -38 -84 -50 -183
-50 -107 1 -178 34 -212 99 -21 41 -23 57 -23 217 0 144 -3 175 -16 188 -8 9
-20 16 -25 16 -5 0 -9 7 -9 15 0 13 17 15 112 13 78 -2 113 -7 116 -15z m569
0 c3 -10 15 -38 26 -63 11 -25 42 -94 68 -155 l47 -109 27 59 c14 33 31 71 36
85 6 14 27 63 48 110 l37 85 88 3 c59 2 93 -1 100 -9 8 -8 8 -13 -2 -16 -40
-15 -42 -28 -42 -248 0 -220 2 -234 42 -247 6 -2 8 -10 4 -16 -9 -15 -212 -17
-221 -2 -3 5 5 20 19 32 25 23 26 24 26 183 1 88 1 165 0 170 0 6 -27 -53 -61
-130 -33 -77 -71 -164 -84 -193 -14 -29 -25 -57 -25 -62 0 -20 -31 -9 -40 14
-5 13 -30 71 -55 128 -26 56 -54 118 -62 136 -8 19 -23 52 -34 75 l-19 42 0
-176 0 -176 25 -13 c44 -24 23 -35 -65 -35 -88 0 -109 11 -65 35 l25 13 0 224
0 223 -25 12 c-26 11 -30 19 -18 31 3 4 48 7 100 7 80 0 95 -3 100 -17z m958
-51 c24 -67 18 -87 -18 -54 -39 35 -64 42 -156 42 l-91 0 0 -75 0 -75 80 0
c73 0 83 2 104 25 13 14 26 25 30 25 3 0 6 -36 6 -80 0 -64 -3 -80 -15 -80 -8
0 -15 6 -15 14 0 21 -23 26 -111 26 l-79 0 0 -85 0 -85 100 0 c107 0 147 12
181 54 16 19 18 19 24 4 7 -17 -31 -118 -49 -130 -19 -13 -424 -9 -432 4 -4 6
-3 13 3 15 6 2 19 10 29 18 18 12 19 29 19 230 0 201 -1 218 -19 230 -10 8
-23 16 -29 18 -6 2 -7 9 -3 15 6 9 60 12 213 10 l205 -3 23 -63z m290 -23 c44
-50 89 -101 100 -113 11 -12 35 -40 53 -61 l32 -38 0 127 c0 126 0 127 -25
138 -44 20 -22 33 60 36 92 3 110 -7 72 -42 l-27 -25 0 -241 c0 -188 -3 -240
-13 -240 -13 0 -28 15 -79 78 -15 19 -60 70 -100 115 -65 72 -165 185 -175
196 -1 2 -3 -69 -3 -158 0 -160 0 -162 25 -185 14 -13 25 -28 25 -35 0 -14
-166 -16 -175 -2 -3 5 6 21 20 35 l25 25 0 206 0 206 -25 23 c-41 38 -32 46
53 46 l77 0 80 -91z m782 79 c14 -19 46 -139 38 -146 -3 -3 -22 11 -42 33 -34
37 -40 40 -92 40 l-56 0 -3 -185 c-1 -102 0 -195 3 -208 3 -12 17 -28 30 -34
14 -6 25 -17 25 -25 0 -11 -23 -13 -117 -11 -120 3 -146 13 -93 36 l30 14 0
209 0 209 -40 0 c-50 0 -91 -20 -114 -56 -12 -18 -21 -23 -28 -16 -7 7 -4 33
11 81 l22 71 208 0 c155 0 211 -3 218 -12z m348 -2 c31 -13 36 -13 44 1 4 9
13 13 20 9 14 -9 43 -110 39 -138 -3 -21 -3 -21 -33 4 -50 42 -97 61 -150 61
-68 0 -95 -16 -95 -53 0 -39 26 -55 119 -75 154 -32 204 -74 202 -170 -1 -85
-34 -134 -108 -161 -52 -18 -162 -18 -208 2 -34 14 -38 14 -50 -3 -20 -26 -34
-8 -56 74 -30 109 -27 113 39 53 101 -92 272 -89 272 5 0 45 -21 58 -130 84
-107 26 -143 45 -169 92 -41 72 -18 152 58 200 37 24 56 29 108 29 35 0 79 -6
98 -14z"/>
<path d="M6202 3903 c-6 -15 -24 -63 -40 -105 l-30 -78 80 0 c72 0 79 2 73 18
-4 9 -20 55 -37 102 -17 47 -31 86 -33 88 -1 2 -7 -10 -13 -25z"/>
<path d="M6605 3137 c-3 -12 -5 -52 -3 -87 l3 -65 49 -3 c91 -6 145 41 131
114 -8 47 -38 64 -112 64 -57 0 -63 -2 -68 -23z"/>
</g>
</svg>
